Giphurs-Thin.ufo
<glyph name="percent" format="2">
  <advance width="1566"/>
  <unicode hex="0025"/>
  <outline>
    <contour>
      <point x="185" y="1180" type="curve" smooth="yes"/>
      <point x="185" y="1025"/>
      <point x="295" y="910"/>
      <point x="450" y="910" type="curve" smooth="yes"/>
      <point x="605" y="910"/>
      <point x="715" y="1025"/>
      <point x="715" y="1180" type="curve" smooth="yes"/>
      <point x="715" y="1335"/>
      <point x="605" y="1450"/>
      <point x="450" y="1450" type="curve" smooth="yes"/>
      <point x="295" y="1450"/>
      <point x="185" y="1335"/>
    </contour>
    <contour>
      <point x="140" y="1180" type="curve" smooth="yes"/>
      <point x="140" y="1358"/>
      <point x="272" y="1490"/>
      <point x="450" y="1490" type="curve" smooth="yes"/>
      <point x="628" y="1490"/>
      <point x="760" y="1358"/>
      <point x="760" y="1180" type="curve" smooth="yes"/>
      <point x="760" y="1002"/>
      <point x="628" y="870"/>
      <point x="450" y="870" type="curve" smooth="yes"/>
      <point x="272" y="870"/>
      <point x="140" y="1002"/>
    </contour>
    <contour>
      <point x="891" y="300" type="curve" smooth="yes"/>
      <point x="891" y="145"/>
      <point x="1001" y="30"/>
      <point x="1156" y="30" type="curve" smooth="yes"/>
      <point x="1311" y="30"/>
      <point x="1421" y="145"/>
      <point x="1421" y="300" type="curve" smooth="yes"/>
      <point x="1421" y="455"/>
      <point x="1311" y="570"/>
      <point x="1156" y="570" type="curve" smooth="yes"/>
      <point x="1001" y="570"/>
      <point x="891" y="455"/>
    </contour>
    <contour>
      <point x="846" y="300" type="curve" smooth="yes"/>
      <point x="846" y="478"/>
      <point x="978" y="610"/>
      <point x="1156" y="610" type="curve" smooth="yes"/>
      <point x="1334" y="610"/>
      <point x="1466" y="478"/>
      <point x="1466" y="300" type="curve" smooth="yes"/>
      <point x="1466" y="122"/>
      <point x="1334" y="-10"/>
      <point x="1156" y="-10" type="curve" smooth="yes"/>
      <point x="978" y="-10"/>
      <point x="846" y="122"/>
    </contour>
    <contour>
      <point x="1285" y="1457" type="line"/>
      <point x="358" y="0" type="line"/>
      <point x="321" y="23" type="line"/>
      <point x="1248" y="1480" type="line"/>
    </contour>
  </outline>
</glyph>
<glyph name="quotesingle" format="2">
  <advance width="406"/>
  <unicode hex="0027"/>
  <outline>
    <contour>
      <point x="183" y="968" type="line"/>
      <point x="180" y="1480" type="line"/>
      <point x="226" y="1480" type="line"/>
      <point x="223" y="968" type="line"/>
    </contour>
  </outline>
</glyph>
<glyph name="parenleft" format="2">
  <advance width="801"/>
  <unicode hex="0028"/>
  <outline>
    <contour>
      <point x="180" y="660" type="curve" smooth="yes"/>
      <point x="180" y="1301"/>
      <point x="556" y="1605"/>
      <point x="688" y="1660" type="curve"/>
      <point x="710" y="1625" type="line"/>
      <point x="571" y="1568"/>
      <point x="225" y="1261"/>
      <point x="225" y="660" type="curve" smooth="yes"/>
      <point x="225" y="60"/>
      <point x="572" y="-249"/>
      <point x="711" y="-306" type="curve"/>
      <point x="689" y="-341" type="line"/>
      <point x="557" y="-286"/>
      <point x="180" y="20"/>
    </contour>
  </outline>
</glyph>
<glyph name="plus" format="2">
  <advance width="1198"/>
  <unicode hex="002B"/>
  <outline>
    <contour>
      <point x="577" y="1079" type="line"/>
      <point x="621" y="1079" type="line"/>
      <point x="621" y="241" type="line"/>
      <point x="577" y="241" type="line"/>
    </contour>
    <contour>
      <point x="180" y="640" type="line"/>
      <point x="180" y="680" type="line"/>
      <point x="1018" y="680" type="line"/>
      <point x="1018" y="640" type="line"/>
    </contour>
  </outline>
</glyph>
<glyph name="comma" format="2">
  <advance width="500"/>
  <unicode hex="002C"/>
  <outline>
    <contour>
      <point x="168" y="54" type="curve" smooth="yes"/>
      <point x="168" y="90"/>
      <point x="196" y="118"/>
      <point x="232" y="118" type="curve" smooth="yes"/>
      <point x="268" y="118"/>
      <point x="296" y="90"/>
      <point x="296" y="54" type="curve" smooth="yes"/>
      <point x="296" y="18"/>
      <point x="268" y="-10"/>
      <point x="232" y="-10" type="curve" smooth="yes"/>
      <point x="196" y="-10"/>
      <point x="168" y="18"/>
    </contour>
    <contour>
      <point x="168" y="-204" type="line"/>
      <point x="218" y="-191"/>
      <point x="285" y="-130"/>
      <point x="285" y="-40" type="curve" smooth="yes"/>
      <point x="285" y="40"/>
      <point x="232" y="73"/>
      <point x="232" y="73" type="curve"/>
      <point x="232" y="118" type="line"/>
      <point x="294" y="118"/>
      <point x="331" y="40"/>
      <point x="331" y="-40" type="curve" smooth="yes"/>
      <point x="331" y="-150"/>
      <point x="248" y="-226"/>
      <point x="180" y="-246" type="curve"/>
    </contour>
  </outline>
</glyph>
<glyph name="period" format="2">
  <advance width="488"/>
  <unicode hex="002E"/>
  <outline>
    <contour>
      <point x="180" y="54" type="curve" smooth="yes"/>
      <point x="180" y="90"/>
      <point x="208" y="118"/>
      <point x="244" y="118" type="curve" smooth="yes"/>
      <point x="280" y="118"/>
      <point x="308" y="90"/>
      <point x="308" y="54" type="curve" smooth="yes"/>
      <point x="308" y="18"/>
      <point x="280" y="-10"/>
      <point x="244" y="-10" type="curve" smooth="yes"/>
      <point x="208" y="-10"/>
      <point x="180" y="18"/>
    </contour>
  </outline>
</glyph>
<glyph name="zero" format="2">
  <advance width="1198"/>
  <unicode hex="0030"/>
  <outline>
    <contour>
      <point x="185" y="740" type="curve" smooth="yes"/>
      <point x="185" y="274"/>
      <point x="359" y="32"/>
      <point x="599" y="32" type="curve" smooth="yes"/>
      <point x="839" y="32"/>
      <point x="1013" y="274"/>
      <point x="1013" y="740" type="curve" smooth="yes"/>
      <point x="1013" y="1206"/>
      <point x="839" y="1448"/>
      <point x="599" y="1448" type="curve" smooth="yes"/>
      <point x="359" y="1448"/>
      <point x="185" y="1206"/>
    </contour>
    <contour>
      <point x="139" y="740" type="curve" smooth="yes"/>
      <point x="139" y="1240"/>
      <point x="335" y="1490"/>
      <point x="599" y="1490" type="curve" smooth="yes"/>
      <point x="863" y="1490"/>
      <point x="1059" y="1240"/>
      <point x="1059" y="740" type="curve" smooth="yes"/>
      <point x="1059" y="240"/>
      <point x="863" y="-10"/>
      <point x="599" y="-10" type="curve" smooth="yes"/>
      <point x="335" y="-10"/>
      <point x="139" y="240"/>
    </contour>
  </outline>
</glyph>
<glyph name="seven" format="2">
  <advance width="1198"/>
  <unicode hex="0037"/>
  <outline>
    <contour>
      <point x="971" y="1438" type="curve"/>
      <point x="1031" y="1442" type="line"/>
      <point x="1031" y="1442"/>
      <point x="544" y="837"/>
      <point x="480" y="0" type="curve"/>
      <point x="428" y="0"/>
      <point x="486" y="0"/>
      <point x="434" y="0" type="curve"/>
      <point x="496" y="840"/>
      <point x="971" y="1438"/>
    </contour>
    <contour>
      <point x="167" y="1438" type="line"/>
      <point x="167" y="1480" type="line"/>
      <point x="1031" y="1480" type="line"/>
      <point x="1031" y="1442" type="line"/>
      <point x="1001" y="1438" type="line"/>
    </contour>
  </outline>
</glyph>
<glyph name="eight" format="2">
  <advance width="1198"/>
  <unicode hex="0038"/>
  <outline>
    <contour>
      <point x="1050" y="389" type="curve" smooth="yes"/>
      <point x="1050" y="632"/>
      <point x="873" y="792"/>
      <point x="599" y="792" type="curve" smooth="yes"/>
      <point x="325" y="792"/>
      <point x="148" y="632"/>
      <point x="148" y="389" type="curve" smooth="yes"/>
      <point x="148" y="146"/>
      <point x="335" y="-10"/>
      <point x="599" y="-10" type="curve" smooth="yes"/>
      <point x="863" y="-10"/>
      <point x="1050" y="146"/>
    </contour>
    <contour>
      <point x="194" y="391" type="curve" smooth="yes"/>
      <point x="194" y="611"/>
      <point x="374" y="754"/>
      <point x="599" y="754" type="curve" smooth="yes"/>
      <point x="824" y="754"/>
      <point x="1004" y="611"/>
      <point x="1004" y="391" type="curve" smooth="yes"/>
      <point x="1004" y="171"/>
      <point x="824" y="28"/>
      <point x="599" y="28" type="curve" smooth="yes"/>
      <point x="374" y="28"/>
      <point x="194" y="171"/>
    </contour>
    <contour>
      <point x="1010" y="1126" type="curve" smooth="yes"/>
      <point x="1010" y="1345"/>
      <point x="841" y="1490"/>
      <point x="599" y="1490" type="curve" smooth="yes"/>
      <point x="357" y="1490"/>
      <point x="188" y="1345"/>
      <point x="188" y="1126" type="curve" smooth="yes"/>
      <point x="188" y="907"/>
      <point x="337" y="760"/>
      <point x="599" y="760" type="curve" smooth="yes"/>
      <point x="861" y="760"/>
      <point x="1010" y="907"/>
    </contour>
    <contour>
      <point x="234" y="1124" type="curve" smooth="yes"/>
      <point x="234" y="1325"/>
      <point x="399" y="1448"/>
      <point x="599" y="1448" type="curve" smooth="yes"/>
      <point x="799" y="1448"/>
      <point x="964" y="1325"/>
      <point x="964" y="1124" type="curve" smooth="yes"/>
      <point x="964" y="923"/>
      <point x="799" y="798"/>
      <point x="599" y="798" type="curve" smooth="yes"/>
      <point x="399" y="798"/>
      <point x="234" y="923"/>
    </contour>
  </outline>
</glyph>
<glyph name="colon" format="2">
  <advance width="500"/>
  <unicode hex="003A"/>
  <outline>
    <contour>
      <point x="186" y="930" type="curve" smooth="yes"/>
      <point x="186" y="966"/>
      <point x="214" y="994"/>
      <point x="250" y="994" type="curve" smooth="yes"/>
      <point x="286" y="994"/>
      <point x="314" y="966"/>
      <point x="314" y="930" type="curve" smooth="yes"/>
      <point x="314" y="894"/>
      <point x="286" y="866"/>
      <point x="250" y="866" type="curve" smooth="yes"/>
      <point x="214" y="866"/>
      <point x="186" y="894"/>
    </contour>
    <contour>
      <point x="186" y="54" type="curve" smooth="yes"/>
      <point x="186" y="90"/>
      <point x="214" y="118"/>
      <point x="250" y="118" type="curve" smooth="yes"/>
      <point x="286" y="118"/>
      <point x="314" y="90"/>
      <point x="314" y="54" type="curve" smooth="yes"/>
      <point x="314" y="18"/>
      <point x="286" y="-10"/>
      <point x="250" y="-10" type="curve" smooth="yes"/>
      <point x="214" y="-10"/>
      <point x="186" y="18"/>
    </contour>
  </outline>
</glyph>
<glyph name="semicolon" format="2">
  <advance width="523"/>
  <unicode hex="003B"/>
  <outline>
    <contour>
      <point x="180" y="54" type="curve" smooth="yes"/>
      <point x="180" y="90"/>
      <point x="208" y="118"/>
      <point x="244" y="118" type="curve" smooth="yes"/>
      <point x="280" y="118"/>
      <point x="308" y="90"/>
      <point x="308" y="54" type="curve" smooth="yes"/>
      <point x="308" y="18"/>
      <point x="280" y="-10"/>
      <point x="244" y="-10" type="curve" smooth="yes"/>
      <point x="208" y="-10"/>
      <point x="180" y="18"/>
    </contour>
    <contour>
      <point x="180" y="-204" type="line"/>
      <point x="230" y="-191"/>
      <point x="297" y="-130"/>
      <point x="297" y="-40" type="curve" smooth="yes"/>
      <point x="297" y="40"/>
      <point x="244" y="73"/>
      <point x="244" y="73" type="curve"/>
      <point x="244" y="118" type="line"/>
      <point x="306" y="118"/>
      <point x="343" y="40"/>
      <point x="343" y="-40" type="curve" smooth="yes"/>
      <point x="343" y="-150"/>
      <point x="260" y="-226"/>
      <point x="192" y="-246" type="curve"/>
    </contour>
    <contour>
      <point x="180" y="931" type="curve" smooth="yes"/>
      <point x="180" y="967"/>
      <point x="208" y="995"/>
      <point x="244" y="995" type="curve" smooth="yes"/>
      <point x="280" y="995"/>
      <point x="308" y="967"/>
      <point x="308" y="931" type="curve" smooth="yes"/>
      <point x="308" y="895"/>
      <point x="280" y="867"/>
      <point x="244" y="867" type="curve" smooth="yes"/>
      <point x="208" y="867"/>
      <point x="180" y="895"/>
    </contour>
  </outline>
</glyph>
<glyph name="equal" format="2">
  <advance width="1198"/>
  <unicode hex="003D"/>
  <outline>
    <contour>
      <point x="1018" y="820" type="line"/>
      <point x="1018" y="780" type="line"/>
      <point x="180" y="780" type="line"/>
      <point x="180" y="820" type="line"/>
    </contour>
    <contour>
      <point x="180" y="500" type="line"/>
      <point x="180" y="540" type="line"/>
      <point x="1018" y="540" type="line"/>
      <point x="1018" y="500" type="line"/>
    </contour>
  </outline>
</glyph>
<glyph name="A" format="2">
  <advance width="1310"/>
  <unicode hex="0041"/>
  <anchor x="201" y="1040" name="greek_kt"/>
  <anchor x="361" y="1040" name="greek_k"/>
  <anchor x="240" y="1040" name="greek_t"/>
  <anchor x="418" y="1040" name="greek_v"/>
  <anchor x="1190" y="0" name="bottom_right"/>
  <anchor x="655" y="-90" name="bottom_ypogegrammeni"/>
  <anchor x="655" y="1380" name="top_center"/>
  <anchor x="655" y="0" name="bottom_center"/>
  <outline>
    <contour>
      <point x="331" y="541" type="line"/>
      <point x="987" y="541" type="line"/>
      <point x="987" y="499" type="line"/>
      <point x="331" y="499" type="line"/>
    </contour>
    <contour>
      <point x="656" y="1408" type="line"/>
      <point x="169" y="0" type="line"/>
      <point x="120" y="0" type="line"/>
      <point x="630" y="1480" type="line"/>
      <point x="680" y="1480" type="line"/>
      <point x="1190" y="0" type="line"/>
      <point x="1141" y="0" type="line"/>
    </contour>
  </outline>
</glyph>
<glyph name="E" format="2">
  <advance width="1176"/>
  <unicode hex="0045"/>
  <anchor x="38" y="1040" name="greek_v"/>
  <anchor x="-140" y="1040" name="greek_t"/>
  <anchor x="-19" y="1040" name="greek_k"/>
  <anchor x="-179" y="1040" name="greek_kt"/>
  <anchor x="588" y="1380" name="top_center"/>
  <anchor x="588" y="0" name="bottom_center"/>
  <anchor x="996" y="0" name="bottom_right"/>
  <anchor x="588" y="-20" name="bottom_cedilla"/>
  <outline>
    <contour>
      <point x="913" y="761" type="line"/>
      <point x="913" y="719" type="line"/>
      <point x="226" y="719" type="line"/>
      <point x="226" y="42" type="line"/>
      <point x="996" y="42" type="line"/>
      <point x="996" y="0" type="line"/>
      <point x="180" y="0" type="line"/>
      <point x="180" y="1480" type="line"/>
      <point x="996" y="1480" type="line"/>
      <point x="996" y="1438" type="line"/>
      <point x="226" y="1438" type="line"/>
      <point x="226" y="761" type="line"/>
    </contour>
  </outline>
</glyph>
<glyph name="H" format="2">
  <advance width="1344"/>
  <unicode hex="0048"/>
  <anchor x="688" y="-108" name="bottom_ypogegrammeni"/>
  <anchor x="203" y="-38" name="bottom_cedilla"/>
  <anchor x="180" y="1480" name="top_left"/>
  <anchor x="688" y="-18" name="bottom_center"/>
  <anchor x="688" y="1362" name="top_center"/>
  <outline>
    <contour>
      <point x="180" y="1480" type="line"/>
      <point x="226" y="1480" type="line"/>
      <point x="226" y="761" type="line"/>
      <point x="1118" y="761" type="line"/>
      <point x="1118" y="1480" type="line"/>
      <point x="1164" y="1480" type="line"/>
      <point x="1164" y="0" type="line"/>
      <point x="1118" y="0" type="line"/>
      <point x="1118" y="719" type="line"/>
      <point x="226" y="719" type="line"/>
      <point x="226" y="0" type="line"/>
      <point x="180" y="0" type="line"/>
    </contour>
  </outline>
</glyph>
<glyph name="I" format="2">
  <advance width="822"/>
  <unicode hex="0049"/>
  <anchor x="411" y="-20" name="bottom_cedilla"/>
  <anchor x="-179" y="1040" name="greek_kt"/>
  <anchor x="-19" y="1040" name="greek_k"/>
  <anchor x="-140" y="1040" name="greek_t"/>
  <anchor x="38" y="1040" name="greek_v"/>
  <anchor x="435" y="0" name="bottom_right"/>
  <anchor x="411" y="0" name="bottom_center"/>
  <anchor x="411" y="1380" name="top_center"/>
  <outline>
    <contour>
      <point x="180" y="1480" type="line"/>
      <point x="642" y="1480" type="line"/>
      <point x="642" y="1438" type="line"/>
      <point x="435" y="1438" type="line"/>
      <point x="435" y="42" type="line"/>
      <point x="642" y="42" type="line"/>
      <point x="642" y="0" type="line"/>
      <point x="180" y="0" type="line"/>
      <point x="180" y="42" type="line"/>
      <point x="387" y="42" type="line"/>
      <point x="387" y="1438" type="line"/>
      <point x="180" y="1438" type="line"/>
    </contour>
  </outline>
</glyph>
<glyph name="K" format="2">
  <advance width="1298"/>
  <unicode hex="004B"/>
  <anchor x="672" y="1380" name="top_center"/>
  <anchor x="672" y="0" name="bottom_center"/>
  <outline>
    <contour>
      <point x="504" y="807" type="line"/>
      <point x="534" y="841" type="line"/>
      <point x="1198" y="0" type="line"/>
      <point x="1144" y="0" type="line"/>
    </contour>
    <contour>
      <point x="226" y="508" type="line"/>
      <point x="226" y="0" type="line"/>
      <point x="180" y="0" type="line"/>
      <point x="180" y="1480" type="line"/>
      <point x="226" y="1480" type="line"/>
      <point x="226" y="568" type="line"/>
      <point x="1138" y="1480" type="line"/>
      <point x="1191" y="1480"/>
      <point x="1145" y="1480"/>
      <point x="1198" y="1480" type="curve"/>
    </contour>
  </outline>
</glyph>
<glyph name="L" format="2">
  <advance width="1176"/>
  <unicode hex="004C"/>
  <anchor x="203" y="1380" name="top_center"/>
  <anchor x="588" y="0" name="bottom_center"/>
  <outline>
    <contour>
      <point x="226" y="1480" type="line"/>
      <point x="226" y="42" type="line"/>
      <point x="996" y="42" type="line"/>
      <point x="996" y="0" type="line"/>
      <point x="180" y="0" type="line"/>
      <point x="180" y="1480" type="line"/>
    </contour>
  </outline>
</glyph>
<glyph name="O" format="2">
  <advance width="1514"/>
  <unicode hex="004F"/>
  <anchor x="277" y="1224" name="top_left_O2"/>
  <anchor x="863" y="0" name="bottom_right"/>
  <anchor x="757" y="0" name="bottom_center"/>
  <anchor x="1267" y="1480" name="top_right"/>
  <anchor x="757" y="1380" name="top_center"/>
  <outline>
    <contour>
      <point x="186" y="740" type="curve" smooth="yes"/>
      <point x="186" y="265"/>
      <point x="497" y="32"/>
      <point x="757" y="32" type="curve" smooth="yes"/>
      <point x="1017" y="32"/>
      <point x="1328" y="265"/>
      <point x="1328" y="740" type="curve" smooth="yes"/>
      <point x="1328" y="1215"/>
      <point x="1017" y="1448"/>
      <point x="757" y="1448" type="curve" smooth="yes"/>
      <point x="497" y="1448"/>
      <point x="186" y="1215"/>
    </contour>
    <contour>
      <point x="140" y="740" type="curve" smooth="yes"/>
      <point x="140" y="1179"/>
      <point x="409" y="1490"/>
      <point x="757" y="1490" type="curve" smooth="yes"/>
      <point x="1105" y="1490"/>
      <point x="1374" y="1179"/>
      <point x="1374" y="740" type="curve" smooth="yes"/>
      <point x="1374" y="301"/>
      <point x="1105" y="-10"/>
      <point x="757" y="-10" type="curve" smooth="yes"/>
      <point x="409" y="-10"/>
      <point x="140" y="301"/>
    </contour>
  </outline>
</glyph>
<glyph name="P" format="2">
  <advance width="1154"/>
  <unicode hex="0050"/>
  <anchor x="-179" y="1040" name="greek_kt"/>
  <anchor x="-19" y="1040" name="greek_k"/>
  <anchor x="-140" y="1040" name="greek_t"/>
  <anchor x="38" y="1040" name="greek_v"/>
  <anchor x="203" y="0" name="bottom_center"/>
  <anchor x="583" y="1380" name="top_center"/>
  <outline>
    <contour>
      <point x="226" y="1438" type="line"/>
      <point x="226" y="676" type="line"/>
      <point x="595" y="676" type="line"/>
      <point x="820" y="676"/>
      <point x="968" y="857"/>
      <point x="968" y="1057" type="curve" smooth="yes"/>
      <point x="968" y="1257"/>
      <point x="820" y="1438"/>
      <point x="595" y="1438" type="curve"/>
    </contour>
    <contour>
      <point x="180" y="0" type="line"/>
      <point x="180" y="1480" type="line"/>
      <point x="595" y="1480" type="line"/>
      <point x="819" y="1480"/>
      <point x="1014" y="1312"/>
      <point x="1014" y="1057" type="curve" smooth="yes"/>
      <point x="1014" y="802"/>
      <point x="819" y="634"/>
      <point x="595" y="634" type="curve"/>
      <point x="226" y="634" type="line"/>
      <point x="226" y="0" type="line"/>
    </contour>
  </outline>
</glyph>
<glyph name="S" format="2">
  <advance width="1175"/>
  <unicode hex="0053"/>
  <anchor x="586" y="1380" name="top_center"/>
  <anchor x="586" y="0" name="bottom_center"/>
  <outline>
    <contour>
      <point x="586" y="1448" type="curve" smooth="yes"/>
      <point x="401" y="1448"/>
      <point x="223" y="1364"/>
      <point x="223" y="1124" type="curve" smooth="yes"/>
      <point x="223" y="884"/>
      <point x="433" y="816"/>
      <point x="586" y="769" type="curve" smooth="yes"/>
      <point x="854" y="688"/>
      <point x="1035" y="616"/>
      <point x="1035" y="356" type="curve" smooth="yes"/>
      <point x="1035" y="96"/>
      <point x="855" y="-10"/>
      <point x="586" y="-10" type="curve" smooth="yes"/>
      <point x="325" y="-10"/>
      <point x="145" y="143"/>
      <point x="140" y="381" type="curve"/>
      <point x="186" y="394" type="line"/>
      <point x="186" y="161"/>
      <point x="361" y="32"/>
      <point x="586" y="32" type="curve" smooth="yes"/>
      <point x="780" y="32"/>
      <point x="989" y="106"/>
      <point x="989" y="356" type="curve" smooth="yes"/>
      <point x="989" y="606"/>
      <point x="787" y="660"/>
      <point x="586" y="721" type="curve" smooth="yes"/>
      <point x="318" y="803"/>
      <point x="177" y="894"/>
      <point x="177" y="1124" type="curve" smooth="yes"/>
      <point x="177" y="1354"/>
      <point x="330" y="1490"/>
      <point x="586" y="1490" type="curve" smooth="yes"/>
      <point x="847" y="1490"/>
      <point x="1007" y="1347"/>
      <point x="1012" y="1109" type="curve"/>
      <point x="966" y="1096" type="line"/>
      <point x="966" y="1329"/>
      <point x="811" y="1448"/>
    </contour>
  </outline>
</glyph>
<glyph name="U" format="2">
  <advance width="1344"/>
  <unicode hex="0055"/>
  <anchor x="672" y="-10" name="bottom_cedilla"/>
  <anchor x="787" y="0" name="bottom_right"/>
  <anchor x="672" y="0" name="bottom_center"/>
  <anchor x="1164" y="1480" name="top_right"/>
  <anchor x="672" y="1380" name="top_center"/>
  <outline>
    <contour>
      <point x="226" y="1480" type="line"/>
      <point x="226" y="528" type="line"/>
      <point x="226" y="178"/>
      <point x="432" y="32"/>
      <point x="672" y="32" type="curve" smooth="yes"/>
      <point x="912" y="32"/>
      <point x="1118" y="178"/>
      <point x="1118" y="528" type="curve"/>
      <point x="1118" y="1480" type="line"/>
      <point x="1164" y="1480" type="line"/>
      <point x="1164" y="528" type="line"/>
      <point x="1164" y="168"/>
      <point x="969" y="-10"/>
      <point x="672" y="-10" type="curve" smooth="yes"/>
      <point x="375" y="-10"/>
      <point x="180" y="168"/>
      <point x="180" y="528" type="curve"/>
      <point x="180" y="1480" type="line"/>
    </contour>
  </outline>
</glyph>
<glyph name="Y" format="2">
  <advance width="1342"/>
  <unicode hex="0059"/>
  <anchor x="-42" y="1040" name="greek_v"/>
  <anchor x="-220" y="1040" name="greek_t"/>
  <anchor x="-99" y="1040" name="greek_k"/>
  <anchor x="-259" y="1040" name="greek_kt"/>
  <anchor x="671" y="0" name="bottom_center"/>
  <anchor x="671" y="1380" name="top_center"/>
  <outline>
    <contour>
      <point x="648" y="0" type="line"/>
      <point x="648" y="740" type="line"/>
      <point x="694" y="740" type="line"/>
      <point x="694" y="0" type="line"/>
    </contour>
    <contour>
      <point x="685" y="719" type="line"/>
      <point x="659" y="716" type="line"/>
      <point x="120" y="1480" type="line"/>
      <point x="174" y="1480" type="line"/>
      <point x="671" y="778" type="line"/>
      <point x="1168" y="1480" type="line"/>
      <point x="1222" y="1480" type="line"/>
    </contour>
  </outline>
</glyph>
<glyph name="Z" format="2">
  <advance width="1319"/>
  <unicode hex="005A"/>
  <anchor x="699" y="1380" name="top_center"/>
  <anchor x="699" y="0" name="bottom_center"/>
  <outline>
    <contour>
      <point x="271" y="0" type="line"/>
      <point x="241" y="38" type="line"/>
      <point x="1091" y="1480" type="line"/>
      <point x="1121" y="1442" type="line"/>
    </contour>
    <contour>
      <point x="265" y="42" type="line"/>
      <point x="1139" y="42" type="line"/>
      <point x="1139" y="0" type="line"/>
      <point x="813" y="0"/>
      <point x="567" y="0"/>
      <point x="241" y="0" type="curve"/>
      <point x="241" y="38" type="line"/>
    </contour>
    <contour>
      <point x="259" y="1480" type="line"/>
      <point x="585" y="1480"/>
      <point x="795" y="1480"/>
      <point x="1121" y="1480" type="curve"/>
      <point x="1121" y="1442" type="line"/>
      <point x="1096" y="1438" type="line"/>
      <point x="259" y="1438" type="line"/>
    </contour>
  </outline>
</glyph>
<glyph name="backslash" format="2">
  <advance width="862"/>
  <unicode hex="005C"/>
  <outline>
    <contour>
      <point x="90" y="1640" type="line"/>
      <point x="138" y="1640" type="line"/>
      <point x="772" y="-200" type="line"/>
      <point x="724" y="-200" type="line"/>
    </contour>
  </outline>
</glyph>
<glyph name="asciicircum" format="2">
  <advance width="1232"/>
  <unicode hex="005E"/>
  <outline>
    <contour>
      <point x="1005" y="656" type="line"/>
      <point x="617" y="1430" type="line"/>
      <point x="227" y="656" type="line"/>
      <point x="180" y="656" type="line"/>
      <point x="594" y="1480" type="line"/>
      <point x="638" y="1480" type="line"/>
      <point x="1052" y="656" type="line"/>
    </contour>
  </outline>
</glyph>
<glyph name="underscore" format="2">
  <advance width="1198"/>
  <unicode hex="005F"/>
  <outline>
    <contour>
      <point x="0" y="0" type="line"/>
      <point x="1198" y="0" type="line"/>
      <point x="1198" y="-40" type="line"/>
      <point x="0" y="-40" type="line"/>
    </contour>
  </outline>
</glyph>
<glyph name="grave" format="2">
  <advance width="482"/>
  <unicode hex="0060"/>
  <outline>
    <contour>
      <point x="318" y="1224" type="line"/>
      <point x="120" y="1480" type="line"/>
      <point x="176" y="1480" type="line"/>
      <point x="362" y="1224" type="line"/>
    </contour>
  </outline>
</glyph>
<glyph name="a" format="2">
  <advance width="1141"/>
  <unicode hex="0061"/>
  <anchor x="515" y="-10" name="bottom_cedilla"/>
  <anchor x="909" y="1040" name="top_right"/>
  <anchor x="1011" y="0" name="bottom_right"/>
  <anchor x="525" y="1040" name="top_center"/>
  <anchor x="525" y="0" name="bottom_center"/>
  <outline>
    <contour>
      <point x="515" y="-10" type="curve" smooth="yes"/>
      <point x="317" y="-10"/>
      <point x="140" y="100"/>
      <point x="140" y="340" type="curve"/>
      <point x="140" y="580"/>
      <point x="327" y="690"/>
      <point x="525" y="690" type="curve" smooth="yes"/>
      <point x="695" y="690"/>
      <point x="900" y="580"/>
      <point x="900" y="340" type="curve"/>
      <point x="900" y="100"/>
      <point x="705" y="-10"/>
    </contour>
    <contour>
      <point x="865" y="340" type="curve" smooth="yes"/>
      <point x="865" y="509"/>
      <point x="735" y="650"/>
      <point x="525" y="650" type="curve" smooth="yes"/>
      <point x="315" y="650"/>
      <point x="185" y="539"/>
      <point x="185" y="340" type="curve" smooth="yes"/>
      <point x="185" y="141"/>
      <point x="315" y="30"/>
      <point x="525" y="30" type="curve" smooth="yes"/>
      <point x="735" y="30"/>
      <point x="865" y="171"/>
    </contour>
    <contour>
      <point x="910" y="230" type="line" smooth="yes"/>
      <point x="910" y="109"/>
      <point x="966" y="49"/>
      <point x="1021" y="30" type="curve"/>
      <point x="1008" y="-10" type="line"/>
      <point x="916" y="16"/>
      <point x="865" y="99"/>
      <point x="865" y="230" type="curve"/>
      <point x="882" y="265" type="line"/>
      <point x="882" y="416" type="line"/>
      <point x="865" y="448" type="line"/>
      <point x="865" y="630" type="line" smooth="yes"/>
      <point x="865" y="944"/>
      <point x="671" y="1010"/>
      <point x="523" y="1010" type="curve" smooth="yes"/>
      <point x="325" y="1010"/>
      <point x="196" y="885"/>
      <point x="196" y="885" type="curve"/>
      <point x="171" y="926" type="line"/>
      <point x="171" y="926"/>
      <point x="299" y="1050"/>
      <point x="523" y="1050" type="curve" smooth="yes"/>
      <point x="739" y="1050"/>
      <point x="910" y="948"/>
      <point x="910" y="598" type="curve"/>
    </contour>
  </outline>
</glyph>
<glyph name="g" format="2">
  <advance width="1125"/>
  <unicode hex="0067"/>
  <anchor x="543" y="1030" name="top_center"/>
  <anchor x="543" y="-361" name="bottom_center"/>
  <outline>
    <contour>
      <point x="665" y="1007" type="line"/>
      <point x="715" y="1033"/>
      <point x="779" y="1050"/>
      <point x="864" y="1050" type="curve" smooth="yes"/>
      <point x="908" y="1050"/>
      <point x="959" y="1035"/>
      <point x="996" y="1014" type="curve"/>
      <point x="975" y="972" type="line"/>
      <point x="940" y="994"/>
      <point x="900" y="1010"/>
      <point x="854" y="1010" type="curve" smooth="yes"/>
      <point x="796" y="1010"/>
      <point x="748" y="1000"/>
      <point x="707" y="982" type="curve"/>
    </contour>
    <contour>
      <point x="543" y="340" type="curve"/>
      <point x="543" y="310" type="line"/>
      <point x="404" y="310"/>
      <point x="233" y="290"/>
      <point x="233" y="175" type="curve" smooth="yes"/>
      <point x="233" y="60"/>
      <point x="348" y="40"/>
      <point x="543" y="40" type="curve"/>
      <point x="543" y="0" type="line"/>
      <point x="312" y="0"/>
      <point x="193" y="45"/>
      <point x="193" y="175" type="curve" smooth="yes"/>
      <point x="193" y="305"/>
      <point x="332" y="340"/>
    </contour>
    <contour>
      <point x="996" y="-166" type="curve" smooth="yes"/>
      <point x="996" y="-346"/>
      <point x="861" y="-450"/>
      <point x="543" y="-450" type="curve" smooth="yes"/>
      <point x="225" y="-450"/>
      <point x="129" y="-345"/>
      <point x="129" y="-204" type="curve" smooth="yes"/>
      <point x="129" y="-33"/>
      <point x="274" y="40"/>
      <point x="543" y="40" type="curve"/>
      <point x="543" y="14" type="line"/>
      <point x="325" y="14"/>
      <point x="174" y="-49"/>
      <point x="174" y="-204" type="curve" smooth="yes"/>
      <point x="174" y="-359"/>
      <point x="325" y="-410"/>
      <point x="543" y="-410" type="curve" smooth="yes"/>
      <point x="889" y="-410"/>
      <point x="951" y="-270"/>
      <point x="951" y="-170" type="curve" smooth="yes"/>
      <point x="951" y="-90"/>
      <point x="897" y="0"/>
      <point x="543" y="0" type="curve"/>
      <point x="543" y="40" type="line"/>
      <point x="825" y="40"/>
      <point x="996" y="-6"/>
    </contour>
    <contour>
      <point x="238" y="680" type="curve" smooth="yes"/>
      <point x="238" y="460"/>
      <point x="403" y="350"/>
      <point x="543" y="350" type="curve" smooth="yes"/>
      <point x="683" y="350"/>
      <point x="848" y="460"/>
      <point x="848" y="680" type="curve" smooth="yes"/>
      <point x="848" y="900"/>
      <point x="683" y="1010"/>
      <point x="543" y="1010" type="curve" smooth="yes"/>
      <point x="403" y="1010"/>
      <point x="238" y="900"/>
    </contour>
    <contour>
      <point x="193" y="680" type="curve" smooth="yes"/>
      <point x="193" y="899"/>
      <point x="350" y="1050"/>
      <point x="543" y="1050" type="curve" smooth="yes"/>
      <point x="736" y="1050"/>
      <point x="893" y="899"/>
      <point x="893" y="680" type="curve" smooth="yes"/>
      <point x="893" y="461"/>
      <point x="736" y="310"/>
      <point x="543" y="310" type="curve" smooth="yes"/>
      <point x="350" y="310"/>
      <point x="193" y="461"/>
    </contour>
  </outline>
</glyph>
<glyph name="n" format="2">
  <advance width="1130"/>
  <unicode hex="006E"/>
  <anchor x="565" y="1040" name="top_center"/>
  <anchor x="565" y="0" name="bottom_center"/>
  <outline>
    <contour>
      <point x="905" y="0" type="line"/>
      <point x="905" y="572" type="line" smooth="yes"/>
      <point x="905" y="791"/>
      <point x="835" y="1010"/>
      <point x="565" y="1010" type="curve" smooth="yes"/>
      <point x="295" y="1010"/>
      <point x="225" y="791"/>
      <point x="225" y="572" type="curve" smooth="yes"/>
      <point x="225" y="0" type="line"/>
      <point x="180" y="0" type="line"/>
      <point x="180" y="1040" type="line"/>
      <point x="225" y="1040" type="line"/>
      <point x="225" y="820" type="line"/>
      <point x="262" y="927"/>
      <point x="345" y="1050"/>
      <point x="575" y="1050" type="curve" smooth="yes"/>
      <point x="813" y="1050"/>
      <point x="950" y="892"/>
      <point x="950" y="572" type="curve"/>
      <point x="950" y="0" type="line"/>
    </contour>
  </outline>
</glyph>
<glyph name="t" format="2">
  <advance width="772"/>
  <unicode hex="0074"/>
  <anchor x="533" y="-20" name="bottom_cedilla"/>
  <anchor x="506" y="0" name="bottom_center"/>
  <anchor x="478" y="1380" name="top_center"/>
  <outline>
    <contour>
      <point x="152" y="1040" type="line"/>
      <point x="302" y="1040"/>
      <point x="318" y="1056"/>
      <point x="318" y="1206" type="curve"/>
      <point x="318" y="1320" type="line"/>
      <point x="363" y="1320" type="line"/>
      <point x="363" y="1040" type="line"/>
      <point x="669" y="1040" type="line"/>
      <point x="669" y="1000" type="line"/>
      <point x="363" y="1000" type="line"/>
      <point x="359" y="300" type="line" smooth="yes"/>
      <point x="359" y="60"/>
      <point x="467" y="30"/>
      <point x="557" y="30" type="curve" smooth="yes"/>
      <point x="595" y="30"/>
      <point x="649" y="37"/>
      <point x="688" y="65" type="curve"/>
      <point x="702" y="22" type="line"/>
      <point x="662" y="4"/>
      <point x="606" y="-10"/>
      <point x="557" y="-10" type="curve" smooth="yes"/>
      <point x="381" y="-10"/>
      <point x="314" y="100"/>
      <point x="314" y="300" type="curve" smooth="yes"/>
      <point x="318" y="1000" type="line"/>
      <point x="74" y="1000" type="line"/>
      <point x="74" y="1040" type="line"/>
    </contour>
  </outline>
</glyph>
<glyph name="u" format="2">
  <advance width="1130"/>
  <unicode hex="0075"/>
  <anchor x="555" y="-10" name="bottom_cedilla"/>
  <anchor x="962" y="0" name="bottom_right"/>
  <anchor x="950" y="1040" name="top_right"/>
  <anchor x="565" y="1040" name="top_center"/>
  <anchor x="565" y="0" name="bottom_center"/>
  <outline>
    <contour>
      <point x="225" y="1040" type="line"/>
      <point x="225" y="468" type="line" smooth="yes"/>
      <point x="225" y="249"/>
      <point x="295" y="30"/>
      <point x="565" y="30" type="curve" smooth="yes"/>
      <point x="835" y="30"/>
      <point x="905" y="249"/>
      <point x="905" y="468" type="curve" smooth="yes"/>
      <point x="905" y="1040" type="line"/>
      <point x="950" y="1040" type="line"/>
      <point x="950" y="208" type="line"/>
      <point x="950" y="110"/>
      <point x="962" y="0"/>
      <point x="962" y="0" type="curve"/>
      <point x="917" y="0" type="line"/>
      <point x="917" y="0"/>
      <point x="905" y="110"/>
      <point x="905" y="220" type="curve"/>
      <point x="868" y="113"/>
      <point x="785" y="-10"/>
      <point x="555" y="-10" type="curve" smooth="yes"/>
      <point x="317" y="-10"/>
      <point x="180" y="148"/>
      <point x="180" y="468" type="curve"/>
      <point x="180" y="1040" type="line"/>
    </contour>
  </outline>
</glyph>
<glyph name="v" format="2">
  <advance width="1050"/>
  <unicode hex="0076"/>
  <anchor x="525" y="1040" name="top_center"/>
  <anchor x="525" y="0" name="bottom_center"/>
  <outline>
    <contour>
      <point x="525" y="56" type="line"/>
      <point x="882" y="1040" type="line"/>
      <point x="930" y="1040" type="line"/>
      <point x="550" y="0" type="line"/>
      <point x="500" y="0" type="line"/>
      <point x="120" y="1040" type="line"/>
      <point x="168" y="1040" type="line"/>
    </contour>
  </outline>
</glyph>
<glyph name="x" format="2">
  <advance width="998"/>
  <unicode hex="0078"/>
  <anchor x="499" y="1040" name="top_center"/>
  <anchor x="499" y="0" name="bottom_center"/>
  <outline>
    <contour>
      <point x="460" y="520" type="line"/>
      <point x="120" y="1040" type="line"/>
      <point x="172" y="1040" type="line"/>
      <point x="499" y="550" type="line"/>
      <point x="826" y="1040" type="line"/>
      <point x="878" y="1040" type="line"/>
      <point x="538" y="520" type="line"/>
      <point x="878" y="0" type="line"/>
      <point x="826" y="0" type="line"/>
      <point x="499" y="490" type="line"/>
      <point x="172" y="0" type="line"/>
      <point x="120" y="0" type="line"/>
    </contour>
  </outline>
</glyph>
<glyph name="braceleft" format="2">
  <advance width="739"/>
  <unicode hex="007B"/>
  <outline>
    <contour>
      <point x="417" y="20" type="line" smooth="yes"/>
      <point x="417" y="-160"/>
      <point x="482" y="-270"/>
      <point x="649" y="-270" type="curve"/>
      <point x="649" y="-310" type="line"/>
      <point x="455" y="-310"/>
      <point x="372" y="-200"/>
      <point x="372" y="20" type="curve" smooth="yes"/>
      <point x="372" y="350" type="line" smooth="yes"/>
      <point x="372" y="530"/>
      <point x="307" y="640"/>
      <point x="140" y="640" type="curve"/>
      <point x="140" y="680" type="line"/>
      <point x="334" y="680"/>
      <point x="417" y="570"/>
      <point x="417" y="350" type="curve" smooth="yes"/>
    </contour>
    <contour>
      <point x="417" y="1300" type="curve" smooth="yes"/>
      <point x="417" y="970" type="line" smooth="yes"/>
      <point x="417" y="750"/>
      <point x="334" y="640"/>
      <point x="140" y="640" type="curve"/>
      <point x="140" y="680" type="line"/>
      <point x="307" y="680"/>
      <point x="372" y="790"/>
      <point x="372" y="970" type="curve" smooth="yes"/>
      <point x="372" y="1300" type="line" smooth="yes"/>
      <point x="372" y="1520"/>
      <point x="455" y="1630"/>
      <point x="649" y="1630" type="curve"/>
      <point x="649" y="1590" type="line"/>
      <point x="482" y="1590"/>
      <point x="417" y="1480"/>
    </contour>
  </outline>
</glyph>
<glyph name="braceright" format="2">
  <advance width="739"/>
  <unicode hex="007D"/>
  <outline>
    <contour>
      <point x="322" y="20" type="curve" smooth="yes"/>
      <point x="322" y="350" type="line" smooth="yes"/>
      <point x="322" y="570"/>
      <point x="405" y="680"/>
      <point x="599" y="680" type="curve"/>
      <point x="599" y="640" type="line"/>
      <point x="432" y="640"/>
      <point x="367" y="530"/>
      <point x="367" y="350" type="curve" smooth="yes"/>
      <point x="367" y="20" type="line" smooth="yes"/>
      <point x="367" y="-200"/>
      <point x="284" y="-310"/>
      <point x="90" y="-310" type="curve"/>
      <point x="90" y="-270" type="line"/>
      <point x="257" y="-270"/>
      <point x="322" y="-160"/>
    </contour>
    <contour>
      <point x="322" y="1300" type="line" smooth="yes"/>
      <point x="322" y="1480"/>
      <point x="257" y="1590"/>
      <point x="90" y="1590" type="curve"/>
      <point x="90" y="1630" type="line"/>
      <point x="284" y="1630"/>
      <point x="367" y="1520"/>
      <point x="367" y="1300" type="curve" smooth="yes"/>
      <point x="367" y="970" type="line" smooth="yes"/>
      <point x="367" y="790"/>
      <point x="432" y="680"/>
      <point x="599" y="680" type="curve"/>
      <point x="599" y="640" type="line"/>
      <point x="405" y="640"/>
      <point x="322" y="750"/>
      <point x="322" y="970" type="curve" smooth="yes"/>
    </contour>
  </outline>
</glyph>
<glyph name="asciitilde" format="2">
  <advance width="1198"/>
  <unicode hex="007E"/>
  <outline>
    <contour>
      <point x="224" y="517" type="curve"/>
      <point x="180" y="530" type="line"/>
      <point x="201" y="725"/>
      <point x="277" y="830"/>
      <point x="420" y="830" type="curve" smooth="yes"/>
      <point x="612" y="830"/>
      <point x="618" y="522"/>
      <point x="778" y="522" type="curve" smooth="yes"/>
      <point x="860" y="522"/>
      <point x="959" y="576"/>
      <point x="974" y="795" type="curve"/>
      <point x="1018" y="782" type="line"/>
      <point x="997" y="587"/>
      <point x="921" y="482"/>
      <point x="778" y="482" type="curve" smooth="yes"/>
      <point x="586" y="482"/>
      <point x="580" y="790"/>
      <point x="420" y="790" type="curve" smooth="yes"/>
      <point x="338" y="790"/>
      <point x="239" y="736"/>
    </contour>
  </outline>
</glyph>
<glyph name="cent" format="2">
  <advance width="1101"/>
  <unicode hex="00A2"/>
  <outline>
    <contour>
      <point x="790" y="1220" type="line"/>
      <point x="410" y="-180" type="line"/>
      <point x="367" y="-180" type="line"/>
      <point x="747" y="1220" type="line"/>
    </contour>
    <contour>
      <point x="185" y="520" type="curve" smooth="yes"/>
      <point x="185" y="184"/>
      <point x="410" y="30"/>
      <point x="578" y="30" type="curve" smooth="yes"/>
      <point x="698" y="30"/>
      <point x="846" y="108"/>
      <point x="922" y="274" type="curve"/>
      <point x="961" y="252" type="line"/>
      <point x="887" y="90"/>
      <point x="745" y="-10"/>
      <point x="578" y="-10" type="curve" smooth="yes"/>
      <point x="331" y="-10"/>
      <point x="140" y="208"/>
      <point x="140" y="520" type="curve" smooth="yes"/>
      <point x="140" y="832"/>
      <point x="331" y="1050"/>
      <point x="578" y="1050" type="curve" smooth="yes"/>
      <point x="745" y="1050"/>
      <point x="887" y="950"/>
      <point x="961" y="788" type="curve"/>
      <point x="922" y="766" type="line"/>
      <point x="846" y="932"/>
      <point x="698" y="1010"/>
      <point x="578" y="1010" type="curve" smooth="yes"/>
      <point x="410" y="1010"/>
      <point x="185" y="856"/>
    </contour>
  </outline>
</glyph>
<glyph name="yen" format="2">
  <advance width="1342"/>
  <unicode hex="00A5"/>
  <outline>
    <contour>
      <point x="263" y="663" type="line"/>
      <point x="263" y="705" type="line"/>
      <point x="1079" y="705" type="line"/>
      <point x="1079" y="663" type="line"/>
    </contour>
    <contour>
      <point x="263" y="375" type="line"/>
      <point x="263" y="417" type="line"/>
      <point x="1079" y="417" type="line"/>
      <point x="1079" y="375" type="line"/>
    </contour>
    <contour>
      <point x="648" y="0" type="line"/>
      <point x="648" y="740" type="line"/>
      <point x="694" y="740" type="line"/>
      <point x="694" y="0" type="line"/>
    </contour>
    <contour>
      <point x="685" y="719" type="line"/>
      <point x="659" y="716" type="line"/>
      <point x="120" y="1480" type="line"/>
      <point x="174" y="1480" type="line"/>
      <point x="671" y="778" type="line"/>
      <point x="1168" y="1480" type="line"/>
      <point x="1222" y="1480" type="line"/>
    </contour>
  </outline>
</glyph>
<glyph name="dieresis" format="2">
  <advance width="688"/>
  <unicode hex="00A8"/>
  <outline>
    <contour>
      <point x="440" y="1426" type="curve" smooth="yes"/>
      <point x="440" y="1462"/>
      <point x="468" y="1490"/>
      <point x="504" y="1490" type="curve" smooth="yes"/>
      <point x="540" y="1490"/>
      <point x="568" y="1462"/>
      <point x="568" y="1426" type="curve" smooth="yes"/>
      <point x="568" y="1390"/>
      <point x="540" y="1362"/>
      <point x="504" y="1362" type="curve" smooth="yes"/>
      <point x="468" y="1362"/>
      <point x="440" y="1390"/>
    </contour>
    <contour>
      <point x="120" y="1426" type="curve" smooth="yes"/>
      <point x="120" y="1462"/>
      <point x="148" y="1490"/>
      <point x="184" y="1490" type="curve" smooth="yes"/>
      <point x="220" y="1490"/>
      <point x="248" y="1462"/>
      <point x="248" y="1426" type="curve" smooth="yes"/>
      <point x="248" y="1390"/>
      <point x="220" y="1362"/>
      <point x="184" y="1362" type="curve" smooth="yes"/>
      <point x="148" y="1362"/>
      <point x="120" y="1390"/>
    </contour>
  </outline>
</glyph>
<glyph name="logicalnot" format="2">
  <advance width="1198"/>
  <unicode hex="00AC"/>
  <outline>
    <contour>
      <point x="973" y="720" type="line"/>
      <point x="973" y="340" type="line"/>
      <point x="1018" y="340" type="line"/>
      <point x="1018" y="740" type="line"/>
    </contour>
    <contour>
      <point x="180" y="700" type="line"/>
      <point x="1000" y="700" type="line"/>
      <point x="1018" y="740" type="line"/>
      <point x="180" y="740" type="line"/>
    </contour>
  </outline>
</glyph>
<glyph name="two.superior" format="2">
  <advance width="796"/>
  <unicode hex="00B2"/>
  <outline>
    <contour>
      <point x="139" y="810" type="curve"/>
      <point x="148" y="810" type="line"/>
      <point x="171" y="810" type="line"/>
      <point x="658" y="810" type="line"/>
      <point x="658" y="840" type="line"/>
      <point x="173" y="840" type="line"/>
      <point x="187" y="956"/>
      <point x="281" y="1031"/>
      <point x="400" y="1099" type="curve" smooth="yes"/>
      <point x="530" y="1173"/>
      <point x="653" y="1254"/>
      <point x="653" y="1416" type="curve" smooth="yes"/>
      <point x="653" y="1582"/>
      <point x="544" y="1674"/>
      <point x="398" y="1674" type="curve" smooth="yes"/>
      <point x="252" y="1674"/>
      <point x="143" y="1561"/>
      <point x="143" y="1382" type="curve"/>
      <point x="177" y="1374" type="line"/>
      <point x="176" y="1378"/>
      <point x="176" y="1380"/>
      <point x="176" y="1382" type="curve" smooth="yes"/>
      <point x="176" y="1533"/>
      <point x="262" y="1644"/>
      <point x="398" y="1644" type="curve" smooth="yes"/>
      <point x="531" y="1644"/>
      <point x="620" y="1555"/>
      <point x="620" y="1416" type="curve" smooth="yes"/>
      <point x="620" y="1291"/>
      <point x="558" y="1225"/>
      <point x="395" y="1132" type="curve" smooth="yes"/>
      <point x="141" y="987"/>
      <point x="139" y="877"/>
    </contour>
  </outline>
</glyph>
<glyph name="three.superior" format="2">
  <advance width="796"/>
  <unicode hex="00B3"/>
  <outline>
    <contour>
      <point x="395" y="1274" type="curve" smooth="yes"/>
      <point x="347" y="1274" type="line"/>
      <point x="347" y="1244" type="line"/>
      <point x="396" y="1244" type="line" smooth="yes"/>
      <point x="506" y="1244"/>
      <point x="636" y="1171"/>
      <point x="636" y="1039" type="curve" smooth="yes"/>
      <point x="636" y="907"/>
      <point x="530" y="834"/>
      <point x="397" y="834" type="curve" smooth="yes"/>
      <point x="264" y="834"/>
      <point x="161" y="907"/>
      <point x="161" y="1039" type="curve"/>
      <point x="128" y="1032" type="line"/>
      <point x="131" y="893"/>
      <point x="239" y="804"/>
      <point x="397" y="804" type="curve" smooth="yes"/>
      <point x="556" y="804"/>
      <point x="669" y="895"/>
      <point x="669" y="1036" type="curve" smooth="yes"/>
      <point x="669" y="1177"/>
      <point x="546" y="1245"/>
      <point x="475" y="1259" type="curve"/>
      <point x="541" y="1267"/>
      <point x="633" y="1332"/>
      <point x="633" y="1462" type="curve" smooth="yes"/>
      <point x="633" y="1592"/>
      <point x="540" y="1674"/>
      <point x="396" y="1674" type="curve" smooth="yes"/>
      <point x="241" y="1674"/>
      <point x="145" y="1585"/>
      <point x="142" y="1446" type="curve"/>
      <point x="175" y="1439" type="line"/>
      <point x="175" y="1571"/>
      <point x="265" y="1644"/>
      <point x="395" y="1644" type="curve" smooth="yes"/>
      <point x="511" y="1644"/>
      <point x="600" y="1575"/>
      <point x="600" y="1459" type="curve" smooth="yes"/>
      <point x="600" y="1348"/>
      <point x="511" y="1274"/>
    </contour>
  </outline>
</glyph>
<glyph name="uni00B3" format="2">
  <advance width="740"/>
  <unicode hex="00B3"/>
  <outline>
    <contour>
      <point x="367" y="1274" type="line" smooth="yes"/>
      <point x="483" y="1274"/>
      <point x="572" y="1348"/>
      <point x="572" y="1459" type="curve" smooth="yes"/>
      <point x="572" y="1575"/>
      <point x="483" y="1644"/>
      <point x="367" y="1644" type="curve" smooth="yes"/>
      <point x="237" y="1644"/>
      <point x="147" y="1571"/>
      <point x="147" y="1439" type="curve"/>
      <point x="114" y="1446" type="line"/>
      <point x="117" y="1585"/>
      <point x="213" y="1674"/>
      <point x="368" y="1674" type="curve" smooth="yes"/>
      <point x="512" y="1674"/>
      <point x="605" y="1592"/>
      <point x="605" y="1462" type="curve" smooth="yes"/>
      <point x="605" y="1332"/>
      <point x="513" y="1267"/>
      <point x="447" y="1259" type="curve"/>
      <point x="518" y="1245"/>
      <point x="641" y="1177"/>
      <point x="641" y="1036" type="curve" smooth="yes"/>
      <point x="641" y="895"/>
      <point x="528" y="804"/>
      <point x="369" y="804" type="curve" smooth="yes"/>
      <point x="211" y="804"/>
      <point x="103" y="893"/>
      <point x="100" y="1032" type="curve"/>
      <point x="133" y="1039" type="line"/>
      <point x="133" y="907"/>
      <point x="236" y="834"/>
      <point x="369" y="834" type="curve" smooth="yes"/>
      <point x="502" y="834"/>
      <point x="608" y="907"/>
      <point x="608" y="1039" type="curve" smooth="yes"/>
      <point x="608" y="1171"/>
      <point x="478" y="1244"/>
      <point x="368" y="1244" type="curve" smooth="yes"/>
      <point x="319" y="1244" type="line"/>
      <point x="319" y="1274" type="line"/>
    </contour>
  </outline>
</glyph>
<glyph name="periodcentered" format="2">
  <advance width="500"/>
  <unicode hex="00B7"/>
  <outline>
    <contour>
      <point x="186" y="660" type="curve" smooth="yes"/>
      <point x="186" y="696"/>
      <point x="214" y="724"/>
      <point x="250" y="724" type="curve" smooth="yes"/>
      <point x="286" y="724"/>
      <point x="314" y="696"/>
      <point x="314" y="660" type="curve" smooth="yes"/>
      <point x="314" y="624"/>
      <point x="286" y="596"/>
      <point x="250" y="596" type="curve" smooth="yes"/>
      <point x="214" y="596"/>
      <point x="186" y="624"/>
    </contour>
  </outline>
</glyph>
<glyph name="one.superior" format="2">
  <advance width="796"/>
  <unicode hex="00B9"/>
  <outline>
    <contour>
      <point x="418" y="1430" type="line"/>
      <point x="418" y="810" type="line"/>
      <point x="452" y="810" type="line"/>
      <point x="452" y="1413" type="line"/>
      <point x="452" y="1668" type="line"/>
      <point x="418" y="1668" type="line"/>
      <point x="418" y="1584" type="line" smooth="yes"/>
      <point x="418" y="1478"/>
      <point x="405" y="1461"/>
      <point x="308" y="1461" type="curve" smooth="yes"/>
      <point x="224" y="1461" type="line"/>
      <point x="224" y="1430" type="line"/>
    </contour>
  </outline>
</glyph>
<glyph name="one.superior" format="2">
  <advance width="740"/>
  <unicode hex="00B9"/>
  <outline>
    <contour>
      <point x="390" y="1430" type="line"/>
      <point x="390" y="810" type="line"/>
      <point x="424" y="810" type="line"/>
      <point x="424" y="1413" type="line"/>
      <point x="424" y="1668" type="line"/>
      <point x="390" y="1668" type="line"/>
      <point x="390" y="1584" type="line" smooth="yes"/>
      <point x="390" y="1478"/>
      <point x="377" y="1461"/>
      <point x="280" y="1461" type="curve" smooth="yes"/>
      <point x="196" y="1461" type="line"/>
      <point x="196" y="1430" type="line"/>
    </contour>
  </outline>
</glyph>
<glyph name="ordmasculine" format="2">
  <advance width="854"/>
  <unicode hex="00BA"/>
  <outline>
    <contour>
      <point x="427" y="1605" type="curve" smooth="yes"/>
      <point x="279" y="1605"/>
      <point x="165" y="1479"/>
      <point x="165" y="1298" type="curve" smooth="yes"/>
      <point x="165" y="1117"/>
      <point x="279" y="990"/>
      <point x="427" y="990" type="curve" smooth="yes"/>
      <point x="575" y="990"/>
      <point x="689" y="1117"/>
      <point x="689" y="1298" type="curve" smooth="yes"/>
      <point x="689" y="1479"/>
      <point x="575" y="1605"/>
    </contour>
    <contour>
      <point x="427" y="1020" type="curve" smooth="yes"/>
      <point x="330" y="1020"/>
      <point x="198" y="1108"/>
      <point x="198" y="1298" type="curve" smooth="yes"/>
      <point x="198" y="1488"/>
      <point x="330" y="1575"/>
      <point x="427" y="1575" type="curve" smooth="yes"/>
      <point x="524" y="1575"/>
      <point x="656" y="1488"/>
      <point x="656" y="1298" type="curve" smooth="yes"/>
      <point x="656" y="1108"/>
      <point x="524" y="1020"/>
    </contour>
    <contour>
      <point x="140" y="831" type="line"/>
      <point x="140" y="861" type="line"/>
      <point x="714" y="861" type="line"/>
      <point x="714" y="831" type="line"/>
    </contour>
  </outline>
</glyph>
<glyph name="guillemotright" format="2">
  <advance width="1030"/>
  <unicode hex="00BB"/>
  <outline>
    <contour>
      <point x="172" y="196" type="line"/>
      <point x="522" y="660" type="line"/>
      <point x="172" y="1126" type="line"/>
      <point x="120" y="1126" type="line"/>
      <point x="474" y="660" type="line"/>
      <point x="120" y="196" type="line"/>
    </contour>
    <contour>
      <point x="560" y="196" type="line"/>
      <point x="910" y="660" type="line"/>
      <point x="560" y="1126" type="line"/>
      <point x="508" y="1126" type="line"/>
      <point x="862" y="660" type="line"/>
      <point x="508" y="196" type="line"/>
    </contour>
  </outline>
</glyph>
<glyph name="threequarters" format="2">
  <advance width="1778"/>
  <unicode hex="00BE"/>
  <outline>
    <contour>
      <point x="408" y="1086" type="line" smooth="yes"/>
      <point x="524" y="1086"/>
      <point x="613" y="1160"/>
      <point x="613" y="1271" type="curve" smooth="yes"/>
      <point x="613" y="1387"/>
      <point x="524" y="1456"/>
      <point x="408" y="1456" type="curve" smooth="yes"/>
      <point x="278" y="1456"/>
      <point x="188" y="1383"/>
      <point x="188" y="1251" type="curve" smooth="yes"/>
      <point x="155" y="1258" type="line"/>
      <point x="158" y="1397"/>
      <point x="254" y="1486"/>
      <point x="409" y="1486" type="curve" smooth="yes"/>
      <point x="553" y="1486"/>
      <point x="646" y="1404"/>
      <point x="646" y="1274" type="curve" smooth="yes"/>
      <point x="646" y="1144"/>
      <point x="554" y="1079"/>
      <point x="488" y="1071" type="curve"/>
      <point x="559" y="1057"/>
      <point x="682" y="989"/>
      <point x="682" y="848" type="curve" smooth="yes"/>
      <point x="682" y="707"/>
      <point x="569" y="616"/>
      <point x="410" y="616" type="curve" smooth="yes"/>
      <point x="252" y="616"/>
      <point x="144" y="705"/>
      <point x="141" y="844" type="curve"/>
      <point x="174" y="851" type="line" smooth="yes"/>
      <point x="174" y="719"/>
      <point x="277" y="646"/>
      <point x="410" y="646" type="curve" smooth="yes"/>
      <point x="543" y="646"/>
      <point x="649" y="719"/>
      <point x="649" y="851" type="curve" smooth="yes"/>
      <point x="649" y="983"/>
      <point x="519" y="1056"/>
      <point x="409" y="1056" type="curve" smooth="yes"/>
      <point x="360" y="1056" type="line"/>
      <point x="360" y="1086" type="line"/>
    </contour>
    <contour>
      <point x="1432" y="858" type="line"/>
      <point x="1392" y="858" type="line"/>
      <point x="1114" y="246" type="line"/>
      <point x="1114" y="222" type="line"/>
      <point x="1446" y="222" type="line"/>
      <point x="1446" y="0" type="line"/>
      <point x="1479" y="0" type="line"/>
      <point x="1479" y="222" type="line"/>
      <point x="1622" y="222" type="line"/>
      <point x="1622" y="253" type="line"/>
      <point x="1479" y="253" type="line"/>
      <point x="1479" y="469" type="line"/>
      <point x="1446" y="469" type="line"/>
      <point x="1446" y="253" type="line"/>
      <point x="1156" y="253" type="line"/>
    </contour>
    <contour>
      <point x="550" y="121" type="line"/>
      <point x="522" y="137" type="line"/>
      <point x="1228" y="1359" type="line"/>
      <point x="1256" y="1343" type="line"/>
    </contour>
  </outline>
</glyph>
<glyph name="multiply" format="2">
  <advance width="1198"/>
  <unicode hex="00D7"/>
  <outline>
    <contour>
      <point x="180" y="1058" type="line"/>
      <point x="987" y="251" type="line"/>
      <point x="1018" y="282" type="line"/>
      <point x="211" y="1089" type="line"/>
    </contour>
    <contour>
      <point x="211" y="251" type="line"/>
      <point x="1018" y="1058" type="line"/>
      <point x="987" y="1089" type="line"/>
      <point x="180" y="282" type="line"/>
    </contour>
  </outline>
</glyph>
<glyph name="Thorn" format="2">
  <advance width="1154"/>
  <unicode hex="00DE"/>
  <outline>
    <contour>
      <point x="226" y="1121" type="line"/>
      <point x="226" y="359" type="line"/>
      <point x="595" y="359" type="line"/>
      <point x="820" y="359"/>
      <point x="968" y="540"/>
      <point x="968" y="740" type="curve" smooth="yes"/>
      <point x="968" y="940"/>
      <point x="820" y="1121"/>
      <point x="595" y="1121" type="curve"/>
    </contour>
    <contour>
      <point x="180" y="0" type="line"/>
      <point x="180" y="1029" type="line"/>
      <point x="180" y="1480" type="line"/>
      <point x="226" y="1480" type="line"/>
      <point x="226" y="1163" type="line"/>
      <point x="595" y="1163" type="line"/>
      <point x="819" y="1163"/>
      <point x="1014" y="995"/>
      <point x="1014" y="740" type="curve" smooth="yes"/>
      <point x="1014" y="485"/>
      <point x="819" y="317"/>
      <point x="595" y="317" type="curve"/>
      <point x="226" y="317" type="line"/>
      <point x="226" y="0" type="line"/>
    </contour>
  </outline>
</glyph>
<glyph name="eth" format="2">
  <advance width="1120"/>
  <unicode hex="00F0"/>
  <outline>
    <contour>
      <point x="660" y="1398" type="line"/>
      <point x="741" y="1445" type="line"/>
      <point x="721" y="1480" type="line"/>
      <point x="639" y="1432" type="line"/>
      <point x="399" y="1294" type="line"/>
      <point x="419" y="1259" type="line"/>
    </contour>
    <contour>
      <point x="399" y="1451" type="line"/>
      <point x="620" y="1323"/>
      <point x="935" y="1080"/>
      <point x="935" y="520" type="curve" smooth="yes"/>
      <point x="980" y="520" type="line" smooth="yes"/>
      <point x="980" y="1000"/>
      <point x="768" y="1290"/>
      <point x="422" y="1490" type="curve"/>
    </contour>
    <contour>
      <point x="185" y="520" type="curve" smooth="yes"/>
      <point x="185" y="856"/>
      <point x="385" y="1010"/>
      <point x="560" y="1010" type="curve" smooth="yes"/>
      <point x="735" y="1010"/>
      <point x="935" y="856"/>
      <point x="935" y="520" type="curve"/>
      <point x="935" y="184"/>
      <point x="735" y="30"/>
      <point x="560" y="30" type="curve" smooth="yes"/>
      <point x="385" y="30"/>
      <point x="185" y="184"/>
    </contour>
    <contour>
      <point x="140" y="520" type="curve" smooth="yes"/>
      <point x="140" y="208"/>
      <point x="313" y="-10"/>
      <point x="560" y="-10" type="curve" smooth="yes"/>
      <point x="807" y="-10"/>
      <point x="980" y="208"/>
      <point x="980" y="520" type="curve" smooth="yes"/>
      <point x="980" y="520"/>
      <point x="969" y="520"/>
      <point x="959" y="520" type="curve"/>
      <point x="959" y="836"/>
      <point x="807" y="1050"/>
      <point x="560" y="1050" type="curve" smooth="yes"/>
      <point x="313" y="1050"/>
      <point x="140" y="832"/>
    </contour>
  </outline>
</glyph>
<glyph name="Hbar" format="2">
  <advance width="1264"/>
  <unicode hex="0126"/>
  <outline>
    <contour>
      <point x="1264" y="1059" type="line"/>
      <point x="0" y="1059" type="line"/>
      <point x="0" y="1105"/>
      <point x="0" y="1055"/>
      <point x="0" y="1101" type="curve"/>
      <point x="1264" y="1101" type="line"/>
    </contour>
    <contour>
      <point x="140" y="1480" type="line"/>
      <point x="186" y="1480" type="line"/>
      <point x="186" y="761" type="line"/>
      <point x="1078" y="761" type="line"/>
      <point x="1078" y="1480" type="line"/>
      <point x="1124" y="1480" type="line"/>
      <point x="1124" y="0" type="line"/>
      <point x="1078" y="0" type="line"/>
      <point x="1078" y="719" type="line"/>
      <point x="186" y="719" type="line"/>
      <point x="186" y="0" type="line"/>
      <point x="140" y="0" type="line"/>
    </contour>
  </outline>
</glyph>
<glyph name="dotlessi" format="2">
  <advance width="405"/>
  <unicode hex="0131"/>
  <anchor x="203" y="1040" name="top_center"/>
  <anchor x="203" y="0" name="bottom_center"/>
  <anchor x="225" y="0" name="bottom_right"/>
  <outline>
    <contour>
      <point x="180" y="0" type="line"/>
      <point x="180" y="1040" type="line"/>
      <point x="225" y="1040" type="line"/>
      <point x="225" y="0" type="line"/>
    </contour>
  </outline>
</glyph>
<glyph name="lcaron" format="2">
  <advance width="568"/>
  <unicode hex="013E"/>
  <outline>
    <contour>
      <point x="405" y="1426" type="curve" smooth="yes"/>
      <point x="405" y="1462"/>
      <point x="433" y="1490"/>
      <point x="469" y="1490" type="curve" smooth="yes"/>
      <point x="505" y="1490"/>
      <point x="533" y="1462"/>
      <point x="533" y="1426" type="curve" smooth="yes"/>
      <point x="533" y="1390"/>
      <point x="505" y="1362"/>
      <point x="469" y="1362" type="curve" smooth="yes"/>
      <point x="433" y="1362"/>
      <point x="405" y="1390"/>
    </contour>
    <contour>
      <point x="405" y="1168" type="line"/>
      <point x="455" y="1181"/>
      <point x="522" y="1242"/>
      <point x="522" y="1332" type="curve" smooth="yes"/>
      <point x="522" y="1412"/>
      <point x="469" y="1445"/>
      <point x="469" y="1445" type="curve"/>
      <point x="469" y="1490" type="line"/>
      <point x="531" y="1490"/>
      <point x="568" y="1412"/>
      <point x="568" y="1332" type="curve" smooth="yes"/>
      <point x="568" y="1222"/>
      <point x="485" y="1146"/>
      <point x="417" y="1126" type="curve"/>
    </contour>
    <contour>
      <point x="489" y="56" type="curve"/>
      <point x="500" y="14" type="line"/>
      <point x="475" y="-3"/>
      <point x="445" y="-10"/>
      <point x="417" y="-10" type="curve" smooth="yes"/>
      <point x="267" y="-10"/>
      <point x="180" y="60"/>
      <point x="180" y="230" type="curve" smooth="yes"/>
      <point x="180" y="440" type="line"/>
      <point x="180" y="578" type="line"/>
      <point x="180" y="1480" type="line"/>
      <point x="225" y="1480" type="line"/>
      <point x="225" y="578" type="line"/>
      <point x="225" y="440" type="line"/>
      <point x="225" y="230" type="line" smooth="yes"/>
      <point x="225" y="40"/>
      <point x="364" y="30"/>
      <point x="417" y="30" type="curve" smooth="yes"/>
      <point x="431" y="30"/>
      <point x="458" y="36"/>
    </contour>
  </outline>
</glyph>
<glyph name="lslash" format="2">
  <advance width="540"/>
  <unicode hex="0142"/>
  <outline>
    <contour>
      <point x="435" y="908" type="line"/>
      <point x="435" y="863" type="line"/>
      <point x="-30" y="594" type="line"/>
      <point x="-30" y="639" type="line"/>
    </contour>
    <contour>
      <point x="489" y="56" type="curve"/>
      <point x="500" y="14" type="line"/>
      <point x="475" y="-3"/>
      <point x="445" y="-10"/>
      <point x="417" y="-10" type="curve" smooth="yes"/>
      <point x="267" y="-10"/>
      <point x="180" y="60"/>
      <point x="180" y="230" type="curve" smooth="yes"/>
      <point x="180" y="440" type="line"/>
      <point x="180" y="578" type="line"/>
      <point x="180" y="1480" type="line"/>
      <point x="225" y="1480" type="line"/>
      <point x="225" y="578" type="line"/>
      <point x="225" y="440" type="line"/>
      <point x="225" y="230" type="line" smooth="yes"/>
      <point x="225" y="40"/>
      <point x="364" y="30"/>
      <point x="417" y="30" type="curve" smooth="yes"/>
      <point x="431" y="30"/>
      <point x="458" y="36"/>
    </contour>
  </outline>
</glyph>
<glyph name="uni0180" format="2">
  <advance width="1182"/>
  <unicode hex="0180"/>
  <outline>
    <contour>
      <point x="590" y="1218" type="line"/>
      <point x="0" y="1218" type="line"/>
      <point x="0" y="1264"/>
      <point x="0" y="1214"/>
      <point x="0" y="1260" type="curve"/>
      <point x="590" y="1260" type="line"/>
    </contour>
    <contour>
      <point x="247" y="520" type="curve"/>
      <point x="247" y="184"/>
      <point x="447" y="30"/>
      <point x="622" y="30" type="curve" smooth="yes"/>
      <point x="797" y="30"/>
      <point x="997" y="184"/>
      <point x="997" y="520" type="curve" smooth="yes"/>
      <point x="997" y="856"/>
      <point x="797" y="1010"/>
      <point x="622" y="1010" type="curve" smooth="yes"/>
      <point x="447" y="1010"/>
      <point x="247" y="856"/>
    </contour>
    <contour>
      <point x="210" y="208" type="curve"/>
      <point x="210" y="1480" type="line"/>
      <point x="255" y="1480" type="line"/>
      <point x="255" y="780" type="line"/>
      <point x="286" y="896"/>
      <point x="422" y="1050"/>
      <point x="622" y="1050" type="curve" smooth="yes"/>
      <point x="869" y="1050"/>
      <point x="1042" y="832"/>
      <point x="1042" y="520" type="curve" smooth="yes"/>
      <point x="1042" y="208"/>
      <point x="869" y="-10"/>
      <point x="622" y="-10" type="curve" smooth="yes"/>
      <point x="412" y="-10"/>
      <point x="286" y="144"/>
      <point x="255" y="260" type="curve"/>
      <point x="255" y="0" type="line"/>
      <point x="210" y="0" type="line"/>
      <point x="210" y="0"/>
      <point x="210" y="110"/>
    </contour>
  </outline>
</glyph>
<glyph name="uni0181" format="2">
  <advance width="1284"/>
  <unicode hex="0181"/>
  <outline>
    <contour>
      <point x="46" y="1158" type="curve"/>
      <point x="1" y="1158" type="line"/>
      <point x="0" y="1162"/>
      <point x="0" y="1166"/>
      <point x="-0" y="1170" type="curve" smooth="yes"/>
      <point x="0" y="1348"/>
      <point x="132" y="1480"/>
      <point x="310" y="1480" type="curve" smooth="yes"/>
      <point x="314" y="1480"/>
      <point x="318" y="1480"/>
      <point x="322" y="1479" type="curve"/>
      <point x="322" y="1439" type="line"/>
      <point x="318" y="1440"/>
      <point x="314" y="1440"/>
      <point x="310" y="1440" type="curve" smooth="yes"/>
      <point x="155" y="1440"/>
      <point x="45" y="1325"/>
      <point x="45" y="1170" type="curve" smooth="yes"/>
      <point x="45" y="1166"/>
      <point x="45" y="1162"/>
    </contour>
    <contour>
      <point x="725" y="1480" type="line"/>
      <point x="919" y="1480"/>
      <point x="1087" y="1362"/>
      <point x="1087" y="1142" type="curve" smooth="yes"/>
      <point x="1087" y="922"/>
      <point x="919" y="804"/>
      <point x="725" y="804" type="curve"/>
      <point x="725" y="846" type="line"/>
      <point x="915" y="846"/>
      <point x="1041" y="962"/>
      <point x="1041" y="1142" type="curve" smooth="yes"/>
      <point x="1041" y="1322"/>
      <point x="915" y="1438"/>
      <point x="725" y="1438" type="curve"/>
      <point x="356" y="1438" type="line"/>
      <point x="356" y="1480" type="line"/>
    </contour>
    <contour>
      <point x="356" y="42" type="line"/>
      <point x="725" y="42" type="line"/>
      <point x="950" y="42"/>
      <point x="1098" y="223"/>
      <point x="1098" y="423" type="curve" smooth="yes"/>
      <point x="1098" y="623"/>
      <point x="950" y="804"/>
      <point x="725" y="804" type="curve"/>
      <point x="356" y="804" type="line"/>
    </contour>
    <contour>
      <point x="310" y="0" type="line"/>
      <point x="310" y="1480" type="line"/>
      <point x="356" y="1480" type="line"/>
      <point x="356" y="846" type="line"/>
      <point x="725" y="846" type="line"/>
      <point x="949" y="846"/>
      <point x="1144" y="678"/>
      <point x="1144" y="423" type="curve" smooth="yes"/>
      <point x="1144" y="168"/>
      <point x="949" y="0"/>
      <point x="725" y="0" type="curve"/>
    </contour>
  </outline>
</glyph>
<glyph name="uni0182" format="2">
  <advance width="1154"/>
  <unicode hex="0182"/>
  <outline>
    <contour>
      <point x="934" y="1438" type="line"/>
      <point x="226" y="1438" type="line"/>
      <point x="226" y="1480" type="line"/>
      <point x="934" y="1480" type="line"/>
    </contour>
    <contour>
      <point x="226" y="42" type="line"/>
      <point x="595" y="42" type="line"/>
      <point x="806" y="42"/>
      <point x="968" y="208"/>
      <point x="968" y="423" type="curve" smooth="yes"/>
      <point x="968" y="638"/>
      <point x="806" y="804"/>
      <point x="595" y="804" type="curve"/>
      <point x="226" y="804" type="line"/>
    </contour>
    <contour>
      <point x="180" y="1480" type="line"/>
      <point x="226" y="1480" type="line"/>
      <point x="226" y="846" type="line"/>
      <point x="595" y="846" type="line"/>
      <point x="833" y="846"/>
      <point x="1014" y="664"/>
      <point x="1014" y="423" type="curve" smooth="yes"/>
      <point x="1014" y="182"/>
      <point x="833" y="0"/>
      <point x="595" y="0" type="curve"/>
      <point x="180" y="0" type="line"/>
    </contour>
  </outline>
</glyph>
<glyph name="uni018B" format="2">
  <advance width="1154"/>
  <unicode hex="018B"/>
  <outline>
    <contour>
      <point x="220" y="1438" type="line"/>
      <point x="928" y="1438" type="line"/>
      <point x="928" y="1480" type="line"/>
      <point x="220" y="1480" type="line"/>
    </contour>
    <contour>
      <point x="928" y="42" type="line"/>
      <point x="559" y="42" type="line"/>
      <point x="334" y="42"/>
      <point x="186" y="223"/>
      <point x="186" y="423" type="curve" smooth="yes"/>
      <point x="186" y="623"/>
      <point x="334" y="804"/>
      <point x="559" y="804" type="curve"/>
      <point x="928" y="804" type="line"/>
    </contour>
    <contour>
      <point x="974" y="1480" type="line"/>
      <point x="928" y="1480" type="line"/>
      <point x="928" y="846" type="line"/>
      <point x="559" y="846" type="line"/>
      <point x="335" y="846"/>
      <point x="140" y="678"/>
      <point x="140" y="423" type="curve" smooth="yes"/>
      <point x="140" y="168"/>
      <point x="335" y="0"/>
      <point x="559" y="0" type="curve"/>
      <point x="974" y="0" type="line"/>
    </contour>
  </outline>
</glyph>
<glyph name="uni018E" format="2">
  <advance width="1176"/>
  <unicode hex="018E"/>
  <outline>
    <contour>
      <point x="263" y="719" type="line"/>
      <point x="263" y="761" type="line"/>
      <point x="950" y="761" type="line"/>
      <point x="950" y="1438" type="line"/>
      <point x="180" y="1438" type="line"/>
      <point x="180" y="1480" type="line"/>
      <point x="996" y="1480" type="line"/>
      <point x="996" y="0" type="line"/>
      <point x="180" y="0" type="line"/>
      <point x="180" y="42" type="line"/>
      <point x="950" y="42" type="line"/>
      <point x="950" y="719" type="line"/>
    </contour>
  </outline>
</glyph>
<glyph name="uni018F" format="2">
  <advance width="1514"/>
  <unicode hex="018F"/>
  <anchor x="757" y="1380" name="top_center"/>
  <anchor x="757" y="0" name="bottom_center"/>
  <anchor x="757" y="-20" name="bottom_cedilla"/>
  <outline>
    <contour>
      <point x="140" y="761" type="line"/>
      <point x="140" y="754"/>
      <point x="140" y="747"/>
      <point x="140" y="740" type="curve" smooth="yes"/>
      <point x="140" y="301"/>
      <point x="409" y="-10"/>
      <point x="757" y="-10" type="curve" smooth="yes"/>
      <point x="1105" y="-10"/>
      <point x="1374" y="301"/>
      <point x="1374" y="740" type="curve" smooth="yes"/>
      <point x="1374" y="1179"/>
      <point x="1105" y="1490"/>
      <point x="757" y="1490" type="curve" smooth="yes"/>
      <point x="502" y="1490"/>
      <point x="292" y="1348"/>
      <point x="188" y="1120" type="curve"/>
      <point x="228" y="1097" type="line"/>
      <point x="335" y="1332"/>
      <point x="554" y="1448"/>
      <point x="757" y="1448" type="curve" smooth="yes"/>
      <point x="1017" y="1448"/>
      <point x="1328" y="1215"/>
      <point x="1328" y="740" type="curve" smooth="yes"/>
      <point x="1328" y="265"/>
      <point x="1017" y="32"/>
      <point x="757" y="32" type="curve" smooth="yes"/>
      <point x="497" y="32"/>
      <point x="186" y="265"/>
      <point x="186" y="740" type="curve" smooth="yes"/>
      <point x="186" y="747"/>
      <point x="186" y="754"/>
      <point x="186" y="761" type="curve"/>
    </contour>
    <contour>
      <point x="1350" y="719" type="line"/>
      <point x="1350" y="761" type="line"/>
      <point x="186" y="761" type="line"/>
      <point x="173" y="719" type="line"/>
    </contour>
  </outline>
</glyph>
<glyph name="uni0191" format="2">
  <advance width="1272"/>
  <unicode hex="0191"/>
  <outline>
    <contour>
      <point x="0" y="-269" type="line"/>
      <point x="4" y="-270"/>
      <point x="8" y="-270"/>
      <point x="12" y="-270" type="curve" smooth="yes"/>
      <point x="167" y="-270"/>
      <point x="276" y="-155"/>
      <point x="276" y="0" type="curve" smooth="yes"/>
      <point x="322" y="0" type="line" smooth="yes"/>
      <point x="322" y="-178"/>
      <point x="190" y="-310"/>
      <point x="12" y="-310" type="curve" smooth="yes"/>
      <point x="8" y="-310"/>
      <point x="4" y="-310"/>
      <point x="0" y="-309" type="curve"/>
    </contour>
    <contour>
      <point x="322" y="168" type="line"/>
      <point x="322" y="0" type="line"/>
      <point x="276" y="0" type="line"/>
      <point x="276" y="1480" type="line"/>
      <point x="1092" y="1480" type="line"/>
      <point x="1092" y="1438" type="line"/>
      <point x="322" y="1438" type="line"/>
      <point x="322" y="761" type="line"/>
      <point x="1009" y="761" type="line"/>
      <point x="1009" y="719" type="line"/>
      <point x="322" y="719" type="line"/>
    </contour>
  </outline>
</glyph>
<glyph name="uni0196" format="2">
  <advance width="608"/>
  <unicode hex="0196"/>
  <outline>
    <contour>
      <point x="423" y="0" type="curve" smooth="yes"/>
      <point x="247" y="0"/>
      <point x="180" y="110"/>
      <point x="180" y="310" type="curve" smooth="yes"/>
      <point x="180" y="490" type="line"/>
      <point x="180" y="1480" type="line"/>
      <point x="225" y="1480" type="line"/>
      <point x="225" y="490" type="line"/>
      <point x="225" y="310" type="line" smooth="yes"/>
      <point x="225" y="70"/>
      <point x="333" y="40"/>
      <point x="423" y="40" type="curve" smooth="yes"/>
      <point x="461" y="40"/>
      <point x="515" y="47"/>
      <point x="554" y="75" type="curve"/>
      <point x="568" y="32" type="line"/>
      <point x="539" y="12"/>
      <point x="472" y="0"/>
    </contour>
  </outline>
</glyph>
<glyph name="uni019A" format="2">
  <advance width="540"/>
  <unicode hex="019A"/>
  <outline>
    <contour>
      <point x="465" y="720" type="line"/>
      <point x="-60" y="720" type="line"/>
      <point x="-60" y="766"/>
      <point x="-60" y="714"/>
      <point x="-60" y="760" type="curve"/>
      <point x="465" y="760" type="line"/>
    </contour>
    <contour>
      <point x="489" y="56" type="curve"/>
      <point x="500" y="14" type="line"/>
      <point x="475" y="-3"/>
      <point x="445" y="-10"/>
      <point x="417" y="-10" type="curve" smooth="yes"/>
      <point x="267" y="-10"/>
      <point x="180" y="60"/>
      <point x="180" y="230" type="curve" smooth="yes"/>
      <point x="180" y="440" type="line"/>
      <point x="180" y="578" type="line"/>
      <point x="180" y="1480" type="line"/>
      <point x="225" y="1480" type="line"/>
      <point x="225" y="578" type="line"/>
      <point x="225" y="440" type="line"/>
      <point x="225" y="230" type="line" smooth="yes"/>
      <point x="225" y="40"/>
      <point x="364" y="30"/>
      <point x="417" y="30" type="curve" smooth="yes"/>
      <point x="431" y="30"/>
      <point x="458" y="36"/>
    </contour>
  </outline>
</glyph>
<glyph name="uni019D" format="2">
  <advance width="1440"/>
  <unicode hex="019D"/>
  <outline>
    <contour>
      <point x="0" y="-269" type="line"/>
      <point x="4" y="-270"/>
      <point x="8" y="-270"/>
      <point x="12" y="-270" type="curve" smooth="yes"/>
      <point x="167" y="-270"/>
      <point x="276" y="-155"/>
      <point x="276" y="0" type="curve"/>
      <point x="322" y="0" type="line"/>
      <point x="322" y="-178"/>
      <point x="190" y="-310"/>
      <point x="12" y="-310" type="curve" smooth="yes"/>
      <point x="8" y="-310"/>
      <point x="4" y="-310"/>
      <point x="0" y="-309" type="curve"/>
    </contour>
    <contour>
      <point x="322" y="1480" type="line"/>
      <point x="1214" y="90" type="line"/>
      <point x="1214" y="1480" type="line"/>
      <point x="1260" y="1480" type="line"/>
      <point x="1260" y="0" type="line"/>
      <point x="1214" y="0" type="line"/>
      <point x="322" y="1390" type="line"/>
      <point x="322" y="0" type="line"/>
      <point x="276" y="0" type="line"/>
      <point x="276" y="1480" type="line"/>
    </contour>
  </outline>
</glyph>
<glyph name="uni01AA" format="2">
  <advance width="1011"/>
  <unicode hex="01AA"/>
  <outline>
    <contour>
      <point x="140" y="1264" type="curve" smooth="yes"/>
      <point x="140" y="1387"/>
      <point x="234" y="1488"/>
      <point x="369" y="1488" type="curve" smooth="yes"/>
      <point x="504" y="1488"/>
      <point x="598" y="1387"/>
      <point x="598" y="1264" type="curve" smooth="yes"/>
      <point x="598" y="1141"/>
      <point x="504" y="1040"/>
      <point x="369" y="1040" type="curve" smooth="yes"/>
      <point x="234" y="1040"/>
      <point x="140" y="1141"/>
    </contour>
    <contour>
      <point x="185" y="1264" type="curve" smooth="yes"/>
      <point x="185" y="1154"/>
      <point x="269" y="1080"/>
      <point x="369" y="1080" type="curve" smooth="yes"/>
      <point x="469" y="1080"/>
      <point x="553" y="1154"/>
      <point x="553" y="1264" type="curve" smooth="yes"/>
      <point x="553" y="1370"/>
      <point x="469" y="1448"/>
      <point x="369" y="1448" type="curve" smooth="yes"/>
      <point x="269" y="1448"/>
      <point x="185" y="1370"/>
    </contour>
    <contour>
      <point x="598" y="300" type="line" smooth="yes"/>
      <point x="598" y="60"/>
      <point x="706" y="30"/>
      <point x="796" y="30" type="curve" smooth="yes"/>
      <point x="834" y="30"/>
      <point x="888" y="37"/>
      <point x="927" y="65" type="curve"/>
      <point x="941" y="22" type="line"/>
      <point x="901" y="4"/>
      <point x="845" y="-10"/>
      <point x="796" y="-10" type="curve" smooth="yes"/>
      <point x="620" y="-10"/>
      <point x="553" y="100"/>
      <point x="553" y="300" type="curve" smooth="yes"/>
      <point x="553" y="1174" type="line"/>
      <point x="598" y="1264" type="line"/>
    </contour>
  </outline>
</glyph>
<glyph name="uni01B3" format="2">
  <advance width="1495"/>
  <unicode hex="01B3"/>
  <outline>
    <contour>
      <point x="1475" y="1402" type="line"/>
      <point x="1472" y="1405"/>
      <point x="1469" y="1407"/>
      <point x="1466" y="1409" type="curve" smooth="yes"/>
      <point x="1421" y="1435"/>
      <point x="1375" y="1447"/>
      <point x="1330" y="1447" type="curve" smooth="yes"/>
      <point x="1239" y="1447"/>
      <point x="1158" y="1397"/>
      <point x="1101" y="1308" type="curve"/>
      <point x="1062" y="1330" type="line"/>
      <point x="1131" y="1432"/>
      <point x="1221" y="1488"/>
      <point x="1326" y="1488" type="curve" smooth="yes"/>
      <point x="1379" y="1488"/>
      <point x="1434" y="1474"/>
      <point x="1486" y="1444" type="curve" smooth="yes"/>
      <point x="1489" y="1442"/>
      <point x="1492" y="1440"/>
      <point x="1495" y="1437" type="curve"/>
    </contour>
    <contour>
      <point x="648" y="0" type="line"/>
      <point x="648" y="740" type="line"/>
      <point x="694" y="740" type="line"/>
      <point x="694" y="0" type="line"/>
    </contour>
    <contour>
      <point x="685" y="719" type="line"/>
      <point x="659" y="716" type="line"/>
      <point x="120" y="1480" type="line"/>
      <point x="174" y="1480" type="line"/>
      <point x="671" y="778" type="line"/>
      <point x="1062" y="1330" type="line"/>
      <point x="1101" y="1308" type="line"/>
    </contour>
  </outline>
</glyph>
<glyph name="uni01B4" format="2">
  <advance width="1241"/>
  <unicode hex="01B4"/>
  <outline>
    <contour>
      <point x="1231" y="996" type="line"/>
      <point x="1227" y="998"/>
      <point x="1224" y="1000"/>
      <point x="1220" y="1001" type="curve"/>
      <point x="1195" y="1008"/>
      <point x="1169" y="1011"/>
      <point x="1145" y="1011" type="curve" smooth="yes"/>
      <point x="1026" y="1011"/>
      <point x="937" y="933"/>
      <point x="894" y="808" type="curve"/>
      <point x="850" y="820" type="line"/>
      <point x="898" y="962"/>
      <point x="1006" y="1051"/>
      <point x="1143" y="1051" type="curve" smooth="yes"/>
      <point x="1171" y="1051"/>
      <point x="1200" y="1047"/>
      <point x="1230" y="1039" type="curve"/>
      <point x="1234" y="1038"/>
      <point x="1237" y="1037"/>
      <point x="1241" y="1035" type="curve"/>
    </contour>
    <contour>
      <point x="483" y="-312" type="line"/>
      <point x="450" y="-401"/>
      <point x="381" y="-450"/>
      <point x="265" y="-450" type="curve" smooth="yes"/>
      <point x="216" y="-450"/>
      <point x="160" y="-436"/>
      <point x="120" y="-418" type="curve"/>
      <point x="134" y="-375" type="line"/>
      <point x="173" y="-403"/>
      <point x="227" y="-410"/>
      <point x="265" y="-410" type="curve" smooth="yes"/>
      <point x="330" y="-410"/>
      <point x="405" y="-395"/>
      <point x="441" y="-296" type="curve"/>
      <point x="548" y="0" type="line"/>
      <point x="168" y="1040" type="line"/>
      <point x="216" y="1040" type="line"/>
      <point x="573" y="56" type="line"/>
      <point x="850" y="820" type="line"/>
      <point x="894" y="808" type="line"/>
      <point x="598" y="0" type="line"/>
    </contour>
  </outline>
</glyph>
<glyph name="uni01B5" format="2">
  <advance width="1258"/>
  <unicode hex="01B5"/>
  <outline>
    <contour>
      <point x="955" y="719" type="line"/>
      <point x="315" y="719" type="line"/>
      <point x="315" y="729"/>
      <point x="315" y="751"/>
      <point x="315" y="761" type="curve"/>
      <point x="955" y="761" type="line"/>
    </contour>
    <contour>
      <point x="210" y="0" type="line"/>
      <point x="180" y="38" type="line"/>
      <point x="1030" y="1480" type="line"/>
      <point x="1060" y="1442" type="line"/>
    </contour>
    <contour>
      <point x="204" y="42" type="line"/>
      <point x="1078" y="42" type="line"/>
      <point x="1078" y="0" type="line"/>
      <point x="752" y="0"/>
      <point x="506" y="0"/>
      <point x="180" y="0" type="curve"/>
      <point x="180" y="38" type="line"/>
    </contour>
    <contour>
      <point x="1035" y="1438" type="line"/>
      <point x="198" y="1438" type="line"/>
      <point x="198" y="1480" type="line"/>
      <point x="524" y="1480"/>
      <point x="734" y="1480"/>
      <point x="1060" y="1480" type="curve"/>
      <point x="1060" y="1442" type="line"/>
    </contour>
  </outline>
</glyph>
<glyph name="uni01B7" format="2">
  <advance width="1176"/>
  <unicode hex="01B7"/>
  <outline>
    <contour>
      <point x="531" y="758" type="line"/>
      <point x="501" y="796" type="line"/>
      <point x="970" y="1480" type="line"/>
      <point x="1000" y="1442" type="line"/>
    </contour>
    <contour>
      <point x="1036" y="390" type="curve" smooth="yes"/>
      <point x="1036" y="147"/>
      <point x="849" y="-10"/>
      <point x="585" y="-10" type="curve" smooth="yes"/>
      <point x="324" y="-10"/>
      <point x="145" y="143"/>
      <point x="140" y="381" type="curve"/>
      <point x="186" y="394" type="line" smooth="yes"/>
      <point x="186" y="161"/>
      <point x="360" y="32"/>
      <point x="585" y="32" type="curve" smooth="yes"/>
      <point x="810" y="32"/>
      <point x="990" y="157"/>
      <point x="990" y="390" type="curve" smooth="yes"/>
      <point x="990" y="623"/>
      <point x="771" y="756"/>
      <point x="585" y="756" type="curve"/>
      <point x="535" y="756"/>
      <point x="501" y="756"/>
      <point x="501" y="756" type="curve"/>
      <point x="501" y="796" type="line"/>
      <point x="501" y="796"/>
      <point x="535" y="802"/>
      <point x="585" y="802" type="curve"/>
      <point x="801" y="802"/>
      <point x="1036" y="633"/>
    </contour>
    <contour>
      <point x="176" y="1480" type="line"/>
      <point x="1000" y="1480" type="line"/>
      <point x="1000" y="1442" type="line"/>
      <point x="975" y="1438" type="line"/>
      <point x="176" y="1438" type="line"/>
    </contour>
  </outline>
</glyph>
<glyph name="uni01B8" format="2">
  <advance width="1176"/>
  <unicode hex="01B8"/>
  <outline>
    <contour>
      <point x="645" y="758" type="line"/>
      <point x="675" y="796" type="line"/>
      <point x="206" y="1480" type="line"/>
      <point x="176" y="1442" type="line"/>
    </contour>
    <contour>
      <point x="140" y="390" type="curve" smooth="yes"/>
      <point x="140" y="147"/>
      <point x="327" y="-10"/>
      <point x="591" y="-10" type="curve" smooth="yes"/>
      <point x="852" y="-10"/>
      <point x="1031" y="143"/>
      <point x="1036" y="381" type="curve"/>
      <point x="990" y="394" type="line"/>
      <point x="990" y="161"/>
      <point x="816" y="32"/>
      <point x="591" y="32" type="curve" smooth="yes"/>
      <point x="366" y="32"/>
      <point x="186" y="157"/>
      <point x="186" y="390" type="curve" smooth="yes"/>
      <point x="186" y="623"/>
      <point x="405" y="756"/>
      <point x="591" y="756" type="curve"/>
      <point x="641" y="756"/>
      <point x="675" y="756"/>
      <point x="675" y="756" type="curve"/>
      <point x="675" y="796" type="line"/>
      <point x="675" y="796"/>
      <point x="641" y="802"/>
      <point x="591" y="802" type="curve"/>
      <point x="375" y="802"/>
      <point x="140" y="633"/>
    </contour>
    <contour>
      <point x="1000" y="1480" type="line"/>
      <point x="176" y="1480" type="line"/>
      <point x="176" y="1442" type="line"/>
      <point x="201" y="1438" type="line"/>
      <point x="1000" y="1438" type="line"/>
    </contour>
  </outline>
</glyph>
<glyph name="uni01C0" format="2">
  <advance width="364"/>
  <unicode hex="01C0"/>
  <outline>
    <contour>
      <point x="224" y="1480" type="line"/>
      <point x="224" y="0" type="line"/>
      <point x="180" y="0" type="line"/>
      <point x="180" y="1480" type="line"/>
    </contour>
  </outline>
</glyph>
<glyph name="uni01C2" format="2">
  <advance width="1176"/>
  <unicode hex="01C2"/>
  <outline>
    <contour>
      <point x="180" y="910" type="line"/>
      <point x="180" y="955" type="line"/>
      <point x="996" y="955" type="line"/>
      <point x="996" y="910" type="line"/>
    </contour>
    <contour>
      <point x="180" y="525" type="line"/>
      <point x="180" y="570" type="line"/>
      <point x="996" y="570" type="line"/>
      <point x="996" y="525" type="line"/>
    </contour>
    <contour>
      <point x="610" y="1480" type="line"/>
      <point x="610" y="0" type="line"/>
      <point x="566" y="0" type="line"/>
      <point x="566" y="1480" type="line"/>
    </contour>
  </outline>
</glyph>
<glyph name="uni01E5" format="2">
  <advance width="1147"/>
  <unicode hex="01E5"/>
  <outline>
    <contour>
      <point x="606" y="1007" type="line"/>
      <point x="656" y="1033"/>
      <point x="720" y="1050"/>
      <point x="805" y="1050" type="curve" smooth="yes"/>
      <point x="849" y="1050"/>
      <point x="900" y="1035"/>
      <point x="937" y="1014" type="curve"/>
      <point x="916" y="972" type="line"/>
      <point x="881" y="994"/>
      <point x="841" y="1010"/>
      <point x="795" y="1010" type="curve" smooth="yes"/>
      <point x="737" y="1010"/>
      <point x="689" y="1000"/>
      <point x="648" y="982" type="curve"/>
    </contour>
    <contour>
      <point x="484" y="340" type="curve"/>
      <point x="484" y="310" type="line"/>
      <point x="345" y="310"/>
      <point x="174" y="290"/>
      <point x="174" y="175" type="curve" smooth="yes"/>
      <point x="174" y="60"/>
      <point x="289" y="40"/>
      <point x="484" y="40" type="curve"/>
      <point x="484" y="0" type="line"/>
      <point x="253" y="0"/>
      <point x="134" y="45"/>
      <point x="134" y="175" type="curve" smooth="yes"/>
      <point x="134" y="305"/>
      <point x="273" y="340"/>
    </contour>
    <contour>
      <point x="937" y="-166" type="curve" smooth="yes"/>
      <point x="937" y="-346"/>
      <point x="802" y="-450"/>
      <point x="484" y="-450" type="curve" smooth="yes"/>
      <point x="166" y="-450"/>
      <point x="70" y="-345"/>
      <point x="70" y="-204" type="curve" smooth="yes"/>
      <point x="70" y="-33"/>
      <point x="215" y="40"/>
      <point x="484" y="40" type="curve"/>
      <point x="484" y="14" type="line"/>
      <point x="266" y="14"/>
      <point x="115" y="-49"/>
      <point x="115" y="-204" type="curve" smooth="yes"/>
      <point x="115" y="-359"/>
      <point x="266" y="-410"/>
      <point x="484" y="-410" type="curve" smooth="yes"/>
      <point x="830" y="-410"/>
      <point x="892" y="-270"/>
      <point x="892" y="-170" type="curve" smooth="yes"/>
      <point x="892" y="-90"/>
      <point x="838" y="0"/>
      <point x="484" y="0" type="curve"/>
      <point x="484" y="40" type="line"/>
      <point x="766" y="40"/>
      <point x="937" y="-6"/>
    </contour>
    <contour>
      <point x="179" y="680" type="curve" smooth="yes"/>
      <point x="179" y="460"/>
      <point x="344" y="350"/>
      <point x="484" y="350" type="curve" smooth="yes"/>
      <point x="624" y="350"/>
      <point x="789" y="460"/>
      <point x="789" y="680" type="curve" smooth="yes"/>
      <point x="789" y="900"/>
      <point x="624" y="1010"/>
      <point x="484" y="1010" type="curve" smooth="yes"/>
      <point x="344" y="1010"/>
      <point x="179" y="900"/>
    </contour>
    <contour>
      <point x="134" y="680" type="curve" smooth="yes"/>
      <point x="134" y="899"/>
      <point x="291" y="1050"/>
      <point x="484" y="1050" type="curve" smooth="yes"/>
      <point x="677" y="1050"/>
      <point x="834" y="899"/>
      <point x="834" y="680" type="curve" smooth="yes"/>
      <point x="834" y="461"/>
      <point x="677" y="310"/>
      <point x="484" y="310" type="curve" smooth="yes"/>
      <point x="291" y="310"/>
      <point x="134" y="461"/>
    </contour>
    <contour>
      <point x="1147" y="-167" type="line"/>
      <point x="622" y="-167" type="line"/>
      <point x="622" y="-155"/>
      <point x="622" y="-139"/>
      <point x="622" y="-127" type="curve"/>
      <point x="1147" y="-127" type="line"/>
    </contour>
  </outline>
</glyph>
<glyph name="uni0236" format="2">
  <advance width="772"/>
  <unicode hex="0236"/>
  <outline>
    <contour>
      <point x="368" y="434" type="line"/>
      <point x="368" y="201" type="line"/>
      <point x="368" y="101"/>
      <point x="434" y="30"/>
      <point x="534" y="30" type="curve" smooth="yes"/>
      <point x="634" y="30"/>
      <point x="700" y="101"/>
      <point x="700" y="201" type="curve" smooth="yes"/>
      <point x="700" y="301"/>
      <point x="634" y="372"/>
      <point x="534" y="372" type="curve" smooth="yes"/>
      <point x="228" y="372"/>
      <point x="110" y="-178"/>
      <point x="110" y="-178" type="curve"/>
      <point x="70" y="-155" type="line"/>
      <point x="70" y="-155"/>
      <point x="185" y="412"/>
      <point x="535" y="412" type="curve" smooth="yes"/>
      <point x="655" y="412"/>
      <point x="745" y="321"/>
      <point x="745" y="201" type="curve" smooth="yes"/>
      <point x="745" y="81"/>
      <point x="654" y="-10"/>
      <point x="534" y="-10" type="curve" smooth="yes"/>
      <point x="414" y="-10"/>
      <point x="323" y="81"/>
      <point x="323" y="201" type="curve"/>
      <point x="323" y="292" type="line"/>
      <point x="323" y="1000" type="line"/>
      <point x="79" y="1000" type="line"/>
      <point x="79" y="1040" type="line"/>
      <point x="157" y="1040" type="line"/>
      <point x="307" y="1040"/>
      <point x="323" y="1056"/>
      <point x="323" y="1206" type="curve"/>
      <point x="323" y="1320" type="line"/>
      <point x="368" y="1320" type="line"/>
      <point x="368" y="1040" type="line"/>
      <point x="674" y="1040" type="line"/>
      <point x="674" y="1000" type="line"/>
      <point x="368" y="1000" type="line"/>
    </contour>
  </outline>
</glyph>
<glyph name="uni0241" format="2">
  <advance width="1152"/>
  <unicode hex="0241"/>
  <outline>
    <contour>
      <point x="551" y="0" type="line"/>
      <point x="597" y="0" type="line"/>
      <point x="597" y="472" type="line"/>
      <point x="551" y="472" type="line"/>
    </contour>
    <contour>
      <point x="574" y="430" type="line" smooth="yes"/>
      <point x="821" y="430"/>
      <point x="1012" y="648"/>
      <point x="1012" y="960" type="curve" smooth="yes"/>
      <point x="1012" y="1272"/>
      <point x="838" y="1490"/>
      <point x="574" y="1490" type="curve" smooth="yes"/>
      <point x="336" y="1490"/>
      <point x="167" y="1306"/>
      <point x="140" y="1032" type="curve"/>
      <point x="186" y="1019" type="line"/>
      <point x="191" y="1230"/>
      <point x="336" y="1448"/>
      <point x="574" y="1448" type="curve" smooth="yes"/>
      <point x="812" y="1448"/>
      <point x="966" y="1240"/>
      <point x="966" y="960" type="curve" smooth="yes"/>
      <point x="966" y="680"/>
      <point x="792" y="472"/>
      <point x="574" y="472" type="curve" smooth="yes"/>
    </contour>
  </outline>
</glyph>
<glyph name="uni0242" format="2">
  <advance width="971"/>
  <unicode hex="0242"/>
  <outline>
    <contour>
      <point x="463" y="0" type="line"/>
      <point x="505" y="0" type="line"/>
      <point x="505" y="298" type="line"/>
      <point x="463" y="298" type="line"/>
    </contour>
    <contour>
      <point x="484" y="258" type="line"/>
      <point x="680" y="258"/>
      <point x="831" y="423"/>
      <point x="831" y="654" type="curve" smooth="yes"/>
      <point x="831" y="885"/>
      <point x="693" y="1050"/>
      <point x="484" y="1050" type="curve" smooth="yes"/>
      <point x="296" y="1050"/>
      <point x="162" y="904"/>
      <point x="140" y="697" type="curve"/>
      <point x="185" y="685" type="line"/>
      <point x="189" y="822"/>
      <point x="300" y="1010"/>
      <point x="484" y="1010" type="curve" smooth="yes"/>
      <point x="668" y="1010"/>
      <point x="786" y="838"/>
      <point x="786" y="654" type="curve" smooth="yes"/>
      <point x="786" y="470"/>
      <point x="668" y="298"/>
      <point x="484" y="298" type="curve"/>
    </contour>
  </outline>
</glyph>
<glyph name="uni0243" format="2">
  <advance width="1184"/>
  <unicode hex="0243"/>
  <outline>
    <contour>
      <point x="536" y="429" type="line"/>
      <point x="0" y="429" type="line"/>
      <point x="0" y="441"/>
      <point x="0" y="459"/>
      <point x="0" y="471" type="curve"/>
      <point x="536" y="471" type="line"/>
    </contour>
    <contour>
      <point x="625" y="1480" type="line"/>
      <point x="819" y="1480"/>
      <point x="987" y="1362"/>
      <point x="987" y="1142" type="curve" smooth="yes"/>
      <point x="987" y="922"/>
      <point x="819" y="804"/>
      <point x="625" y="804" type="curve"/>
      <point x="625" y="846" type="line"/>
      <point x="815" y="846"/>
      <point x="941" y="962"/>
      <point x="941" y="1142" type="curve" smooth="yes"/>
      <point x="941" y="1322"/>
      <point x="815" y="1438"/>
      <point x="625" y="1438" type="curve"/>
      <point x="256" y="1438" type="line"/>
      <point x="256" y="1480" type="line"/>
    </contour>
    <contour>
      <point x="256" y="42" type="line"/>
      <point x="625" y="42" type="line"/>
      <point x="850" y="42"/>
      <point x="998" y="223"/>
      <point x="998" y="423" type="curve" smooth="yes"/>
      <point x="998" y="623"/>
      <point x="850" y="804"/>
      <point x="625" y="804" type="curve"/>
      <point x="256" y="804" type="line"/>
    </contour>
    <contour>
      <point x="210" y="1480" type="line"/>
      <point x="256" y="1480" type="line"/>
      <point x="256" y="846" type="line"/>
      <point x="625" y="846" type="line"/>
      <point x="849" y="846"/>
      <point x="1044" y="678"/>
      <point x="1044" y="423" type="curve" smooth="yes"/>
      <point x="1044" y="168"/>
      <point x="849" y="0"/>
      <point x="625" y="0" type="curve"/>
      <point x="210" y="0" type="line"/>
    </contour>
  </outline>
</glyph>
<glyph name="uni0248" format="2">
  <advance width="1166"/>
  <unicode hex="0248"/>
  <outline>
    <contour>
      <point x="187" y="447" type="line"/>
      <point x="186" y="441"/>
      <point x="186" y="438"/>
      <point x="186" y="434" type="curve" smooth="yes"/>
      <point x="186" y="146"/>
      <point x="380" y="32"/>
      <point x="548" y="32" type="curve" smooth="yes"/>
      <point x="716" y="32"/>
      <point x="910" y="146"/>
      <point x="910" y="434" type="curve"/>
      <point x="910" y="1480" type="line"/>
      <point x="956" y="1480" type="line"/>
      <point x="956" y="434" type="line"/>
      <point x="956" y="154"/>
      <point x="786" y="-10"/>
      <point x="548" y="-10" type="curve" smooth="yes"/>
      <point x="310" y="-10"/>
      <point x="140" y="154"/>
      <point x="140" y="434" type="curve"/>
    </contour>
    <contour>
      <point x="1166" y="719" type="line"/>
      <point x="630" y="719" type="line"/>
      <point x="630" y="731"/>
      <point x="630" y="749"/>
      <point x="630" y="761" type="curve"/>
      <point x="1166" y="761" type="line"/>
    </contour>
  </outline>
</glyph>
<glyph name="uni024A" format="2">
  <advance width="1651"/>
  <unicode hex="024A"/>
  <outline>
    <contour>
      <point x="1651" y="-429" type="curve"/>
      <point x="1651" y="-469" type="line"/>
      <point x="1647" y="-470"/>
      <point x="1643" y="-470"/>
      <point x="1639" y="-470" type="curve" smooth="yes"/>
      <point x="1461" y="-470"/>
      <point x="1328" y="-338"/>
      <point x="1328" y="-160" type="curve"/>
      <point x="1374" y="-160" type="line"/>
      <point x="1374" y="-315"/>
      <point x="1484" y="-430"/>
      <point x="1639" y="-430" type="curve" smooth="yes"/>
      <point x="1643" y="-430"/>
      <point x="1647" y="-430"/>
    </contour>
    <contour>
      <point x="1374" y="1480" type="line"/>
      <point x="1374" y="-160" type="line"/>
      <point x="1328" y="-160" type="line"/>
      <point x="1328" y="540" type="line"/>
      <point x="1348" y="579" type="line"/>
      <point x="1348" y="906" type="line"/>
      <point x="1328" y="946" type="line"/>
      <point x="1328" y="1480" type="line"/>
    </contour>
    <contour>
      <point x="186" y="740" type="curve" smooth="yes"/>
      <point x="186" y="265"/>
      <point x="497" y="32"/>
      <point x="757" y="32" type="curve" smooth="yes"/>
      <point x="1017" y="32"/>
      <point x="1328" y="265"/>
      <point x="1328" y="740" type="curve" smooth="yes"/>
      <point x="1328" y="1215"/>
      <point x="1017" y="1448"/>
      <point x="757" y="1448" type="curve" smooth="yes"/>
      <point x="497" y="1448"/>
      <point x="186" y="1215"/>
    </contour>
    <contour>
      <point x="140" y="740" type="curve" smooth="yes"/>
      <point x="140" y="1179"/>
      <point x="409" y="1490"/>
      <point x="757" y="1490" type="curve" smooth="yes"/>
      <point x="1105" y="1490"/>
      <point x="1374" y="1179"/>
      <point x="1374" y="740" type="curve" smooth="yes"/>
      <point x="1374" y="301"/>
      <point x="1105" y="-10"/>
      <point x="757" y="-10" type="curve" smooth="yes"/>
      <point x="409" y="-10"/>
      <point x="140" y="301"/>
    </contour>
  </outline>
</glyph>
<glyph name="uni024B" format="2">
  <advance width="1249"/>
  <unicode hex="024B"/>
  <outline>
    <contour>
      <point x="1249" y="-429" type="curve"/>
      <point x="1249" y="-469" type="line"/>
      <point x="1245" y="-470"/>
      <point x="1241" y="-470"/>
      <point x="1237" y="-470" type="curve" smooth="yes"/>
      <point x="1059" y="-470"/>
      <point x="927" y="-338"/>
      <point x="927" y="-160" type="curve"/>
      <point x="972" y="-160" type="line"/>
      <point x="972" y="-315"/>
      <point x="1082" y="-430"/>
      <point x="1237" y="-430" type="curve" smooth="yes"/>
      <point x="1241" y="-430"/>
      <point x="1245" y="-430"/>
    </contour>
    <contour>
      <point x="935" y="520" type="curve"/>
      <point x="935" y="856"/>
      <point x="735" y="1010"/>
      <point x="560" y="1010" type="curve" smooth="yes"/>
      <point x="385" y="1010"/>
      <point x="185" y="856"/>
      <point x="185" y="520" type="curve" smooth="yes"/>
      <point x="185" y="184"/>
      <point x="385" y="30"/>
      <point x="560" y="30" type="curve" smooth="yes"/>
      <point x="735" y="30"/>
      <point x="935" y="184"/>
    </contour>
    <contour>
      <point x="972" y="832" type="curve"/>
      <point x="972" y="-160" type="line"/>
      <point x="927" y="-160" type="line"/>
      <point x="927" y="260" type="line"/>
      <point x="896" y="144"/>
      <point x="760" y="-10"/>
      <point x="560" y="-10" type="curve" smooth="yes"/>
      <point x="313" y="-10"/>
      <point x="140" y="208"/>
      <point x="140" y="520" type="curve" smooth="yes"/>
      <point x="140" y="832"/>
      <point x="313" y="1050"/>
      <point x="560" y="1050" type="curve" smooth="yes"/>
      <point x="770" y="1050"/>
      <point x="896" y="896"/>
      <point x="927" y="780" type="curve"/>
      <point x="927" y="1040" type="line"/>
      <point x="972" y="1040" type="line"/>
      <point x="972" y="1040"/>
      <point x="972" y="930"/>
    </contour>
  </outline>
</glyph>
<glyph name="uni0250" format="2">
  <advance width="1141"/>
  <unicode hex="0250"/>
  <outline>
    <contour>
      <point x="626" y="1050" type="curve" smooth="yes"/>
      <point x="824" y="1050"/>
      <point x="1001" y="940"/>
      <point x="1001" y="700" type="curve"/>
      <point x="1001" y="460"/>
      <point x="814" y="350"/>
      <point x="616" y="350" type="curve" smooth="yes"/>
      <point x="446" y="350"/>
      <point x="241" y="460"/>
      <point x="241" y="700" type="curve"/>
      <point x="241" y="940"/>
      <point x="436" y="1050"/>
    </contour>
    <contour>
      <point x="276" y="700" type="curve" smooth="yes"/>
      <point x="276" y="531"/>
      <point x="406" y="390"/>
      <point x="616" y="390" type="curve" smooth="yes"/>
      <point x="826" y="390"/>
      <point x="956" y="501"/>
      <point x="956" y="700" type="curve" smooth="yes"/>
      <point x="956" y="899"/>
      <point x="826" y="1010"/>
      <point x="616" y="1010" type="curve" smooth="yes"/>
      <point x="406" y="1010"/>
      <point x="276" y="869"/>
    </contour>
    <contour>
      <point x="231" y="810" type="line" smooth="yes"/>
      <point x="231" y="931"/>
      <point x="175" y="991"/>
      <point x="120" y="1010" type="curve"/>
      <point x="133" y="1050" type="line"/>
      <point x="225" y="1024"/>
      <point x="276" y="941"/>
      <point x="276" y="810" type="curve"/>
      <point x="259" y="775" type="line"/>
      <point x="259" y="624" type="line"/>
      <point x="276" y="592" type="line"/>
      <point x="276" y="410" type="line" smooth="yes"/>
      <point x="276" y="96"/>
      <point x="470" y="30"/>
      <point x="618" y="30" type="curve" smooth="yes"/>
      <point x="816" y="30"/>
      <point x="945" y="155"/>
      <point x="945" y="155" type="curve"/>
      <point x="970" y="114" type="line"/>
      <point x="970" y="114"/>
      <point x="842" y="-10"/>
      <point x="618" y="-10" type="curve" smooth="yes"/>
      <point x="402" y="-10"/>
      <point x="231" y="92"/>
      <point x="231" y="442" type="curve"/>
    </contour>
  </outline>
</glyph>
<glyph name="uni0251" format="2">
  <advance width="1140"/>
  <unicode hex="0251"/>
  <anchor x="548" y="1040" name="top_center"/>
  <anchor x="548" y="0" name="bottom_center"/>
  <anchor x="548" y="-90" name="bottom_ypogegrammeni"/>
  <anchor x="548" y="1040" name="greek_t"/>
  <anchor x="548" y="1040" name="greek_k"/>
  <anchor x="548" y="1040" name="greek_kt"/>
  <anchor x="548" y="1040" name="greek_v"/>
  <outline>
    <contour>
      <point x="923" y="520" type="curve"/>
      <point x="923" y="856"/>
      <point x="723" y="1010"/>
      <point x="548" y="1010" type="curve" smooth="yes"/>
      <point x="373" y="1010"/>
      <point x="173" y="856"/>
      <point x="173" y="520" type="curve" smooth="yes"/>
      <point x="173" y="184"/>
      <point x="373" y="30"/>
      <point x="548" y="30" type="curve" smooth="yes"/>
      <point x="723" y="30"/>
      <point x="923" y="184"/>
    </contour>
    <contour>
      <point x="960" y="208" type="line"/>
      <point x="960" y="110"/>
      <point x="972" y="0"/>
      <point x="972" y="0" type="curve"/>
      <point x="927" y="0" type="line"/>
      <point x="927" y="0"/>
      <point x="915" y="110"/>
      <point x="915" y="260" type="curve"/>
      <point x="884" y="144"/>
      <point x="758" y="-10"/>
      <point x="548" y="-10" type="curve" smooth="yes"/>
      <point x="301" y="-10"/>
      <point x="128" y="208"/>
      <point x="128" y="520" type="curve" smooth="yes"/>
      <point x="128" y="832"/>
      <point x="301" y="1050"/>
      <point x="548" y="1050" type="curve" smooth="yes"/>
      <point x="748" y="1050"/>
      <point x="884" y="896"/>
      <point x="915" y="780" type="curve"/>
      <point x="915" y="1040" type="line"/>
      <point x="960" y="1040" type="line"/>
    </contour>
  </outline>
</glyph>
<glyph name="uni0253" format="2">
  <advance width="1152"/>
  <unicode hex="0253"/>
  <outline>
    <contour>
      <point x="217" y="520" type="curve"/>
      <point x="217" y="184"/>
      <point x="417" y="30"/>
      <point x="592" y="30" type="curve" smooth="yes"/>
      <point x="767" y="30"/>
      <point x="967" y="184"/>
      <point x="967" y="520" type="curve" smooth="yes"/>
      <point x="967" y="856"/>
      <point x="767" y="1010"/>
      <point x="592" y="1010" type="curve" smooth="yes"/>
      <point x="417" y="1010"/>
      <point x="217" y="856"/>
    </contour>
    <contour>
      <point x="180" y="1180" type="curve"/>
      <point x="180" y="1358"/>
      <point x="312" y="1490"/>
      <point x="490" y="1490" type="curve"/>
      <point x="494" y="1490"/>
      <point x="498" y="1490"/>
      <point x="502" y="1489" type="curve"/>
      <point x="502" y="1449" type="line"/>
      <point x="498" y="1450"/>
      <point x="494" y="1450"/>
      <point x="490" y="1450" type="curve"/>
      <point x="335" y="1450"/>
      <point x="225" y="1335"/>
      <point x="225" y="1180" type="curve"/>
      <point x="225" y="780" type="line"/>
      <point x="256" y="896"/>
      <point x="392" y="1050"/>
      <point x="592" y="1050" type="curve" smooth="yes"/>
      <point x="839" y="1050"/>
      <point x="1012" y="832"/>
      <point x="1012" y="520" type="curve" smooth="yes"/>
      <point x="1012" y="208"/>
      <point x="839" y="-10"/>
      <point x="592" y="-10" type="curve" smooth="yes"/>
      <point x="382" y="-10"/>
      <point x="256" y="144"/>
      <point x="225" y="260" type="curve"/>
      <point x="225" y="0" type="line"/>
      <point x="180" y="0" type="line"/>
      <point x="180" y="208" type="line"/>
      <point x="180" y="358"/>
      <point x="180" y="1180"/>
    </contour>
  </outline>
</glyph>
<glyph name="uni0255" format="2">
  <advance width="1101"/>
  <unicode hex="0255"/>
  <outline>
    <contour>
      <point x="750" y="40" type="line" smooth="yes"/>
      <point x="850" y="40"/>
      <point x="916" y="111"/>
      <point x="916" y="211" type="curve" smooth="yes"/>
      <point x="916" y="311"/>
      <point x="850" y="382"/>
      <point x="750" y="382" type="curve" smooth="yes"/>
      <point x="444" y="382"/>
      <point x="326" y="-168"/>
      <point x="326" y="-168" type="curve"/>
      <point x="286" y="-145" type="line"/>
      <point x="286" y="-145"/>
      <point x="401" y="422"/>
      <point x="751" y="422" type="curve" smooth="yes"/>
      <point x="871" y="422"/>
      <point x="961" y="331"/>
      <point x="961" y="211" type="curve" smooth="yes"/>
      <point x="961" y="91"/>
      <point x="870" y="0"/>
      <point x="750" y="0" type="curve" smooth="yes"/>
      <point x="578" y="0" type="line" smooth="yes"/>
      <point x="331" y="0"/>
      <point x="140" y="208"/>
      <point x="140" y="520" type="curve" smooth="yes"/>
      <point x="140" y="832"/>
      <point x="331" y="1050"/>
      <point x="578" y="1050" type="curve" smooth="yes"/>
      <point x="745" y="1050"/>
      <point x="887" y="950"/>
      <point x="961" y="788" type="curve"/>
      <point x="922" y="766" type="line"/>
      <point x="846" y="932"/>
      <point x="698" y="1010"/>
      <point x="578" y="1010" type="curve" smooth="yes"/>
      <point x="410" y="1010"/>
      <point x="185" y="856"/>
      <point x="185" y="520" type="curve" smooth="yes"/>
      <point x="185" y="184"/>
      <point x="410" y="40"/>
      <point x="578" y="40" type="curve" smooth="yes"/>
    </contour>
  </outline>
</glyph>
<glyph name="uni0256" format="2">
  <advance width="1250"/>
  <unicode hex="0256"/>
  <outline>
    <contour>
      <point x="972" y="0" type="curve" smooth="yes"/>
      <point x="972" y="0"/>
      <point x="972" y="110"/>
      <point x="972" y="208" type="curve"/>
      <point x="972" y="1480" type="line"/>
      <point x="927" y="1480" type="line"/>
      <point x="927" y="780" type="line"/>
      <point x="896" y="896"/>
      <point x="760" y="1050"/>
      <point x="560" y="1050" type="curve" smooth="yes"/>
      <point x="313" y="1050"/>
      <point x="140" y="832"/>
      <point x="140" y="520" type="curve" smooth="yes"/>
      <point x="140" y="208"/>
      <point x="313" y="-10"/>
      <point x="560" y="-10" type="curve" smooth="yes"/>
      <point x="770" y="-10"/>
      <point x="896" y="144"/>
      <point x="927" y="260" type="curve"/>
      <point x="927" y="0" type="line" smooth="yes"/>
      <point x="927" y="-178"/>
      <point x="1060" y="-310"/>
      <point x="1238" y="-310" type="curve" smooth="yes"/>
      <point x="1242" y="-310"/>
      <point x="1246" y="-310"/>
      <point x="1250" y="-309" type="curve"/>
      <point x="1250" y="-269" type="line"/>
      <point x="1246" y="-270"/>
      <point x="1242" y="-270"/>
      <point x="1238" y="-270" type="curve" smooth="yes"/>
      <point x="1083" y="-270"/>
      <point x="972" y="-155"/>
    </contour>
    <contour>
      <point x="935" y="520" type="curve"/>
      <point x="935" y="184"/>
      <point x="735" y="30"/>
      <point x="560" y="30" type="curve" smooth="yes"/>
      <point x="385" y="30"/>
      <point x="185" y="184"/>
      <point x="185" y="520" type="curve" smooth="yes"/>
      <point x="185" y="856"/>
      <point x="385" y="1010"/>
      <point x="560" y="1010" type="curve" smooth="yes"/>
      <point x="735" y="1010"/>
      <point x="935" y="856"/>
    </contour>
  </outline>
</glyph>
<glyph name="uni0259" format="2">
  <advance width="1156"/>
  <unicode hex="0259"/>
  <outline>
    <contour>
      <point x="991" y="500" type="line"/>
      <point x="157" y="500" type="line"/>
      <point x="185" y="540" type="line"/>
      <point x="991" y="540" type="line"/>
    </contour>
    <contour>
      <point x="204" y="766" type="curve"/>
      <point x="165" y="788" type="line"/>
      <point x="239" y="950"/>
      <point x="381" y="1050"/>
      <point x="578" y="1050" type="curve" smooth="yes"/>
      <point x="825" y="1050"/>
      <point x="1016" y="832"/>
      <point x="1016" y="520" type="curve" smooth="yes"/>
      <point x="1016" y="208"/>
      <point x="825" y="-10"/>
      <point x="578" y="-10" type="curve" smooth="yes"/>
      <point x="331" y="-10"/>
      <point x="140" y="208"/>
      <point x="140" y="520" type="curve" smooth="yes"/>
      <point x="140" y="527"/>
      <point x="140" y="533"/>
      <point x="140" y="540" type="curve"/>
      <point x="185" y="540" type="line"/>
      <point x="185" y="533"/>
      <point x="185" y="527"/>
      <point x="185" y="520" type="curve" smooth="yes"/>
      <point x="185" y="184"/>
      <point x="410" y="30"/>
      <point x="578" y="30" type="curve" smooth="yes"/>
      <point x="746" y="30"/>
      <point x="971" y="184"/>
      <point x="971" y="520" type="curve" smooth="yes"/>
      <point x="971" y="856"/>
      <point x="746" y="1010"/>
      <point x="578" y="1010" type="curve" smooth="yes"/>
      <point x="432" y="1010"/>
      <point x="280" y="932"/>
    </contour>
  </outline>
</glyph>
<glyph name="uni025F" format="2">
  <advance width="570"/>
  <unicode hex="025F"/>
  <anchor x="302" y="1040" name="top_center"/>
  <anchor x="192" y="-360" name="bottom_center"/>
  <outline>
    <contour>
      <point x="35" y="500" type="line"/>
      <point x="35" y="512"/>
      <point x="35" y="528"/>
      <point x="35" y="540" type="curve"/>
      <point x="570" y="540" type="line"/>
      <point x="570" y="500" type="line"/>
    </contour>
    <contour>
      <point x="16" y="-384" type="line"/>
      <point x="47" y="-404"/>
      <point x="74" y="-410"/>
      <point x="88" y="-410" type="curve" smooth="yes"/>
      <point x="141" y="-410"/>
      <point x="280" y="-400"/>
      <point x="280" y="-210" type="curve" smooth="yes"/>
      <point x="280" y="0" type="line"/>
      <point x="280" y="138" type="line"/>
      <point x="280" y="1040" type="line"/>
      <point x="325" y="1040" type="line"/>
      <point x="325" y="138" type="line"/>
      <point x="325" y="0" type="line"/>
      <point x="325" y="-210" type="line" smooth="yes"/>
      <point x="325" y="-380"/>
      <point x="238" y="-450"/>
      <point x="88" y="-450" type="curve" smooth="yes"/>
      <point x="60" y="-450"/>
      <point x="30" y="-443"/>
      <point x="5" y="-426" type="curve"/>
    </contour>
  </outline>
</glyph>
<glyph name="uni0262" format="2">
  <advance width="1101"/>
  <unicode hex="0262"/>
  <outline>
    <contour>
      <point x="922" y="766" type="line"/>
      <point x="846" y="932"/>
      <point x="698" y="1010"/>
      <point x="578" y="1010" type="curve" smooth="yes"/>
      <point x="410" y="1010"/>
      <point x="185" y="856"/>
      <point x="185" y="520" type="curve" smooth="yes"/>
      <point x="185" y="184"/>
      <point x="410" y="30"/>
      <point x="578" y="30" type="curve" smooth="yes"/>
      <point x="698" y="30"/>
      <point x="846" y="108"/>
      <point x="922" y="274" type="curve"/>
      <point x="942" y="214" type="line"/>
      <point x="864" y="74"/>
      <point x="732" y="-10"/>
      <point x="578" y="-10" type="curve" smooth="yes"/>
      <point x="331" y="-10"/>
      <point x="140" y="208"/>
      <point x="140" y="520" type="curve" smooth="yes"/>
      <point x="140" y="832"/>
      <point x="331" y="1050"/>
      <point x="578" y="1050" type="curve" smooth="yes"/>
      <point x="745" y="1050"/>
      <point x="887" y="950"/>
      <point x="961" y="788" type="curve"/>
    </contour>
    <contour>
      <point x="916" y="217" type="line"/>
      <point x="916" y="483" type="line"/>
      <point x="548" y="483" type="line"/>
      <point x="548" y="523" type="line"/>
      <point x="961" y="523" type="line"/>
      <point x="961" y="0" type="line"/>
      <point x="918" y="0" type="line"/>
      <point x="918" y="192" type="line"/>
    </contour>
  </outline>
</glyph>
<glyph name="uni0264" format="2">
  <advance width="998"/>
  <unicode hex="0264"/>
  <outline>
    <contour>
      <point x="715" y="335" type="line"/>
      <point x="733" y="305"/>
      <point x="749" y="273"/>
      <point x="749" y="213" type="curve" smooth="yes"/>
      <point x="749" y="83"/>
      <point x="657" y="-10"/>
      <point x="499" y="-10" type="curve" smooth="yes"/>
      <point x="341" y="-10"/>
      <point x="249" y="83"/>
      <point x="249" y="213" type="curve" smooth="yes"/>
      <point x="249" y="273"/>
      <point x="271" y="305"/>
      <point x="289" y="335" type="curve"/>
      <point x="471" y="582" type="line"/>
      <point x="120" y="1040" type="line"/>
      <point x="172" y="1040" type="line"/>
      <point x="499" y="612" type="line"/>
      <point x="826" y="1040" type="line"/>
      <point x="878" y="1040" type="line"/>
      <point x="527" y="582" type="line"/>
    </contour>
    <contour>
      <point x="658" y="347" type="curve"/>
      <point x="499" y="552" type="line"/>
      <point x="346" y="347" type="line"/>
      <point x="313" y="300"/>
      <point x="294" y="277"/>
      <point x="294" y="213" type="curve" smooth="yes"/>
      <point x="294" y="115"/>
      <point x="369" y="30"/>
      <point x="499" y="30" type="curve" smooth="yes"/>
      <point x="629" y="30"/>
      <point x="704" y="115"/>
      <point x="704" y="213" type="curve" smooth="yes"/>
      <point x="704" y="277"/>
      <point x="691" y="300"/>
    </contour>
  </outline>
</glyph>
<glyph name="uni026A" format="2">
  <advance width="723"/>
  <unicode hex="026A"/>
  <outline>
    <contour>
      <point x="180" y="1040" type="line"/>
      <point x="543" y="1040" type="line"/>
      <point x="543" y="1000" type="line"/>
      <point x="384" y="1000" type="line"/>
      <point x="384" y="40" type="line"/>
      <point x="543" y="40" type="line"/>
      <point x="543" y="0" type="line"/>
      <point x="180" y="0" type="line"/>
      <point x="180" y="40" type="line"/>
      <point x="339" y="40" type="line"/>
      <point x="339" y="1000" type="line"/>
      <point x="180" y="1000" type="line"/>
    </contour>
  </outline>
</glyph>
<glyph name="uni026E" format="2">
  <advance width="1453"/>
  <unicode hex="026E"/>
  <note>It's literally 2 glyphs touching each other</note>
  <outline>
    <contour>
      <point x="808" y="318" type="line"/>
      <point x="778" y="356" type="line"/>
      <point x="1247" y="1040" type="line"/>
      <point x="1277" y="1002" type="line"/>
    </contour>
    <contour>
      <point x="1313" y="-50" type="curve" smooth="yes"/>
      <point x="1313" y="-293"/>
      <point x="1126" y="-450"/>
      <point x="862" y="-450" type="curve" smooth="yes"/>
      <point x="601" y="-450"/>
      <point x="422" y="-297"/>
      <point x="417" y="-59" type="curve"/>
      <point x="463" y="-46" type="line" smooth="yes"/>
      <point x="463" y="-279"/>
      <point x="637" y="-408"/>
      <point x="862" y="-408" type="curve" smooth="yes"/>
      <point x="1087" y="-408"/>
      <point x="1267" y="-283"/>
      <point x="1267" y="-50" type="curve" smooth="yes"/>
      <point x="1267" y="183"/>
      <point x="1048" y="316"/>
      <point x="862" y="316" type="curve"/>
      <point x="812" y="316"/>
      <point x="778" y="316"/>
      <point x="778" y="316" type="curve"/>
      <point x="778" y="356" type="line"/>
      <point x="778" y="356"/>
      <point x="812" y="362"/>
      <point x="862" y="362" type="curve"/>
      <point x="1078" y="362"/>
      <point x="1313" y="193"/>
    </contour>
    <contour>
      <point x="213" y="1040" type="line"/>
      <point x="1277" y="1040" type="line"/>
      <point x="1277" y="1002" type="line"/>
      <point x="1252" y="998" type="line"/>
      <point x="213" y="998" type="line"/>
    </contour>
    <contour>
      <point x="489" y="56" type="curve"/>
      <point x="500" y="14" type="line"/>
      <point x="475" y="-3"/>
      <point x="445" y="-10"/>
      <point x="417" y="-10" type="curve" smooth="yes"/>
      <point x="267" y="-10"/>
      <point x="180" y="60"/>
      <point x="180" y="230" type="curve" smooth="yes"/>
      <point x="180" y="440" type="line"/>
      <point x="180" y="578" type="line"/>
      <point x="180" y="1480" type="line"/>
      <point x="225" y="1480" type="line"/>
      <point x="225" y="578" type="line"/>
      <point x="225" y="440" type="line"/>
      <point x="225" y="230" type="line" smooth="yes"/>
      <point x="225" y="40"/>
      <point x="364" y="30"/>
      <point x="417" y="30" type="curve" smooth="yes"/>
      <point x="431" y="30"/>
      <point x="458" y="36"/>
    </contour>
  </outline>
</glyph>
<glyph name="uni0272" format="2">
  <advance width="1227"/>
  <unicode hex="0272"/>
  <outline>
    <contour>
      <point x="322" y="0" type="curve" smooth="yes"/>
      <point x="322" y="572" type="line" smooth="yes"/>
      <point x="322" y="791"/>
      <point x="392" y="1010"/>
      <point x="662" y="1010" type="curve" smooth="yes"/>
      <point x="932" y="1010"/>
      <point x="1002" y="791"/>
      <point x="1002" y="572" type="curve" smooth="yes"/>
      <point x="1002" y="0" type="line"/>
      <point x="1047" y="0" type="line"/>
      <point x="1047" y="572" type="line"/>
      <point x="1047" y="892"/>
      <point x="910" y="1050"/>
      <point x="672" y="1050" type="curve" smooth="yes"/>
      <point x="442" y="1050"/>
      <point x="359" y="927"/>
      <point x="322" y="820" type="curve"/>
      <point x="322" y="1040" type="line"/>
      <point x="277" y="1040" type="line"/>
      <point x="277" y="0" type="line" smooth="yes"/>
      <point x="277" y="-155"/>
      <point x="167" y="-270"/>
      <point x="12" y="-270" type="curve" smooth="yes"/>
      <point x="8" y="-270"/>
      <point x="4" y="-270"/>
      <point x="0" y="-269" type="curve"/>
      <point x="0" y="-309" type="line"/>
      <point x="4" y="-310"/>
      <point x="8" y="-310"/>
      <point x="12" y="-310" type="curve" smooth="yes"/>
      <point x="190" y="-310"/>
      <point x="322" y="-178"/>
    </contour>
  </outline>
</glyph>
<glyph name="uni0275" format="2">
  <advance width="1156"/>
  <unicode hex="0275"/>
  <anchor x="667" y="0" name="bottom_right"/>
  <anchor x="974" y="1040" name="top_right"/>
  <anchor x="578" y="0" name="bottom_center"/>
  <anchor x="578" y="1040" name="top_center"/>
  <outline>
    <contour>
      <point x="165" y="540" type="line"/>
      <point x="999" y="540" type="line"/>
      <point x="999" y="500" type="line"/>
      <point x="165" y="500" type="line"/>
    </contour>
    <contour>
      <point x="185" y="520" type="curve" smooth="yes"/>
      <point x="185" y="184"/>
      <point x="410" y="30"/>
      <point x="578" y="30" type="curve" smooth="yes"/>
      <point x="746" y="30"/>
      <point x="971" y="184"/>
      <point x="971" y="520" type="curve" smooth="yes"/>
      <point x="971" y="856"/>
      <point x="746" y="1010"/>
      <point x="578" y="1010" type="curve" smooth="yes"/>
      <point x="410" y="1010"/>
      <point x="185" y="856"/>
    </contour>
    <contour>
      <point x="140" y="520" type="curve" smooth="yes"/>
      <point x="140" y="832"/>
      <point x="331" y="1050"/>
      <point x="578" y="1050" type="curve" smooth="yes"/>
      <point x="825" y="1050"/>
      <point x="1016" y="832"/>
      <point x="1016" y="520" type="curve" smooth="yes"/>
      <point x="1016" y="208"/>
      <point x="825" y="-10"/>
      <point x="578" y="-10" type="curve" smooth="yes"/>
      <point x="331" y="-10"/>
      <point x="140" y="208"/>
    </contour>
  </outline>
</glyph>
<glyph name="uni0276" format="2">
  <advance width="1805"/>
  <unicode hex="0276"/>
  <outline>
    <contour>
      <point x="1567" y="540" type="line"/>
      <point x="1567" y="500" type="line"/>
      <point x="1054" y="500" type="line"/>
      <point x="1054" y="40" type="line"/>
      <point x="1625" y="40" type="line"/>
      <point x="1625" y="0" type="line"/>
      <point x="1009" y="0" type="line"/>
      <point x="1009" y="1040" type="line"/>
      <point x="1625" y="1040" type="line"/>
      <point x="1625" y="1000" type="line"/>
      <point x="1054" y="1000" type="line"/>
      <point x="1054" y="540" type="line"/>
    </contour>
    <contour>
      <point x="140" y="520" type="curve" smooth="yes"/>
      <point x="140" y="826"/>
      <point x="337" y="1050"/>
      <point x="597" y="1050" type="curve" smooth="yes"/>
      <point x="857" y="1050"/>
      <point x="1054" y="826"/>
      <point x="1054" y="520" type="curve" smooth="yes"/>
      <point x="1054" y="214"/>
      <point x="857" y="-10"/>
      <point x="597" y="-10" type="curve" smooth="yes"/>
      <point x="337" y="-10"/>
      <point x="140" y="214"/>
    </contour>
    <contour>
      <point x="185" y="520" type="curve" smooth="yes"/>
      <point x="185" y="247"/>
      <point x="357" y="30"/>
      <point x="597" y="30" type="curve" smooth="yes"/>
      <point x="837" y="30"/>
      <point x="1009" y="247"/>
      <point x="1009" y="520" type="curve" smooth="yes"/>
      <point x="1009" y="793"/>
      <point x="837" y="1010"/>
      <point x="597" y="1010" type="curve" smooth="yes"/>
      <point x="357" y="1010"/>
      <point x="185" y="793"/>
    </contour>
  </outline>
</glyph>
<glyph name="uni027B" format="2">
  <advance width="874"/>
  <unicode hex="027B"/>
  <outline>
    <contour>
      <point x="552" y="0" type="curve" smooth="yes"/>
      <point x="552" y="220" type="line"/>
      <point x="515" y="113"/>
      <point x="432" y="-10"/>
      <point x="202" y="-10" type="curve" smooth="yes"/>
      <point x="158" y="-10"/>
      <point x="107" y="5"/>
      <point x="70" y="26" type="curve"/>
      <point x="91" y="68" type="line"/>
      <point x="126" y="46"/>
      <point x="166" y="30"/>
      <point x="212" y="30" type="curve" smooth="yes"/>
      <point x="482" y="30"/>
      <point x="552" y="249"/>
      <point x="552" y="468" type="curve" smooth="yes"/>
      <point x="552" y="1480" type="line"/>
      <point x="597" y="1480" type="line"/>
      <point x="597" y="0" type="line" smooth="yes"/>
      <point x="597" y="-155"/>
      <point x="707" y="-270"/>
      <point x="862" y="-270" type="curve" smooth="yes"/>
      <point x="866" y="-270"/>
      <point x="870" y="-270"/>
      <point x="874" y="-269" type="curve"/>
      <point x="874" y="-309" type="line"/>
      <point x="870" y="-310"/>
      <point x="866" y="-310"/>
      <point x="862" y="-310" type="curve" smooth="yes"/>
      <point x="684" y="-310"/>
      <point x="552" y="-178"/>
    </contour>
  </outline>
</glyph>
<glyph name="uni027C" format="2">
  <advance width="777"/>
  <unicode hex="027C"/>
  <outline>
    <contour>
      <point x="686" y="972" type="line"/>
      <point x="651" y="994"/>
      <point x="611" y="1010"/>
      <point x="565" y="1010" type="curve" smooth="yes"/>
      <point x="295" y="1010"/>
      <point x="225" y="791"/>
      <point x="225" y="572" type="curve" smooth="yes"/>
      <point x="225" y="-440" type="line"/>
      <point x="180" y="-440" type="line"/>
      <point x="180" y="1040" type="line"/>
      <point x="225" y="1040" type="line"/>
      <point x="225" y="820" type="line"/>
      <point x="262" y="927"/>
      <point x="345" y="1050"/>
      <point x="575" y="1050" type="curve" smooth="yes"/>
      <point x="619" y="1050"/>
      <point x="670" y="1035"/>
      <point x="707" y="1014" type="curve"/>
    </contour>
  </outline>
</glyph>
<glyph name="uni0280" format="2">
  <advance width="988"/>
  <unicode hex="0280"/>
  <outline>
    <contour>
      <point x="180" y="0" type="line"/>
      <point x="180" y="1040" type="line"/>
      <point x="513" y="1040" type="line" smooth="yes"/>
      <point x="703" y="1040"/>
      <point x="848" y="921"/>
      <point x="848" y="732" type="curve" smooth="yes"/>
      <point x="848" y="561"/>
      <point x="729" y="447"/>
      <point x="565" y="427" type="curve"/>
      <point x="880" y="0" type="line"/>
      <point x="824" y="0" type="line"/>
      <point x="513" y="424" type="line"/>
      <point x="225" y="424" type="line"/>
      <point x="225" y="0" type="line"/>
    </contour>
    <contour>
      <point x="225" y="1000" type="line"/>
      <point x="225" y="464" type="line"/>
      <point x="513" y="464" type="line" smooth="yes"/>
      <point x="673" y="464"/>
      <point x="803" y="572"/>
      <point x="803" y="732" type="curve" smooth="yes"/>
      <point x="803" y="892"/>
      <point x="673" y="1000"/>
      <point x="513" y="1000" type="curve" smooth="yes"/>
    </contour>
  </outline>
</glyph>
<glyph name="uni0282" format="2">
  <advance width="1002"/>
  <unicode hex="0282"/>
  <outline>
    <contour>
      <point x="185" y="0" type="line" smooth="yes"/>
      <point x="185" y="-155"/>
      <point x="295" y="-270"/>
      <point x="450" y="-270" type="curve" smooth="yes"/>
      <point x="454" y="-270"/>
      <point x="458" y="-270"/>
      <point x="462" y="-269" type="curve"/>
      <point x="462" y="-309" type="line"/>
      <point x="458" y="-310"/>
      <point x="454" y="-310"/>
      <point x="450" y="-310" type="curve" smooth="yes"/>
      <point x="272" y="-310"/>
      <point x="140" y="-178"/>
      <point x="140" y="0" type="curve" smooth="yes"/>
      <point x="140" y="253" type="line"/>
      <point x="185" y="180" type="line"/>
    </contour>
    <contour>
      <point x="220" y="780" type="curve" smooth="yes"/>
      <point x="220" y="600"/>
      <point x="377" y="580"/>
      <point x="505" y="546" type="curve" smooth="yes"/>
      <point x="711" y="492"/>
      <point x="862" y="457"/>
      <point x="862" y="261" type="curve" smooth="yes"/>
      <point x="862" y="85"/>
      <point x="707" y="-10"/>
      <point x="505" y="-10" type="curve" smooth="yes"/>
      <point x="303" y="-10"/>
      <point x="174" y="108"/>
      <point x="140" y="253" type="curve"/>
      <point x="178" y="275" type="line"/>
      <point x="218" y="105"/>
      <point x="373" y="30"/>
      <point x="505" y="30" type="curve" smooth="yes"/>
      <point x="637" y="30"/>
      <point x="817" y="91"/>
      <point x="817" y="261" type="curve" smooth="yes"/>
      <point x="817" y="441"/>
      <point x="633" y="466"/>
      <point x="505" y="500" type="curve" smooth="yes"/>
      <point x="299" y="554"/>
      <point x="175" y="595"/>
      <point x="175" y="780" type="curve" smooth="yes"/>
      <point x="175" y="935"/>
      <point x="312" y="1050"/>
      <point x="505" y="1050" type="curve" smooth="yes"/>
      <point x="698" y="1050"/>
      <point x="810" y="953"/>
      <point x="844" y="808" type="curve"/>
      <point x="806" y="786" type="line"/>
      <point x="763" y="964"/>
      <point x="621" y="1010"/>
      <point x="505" y="1010" type="curve" smooth="yes"/>
      <point x="389" y="1010"/>
      <point x="220" y="950"/>
    </contour>
  </outline>
</glyph>
<glyph name="uni0288" format="2">
  <advance width="735"/>
  <unicode hex="0288"/>
  <outline>
    <contour>
      <point x="314" y="0" type="curve" smooth="yes"/>
      <point x="314" y="1000" type="line"/>
      <point x="70" y="1000" type="line"/>
      <point x="70" y="1040" type="line"/>
      <point x="148" y="1040" type="line"/>
      <point x="298" y="1040"/>
      <point x="314" y="1056"/>
      <point x="314" y="1206" type="curve"/>
      <point x="314" y="1320" type="line"/>
      <point x="359" y="1320" type="line"/>
      <point x="359" y="1040" type="line"/>
      <point x="665" y="1040" type="line"/>
      <point x="665" y="1000" type="line"/>
      <point x="359" y="1000" type="line"/>
      <point x="359" y="0" type="line" smooth="yes"/>
      <point x="359" y="-155"/>
      <point x="469" y="-270"/>
      <point x="624" y="-270" type="curve" smooth="yes"/>
      <point x="628" y="-270"/>
      <point x="632" y="-270"/>
      <point x="636" y="-269" type="curve"/>
      <point x="636" y="-309" type="line"/>
      <point x="632" y="-310"/>
      <point x="628" y="-310"/>
      <point x="624" y="-310" type="curve" smooth="yes"/>
      <point x="446" y="-310"/>
      <point x="314" y="-178"/>
    </contour>
  </outline>
</glyph>
<glyph name="uni0289" format="2">
  <advance width="1190"/>
  <unicode hex="0289"/>
  <outline>
    <contour>
      <point x="0" y="540" type="line"/>
      <point x="1190" y="540" type="line"/>
      <point x="1190" y="500" type="line"/>
      <point x="0" y="500" type="line"/>
    </contour>
    <contour>
      <point x="255" y="1040" type="line"/>
      <point x="255" y="468" type="line" smooth="yes"/>
      <point x="255" y="249"/>
      <point x="325" y="30"/>
      <point x="595" y="30" type="curve" smooth="yes"/>
      <point x="865" y="30"/>
      <point x="935" y="249"/>
      <point x="935" y="468" type="curve" smooth="yes"/>
      <point x="935" y="1040" type="line"/>
      <point x="980" y="1040" type="line"/>
      <point x="980" y="208" type="line"/>
      <point x="980" y="110"/>
      <point x="992" y="0"/>
      <point x="992" y="0" type="curve"/>
      <point x="947" y="0" type="line"/>
      <point x="947" y="0"/>
      <point x="935" y="110"/>
      <point x="935" y="220" type="curve"/>
      <point x="898" y="113"/>
      <point x="815" y="-10"/>
      <point x="585" y="-10" type="curve" smooth="yes"/>
      <point x="347" y="-10"/>
      <point x="210" y="148"/>
      <point x="210" y="468" type="curve"/>
      <point x="210" y="1040" type="line"/>
    </contour>
  </outline>
</glyph>
<glyph name="uni028A" format="2">
  <advance width="1156"/>
  <unicode hex="028A"/>
  <anchor x="578" y="0" name="bottom_center"/>
  <anchor x="578" y="1040" name="top_center"/>
  <outline>
    <contour>
      <point x="1016" y="1000" type="line"/>
      <point x="1016" y="1040" type="line"/>
      <point x="655" y="1040" type="line"/>
      <point x="655" y="1000" type="line"/>
    </contour>
    <contour>
      <point x="140" y="1000" type="line"/>
      <point x="501" y="1000" type="line"/>
      <point x="501" y="1040" type="line"/>
      <point x="140" y="1040" type="line"/>
    </contour>
    <contour>
      <point x="578" y="-10" type="curve" smooth="yes"/>
      <point x="825" y="-10"/>
      <point x="1016" y="208"/>
      <point x="1016" y="520" type="curve" smooth="yes"/>
      <point x="1016" y="743"/>
      <point x="918" y="918"/>
      <point x="772" y="1000" type="curve"/>
      <point x="655" y="1000" type="line"/>
      <point x="807" y="961"/>
      <point x="971" y="807"/>
      <point x="971" y="520" type="curve" smooth="yes"/>
      <point x="971" y="184"/>
      <point x="746" y="30"/>
      <point x="578" y="30" type="curve" smooth="yes"/>
      <point x="410" y="30"/>
      <point x="185" y="184"/>
      <point x="185" y="520" type="curve" smooth="yes"/>
      <point x="185" y="807"/>
      <point x="349" y="961"/>
      <point x="501" y="1000" type="curve"/>
      <point x="384" y="1000" type="line"/>
      <point x="238" y="918"/>
      <point x="140" y="743"/>
      <point x="140" y="520" type="curve" smooth="yes"/>
      <point x="140" y="208"/>
      <point x="331" y="-10"/>
    </contour>
  </outline>
</glyph>
<glyph name="uni028B" format="2">
  <advance width="1134"/>
  <unicode hex="028B"/>
  <anchor x="567" y="1040" name="top_center"/>
  <anchor x="567" y="0" name="bottom_center"/>
  <outline>
    <contour>
      <point x="909" y="740" type="curve"/>
      <point x="909" y="468" type="line" smooth="yes"/>
      <point x="909" y="249"/>
      <point x="837" y="32"/>
      <point x="567" y="32" type="curve" smooth="yes"/>
      <point x="297" y="32"/>
      <point x="225" y="249"/>
      <point x="225" y="468" type="curve" smooth="yes"/>
      <point x="225" y="1040" type="line"/>
      <point x="180" y="1040" type="line"/>
      <point x="180" y="468" type="line"/>
      <point x="180" y="148"/>
      <point x="319" y="-10"/>
      <point x="567" y="-10" type="curve" smooth="yes"/>
      <point x="815" y="-10"/>
      <point x="954" y="148"/>
      <point x="954" y="468" type="curve"/>
      <point x="954" y="740" type="line"/>
      <point x="954" y="918"/>
      <point x="821" y="1050"/>
      <point x="643" y="1050" type="curve"/>
      <point x="639" y="1050"/>
      <point x="635" y="1050"/>
      <point x="631" y="1049" type="curve"/>
      <point x="631" y="1009" type="line"/>
      <point x="635" y="1010"/>
      <point x="639" y="1010"/>
      <point x="643" y="1010" type="curve"/>
      <point x="798" y="1010"/>
      <point x="909" y="895"/>
    </contour>
  </outline>
</glyph>
<glyph name="uni028F" format="2">
  <advance width="998"/>
  <unicode hex="028F"/>
  <outline>
    <contour>
      <point x="522" y="498" type="line"/>
      <point x="522" y="0" type="line"/>
      <point x="476" y="0" type="line"/>
      <point x="476" y="498" type="line"/>
      <point x="120" y="1040" type="line"/>
      <point x="172" y="1040" type="line"/>
      <point x="499" y="550" type="line"/>
      <point x="826" y="1040" type="line"/>
      <point x="878" y="1040" type="line"/>
    </contour>
  </outline>
</glyph>
<glyph name="uni0291" format="2">
  <advance width="1042"/>
  <unicode hex="0291"/>
  <outline>
    <contour>
      <point x="831" y="0" type="line" smooth="yes"/>
      <point x="951" y="0"/>
      <point x="1042" y="91"/>
      <point x="1042" y="211" type="curve" smooth="yes"/>
      <point x="1042" y="331"/>
      <point x="952" y="422"/>
      <point x="832" y="422" type="curve" smooth="yes"/>
      <point x="482" y="422"/>
      <point x="367" y="-145"/>
      <point x="367" y="-145" type="curve"/>
      <point x="407" y="-168" type="line"/>
      <point x="407" y="-168"/>
      <point x="525" y="382"/>
      <point x="831" y="382" type="curve" smooth="yes"/>
      <point x="931" y="382"/>
      <point x="997" y="311"/>
      <point x="997" y="211" type="curve" smooth="yes"/>
      <point x="997" y="111"/>
      <point x="931" y="40"/>
      <point x="831" y="40" type="curve" smooth="yes"/>
      <point x="209" y="40" type="line"/>
      <point x="180" y="32" type="line"/>
      <point x="180" y="0" type="line"/>
    </contour>
    <contour>
      <point x="180" y="1040" type="line"/>
      <point x="180" y="1000" type="line"/>
      <point x="803" y="1000" type="line"/>
      <point x="832" y="1008" type="line"/>
      <point x="832" y="1040" type="line"/>
    </contour>
    <contour>
      <point x="232" y="40" type="line"/>
      <point x="832" y="1008" type="line"/>
      <point x="780" y="1000" type="line"/>
      <point x="180" y="32" type="line"/>
    </contour>
  </outline>
</glyph>
<glyph name="uni0293" format="2">
  <advance width="1140"/>
  <unicode hex="0293"/>
  <outline>
    <contour>
      <point x="557" y="-408" type="line" smooth="yes"/>
      <point x="782" y="-408"/>
      <point x="954" y="-283"/>
      <point x="954" y="-50" type="curve" smooth="yes"/>
      <point x="954" y="183"/>
      <point x="735" y="316"/>
      <point x="549" y="316" type="curve"/>
      <point x="499" y="316"/>
      <point x="465" y="316"/>
      <point x="465" y="316" type="curve"/>
      <point x="465" y="356" type="line"/>
      <point x="465" y="356"/>
      <point x="499" y="362"/>
      <point x="549" y="362" type="curve"/>
      <point x="765" y="362"/>
      <point x="1000" y="193"/>
      <point x="1000" y="-50" type="curve" smooth="yes"/>
      <point x="1000" y="-293"/>
      <point x="821" y="-450"/>
      <point x="557" y="-450" type="curve" smooth="yes"/>
      <point x="411" y="-450" type="line" smooth="yes"/>
      <point x="291" y="-450"/>
      <point x="200" y="-359"/>
      <point x="200" y="-239" type="curve" smooth="yes"/>
      <point x="200" y="-119"/>
      <point x="290" y="-28"/>
      <point x="410" y="-28" type="curve" smooth="yes"/>
      <point x="760" y="-28"/>
      <point x="875" y="-555"/>
      <point x="875" y="-555" type="curve"/>
      <point x="835" y="-578" type="line"/>
      <point x="835" y="-578"/>
      <point x="717" y="-68"/>
      <point x="411" y="-68" type="curve" smooth="yes"/>
      <point x="311" y="-68"/>
      <point x="245" y="-139"/>
      <point x="245" y="-239" type="curve" smooth="yes"/>
      <point x="245" y="-339"/>
      <point x="311" y="-408"/>
      <point x="411" y="-408" type="curve" smooth="yes"/>
    </contour>
    <contour>
      <point x="507" y="335" type="line"/>
      <point x="465" y="356" type="line"/>
      <point x="934" y="1040" type="line"/>
      <point x="964" y="1002" type="line"/>
    </contour>
    <contour>
      <point x="140" y="1040" type="line"/>
      <point x="964" y="1040" type="line"/>
      <point x="964" y="1002" type="line"/>
      <point x="939" y="998" type="line"/>
      <point x="140" y="998" type="line"/>
    </contour>
  </outline>
</glyph>
<glyph name="uni0296" format="2">
  <advance width="1152"/>
  <unicode hex="0296"/>
  <outline>
    <contour>
      <point x="551" y="1480" type="line"/>
      <point x="597" y="1480" type="line"/>
      <point x="597" y="1008" type="line"/>
      <point x="551" y="1008" type="line"/>
    </contour>
    <contour>
      <point x="574" y="1050" type="line" smooth="yes"/>
      <point x="821" y="1050"/>
      <point x="1012" y="832"/>
      <point x="1012" y="520" type="curve" smooth="yes"/>
      <point x="1012" y="208"/>
      <point x="838" y="-10"/>
      <point x="574" y="-10" type="curve" smooth="yes"/>
      <point x="336" y="-10"/>
      <point x="167" y="174"/>
      <point x="140" y="448" type="curve"/>
      <point x="186" y="461" type="line"/>
      <point x="191" y="250"/>
      <point x="336" y="32"/>
      <point x="574" y="32" type="curve" smooth="yes"/>
      <point x="812" y="32"/>
      <point x="966" y="240"/>
      <point x="966" y="520" type="curve" smooth="yes"/>
      <point x="966" y="800"/>
      <point x="792" y="1008"/>
      <point x="574" y="1008" type="curve" smooth="yes"/>
    </contour>
  </outline>
</glyph>
<glyph name="uni0299" format="2">
  <advance width="996"/>
  <unicode hex="0299"/>
  <anchor x="483" y="0" name="bottom_center"/>
  <anchor x="483" y="1040" name="top_center"/>
  <outline>
    <contour>
      <point x="517" y="1040" type="line" smooth="yes"/>
      <point x="694" y="1040"/>
      <point x="818" y="938"/>
      <point x="818" y="784" type="curve" smooth="yes"/>
      <point x="818" y="661"/>
      <point x="748" y="580"/>
      <point x="642" y="545" type="curve"/>
      <point x="787" y="513"/>
      <point x="856" y="399"/>
      <point x="856" y="280" type="curve" smooth="yes"/>
      <point x="856" y="110"/>
      <point x="716" y="0"/>
      <point x="517" y="0" type="curve" smooth="yes"/>
      <point x="180" y="0" type="line"/>
      <point x="180" y="1040" type="line"/>
    </contour>
    <contour>
      <point x="517" y="526" type="curve" smooth="yes"/>
      <point x="225" y="526" type="line"/>
      <point x="225" y="40" type="line"/>
      <point x="517" y="40" type="line" smooth="yes"/>
      <point x="681" y="40"/>
      <point x="812" y="132"/>
      <point x="812" y="283" type="curve" smooth="yes"/>
      <point x="812" y="434"/>
      <point x="681" y="526"/>
    </contour>
    <contour>
      <point x="517" y="566" type="line" smooth="yes"/>
      <point x="658" y="566"/>
      <point x="774" y="645"/>
      <point x="774" y="783" type="curve" smooth="yes"/>
      <point x="774" y="921"/>
      <point x="658" y="1000"/>
      <point x="517" y="1000" type="curve" smooth="yes"/>
      <point x="225" y="1000" type="line"/>
      <point x="225" y="566" type="line"/>
    </contour>
  </outline>
</glyph>
<glyph name="uni029C" format="2">
  <advance width="1133"/>
  <unicode hex="029C"/>
  <outline>
    <contour>
      <point x="180" y="1040" type="line"/>
      <point x="225" y="1040" type="line"/>
      <point x="225" y="540" type="line"/>
      <point x="908" y="540" type="line"/>
      <point x="908" y="1040" type="line"/>
      <point x="953" y="1040" type="line"/>
      <point x="953" y="0" type="line"/>
      <point x="908" y="0" type="line"/>
      <point x="908" y="500" type="line"/>
      <point x="225" y="500" type="line"/>
      <point x="225" y="0" type="line"/>
      <point x="180" y="0" type="line"/>
    </contour>
  </outline>
</glyph>
<glyph name="uni02A7" format="2">
  <advance width="1173"/>
  <unicode hex="02A7"/>
  <outline>
    <contour>
      <point x="557" y="0" type="line" smooth="yes"/>
      <point x="381" y="0"/>
      <point x="314" y="100"/>
      <point x="314" y="300" type="curve" smooth="yes"/>
      <point x="314" y="1000" type="line"/>
      <point x="70" y="1000" type="line"/>
      <point x="70" y="1040" type="line"/>
      <point x="148" y="1040" type="line"/>
      <point x="298" y="1040"/>
      <point x="314" y="1056"/>
      <point x="314" y="1206" type="curve"/>
      <point x="314" y="1320" type="line"/>
      <point x="359" y="1320" type="line"/>
      <point x="359" y="1040" type="line"/>
      <point x="665" y="1040" type="line"/>
      <point x="665" y="1000" type="line"/>
      <point x="359" y="1000" type="line"/>
      <point x="359" y="300" type="line" smooth="yes"/>
      <point x="359" y="60"/>
      <point x="467" y="40"/>
      <point x="557" y="40" type="curve" smooth="yes"/>
      <point x="735" y="40" type="line"/>
      <point x="735" y="0" type="line"/>
    </contour>
    <contour>
      <point x="715" y="1180" type="line" smooth="yes"/>
      <point x="715" y="1380"/>
      <point x="782" y="1490"/>
      <point x="958" y="1490" type="curve" smooth="yes"/>
      <point x="1007" y="1490"/>
      <point x="1063" y="1476"/>
      <point x="1103" y="1458" type="curve"/>
      <point x="1089" y="1415" type="line"/>
      <point x="1050" y="1443"/>
      <point x="996" y="1450"/>
      <point x="958" y="1450" type="curve" smooth="yes"/>
      <point x="868" y="1450"/>
      <point x="760" y="1420"/>
      <point x="760" y="1180" type="curve" smooth="yes"/>
      <point x="760" y="1040" type="line"/>
      <point x="760" y="0" type="line"/>
      <point x="760" y="-140" type="line" smooth="yes"/>
      <point x="760" y="-340"/>
      <point x="693" y="-450"/>
      <point x="517" y="-450" type="curve" smooth="yes"/>
      <point x="468" y="-450"/>
      <point x="412" y="-436"/>
      <point x="372" y="-418" type="curve"/>
      <point x="386" y="-375" type="line"/>
      <point x="425" y="-403"/>
      <point x="479" y="-410"/>
      <point x="517" y="-410" type="curve" smooth="yes"/>
      <point x="607" y="-410"/>
      <point x="715" y="-380"/>
      <point x="715" y="-140" type="curve" smooth="yes"/>
      <point x="715" y="-40" type="line"/>
      <point x="715" y="1040" type="line"/>
    </contour>
  </outline>
</glyph>
<glyph name="uni02AD" format="2">
  <advance width="948"/>
  <unicode hex="02AD"/>
  <outline>
    <contour>
      <point x="763" y="1480" type="line"/>
      <point x="808" y="1480" type="line"/>
      <point x="808" y="1060" type="line"/>
      <point x="763" y="1060" type="line"/>
    </contour>
    <contour>
      <point x="140" y="1480" type="line"/>
      <point x="185" y="1480" type="line"/>
      <point x="185" y="1060" type="line"/>
      <point x="140" y="1060" type="line"/>
    </contour>
    <contour>
      <point x="185" y="1440" type="line"/>
      <point x="185" y="1480" type="line"/>
      <point x="763" y="1480" type="line"/>
      <point x="763" y="1440" type="line"/>
    </contour>
    <contour>
      <point x="763" y="420" type="line"/>
      <point x="808" y="420" type="line"/>
      <point x="808" y="0" type="line"/>
      <point x="763" y="0" type="line"/>
    </contour>
    <contour>
      <point x="140" y="420" type="line"/>
      <point x="185" y="420" type="line"/>
      <point x="185" y="0" type="line"/>
      <point x="140" y="0" type="line"/>
    </contour>
    <contour>
      <point x="185" y="380" type="line"/>
      <point x="185" y="420" type="line"/>
      <point x="763" y="420" type="line"/>
      <point x="763" y="380" type="line"/>
    </contour>
  </outline>
</glyph>
<glyph name="uni02B1" format="2">
  <advance width="678"/>
  <unicode hex="02B1"/>
  <outline>
    <contour>
      <point x="108" y="1477" type="curve"/>
      <point x="108" y="810" type="line"/>
      <point x="141" y="810" type="line"/>
      <point x="141" y="1138" type="line" smooth="yes"/>
      <point x="141" y="1264"/>
      <point x="183" y="1389"/>
      <point x="339" y="1389" type="curve" smooth="yes"/>
      <point x="495" y="1389"/>
      <point x="537" y="1264"/>
      <point x="537" y="1138" type="curve" smooth="yes"/>
      <point x="537" y="810" type="line"/>
      <point x="570" y="810" type="line"/>
      <point x="570" y="1142" type="line"/>
      <point x="570" y="1328"/>
      <point x="490" y="1419"/>
      <point x="349" y="1419" type="curve" smooth="yes"/>
      <point x="213" y="1419"/>
      <point x="163" y="1352"/>
      <point x="141" y="1288" type="curve"/>
      <point x="141" y="1477" type="line" smooth="yes"/>
      <point x="141" y="1598"/>
      <point x="252" y="1645"/>
      <point x="309" y="1645" type="curve" smooth="yes"/>
      <point x="319" y="1645"/>
      <point x="326" y="1645"/>
      <point x="336" y="1643" type="curve"/>
      <point x="336" y="1673" type="line"/>
      <point x="326" y="1674"/>
      <point x="319" y="1675"/>
      <point x="309" y="1675" type="curve" smooth="yes"/>
      <point x="197" y="1675"/>
      <point x="108" y="1586"/>
    </contour>
  </outline>
</glyph>
<glyph name="uni02B4" format="2">
  <advance width="464"/>
  <unicode hex="02B4"/>
  <outline>
    <contour>
      <point x="52" y="858" type="line"/>
      <point x="72" y="846"/>
      <point x="97" y="834"/>
      <point x="124" y="834" type="curve" smooth="yes"/>
      <point x="281" y="834"/>
      <point x="323" y="959"/>
      <point x="323" y="1085" type="curve" smooth="yes"/>
      <point x="323" y="1413" type="line"/>
      <point x="356" y="1413" type="line"/>
      <point x="356" y="811" type="line"/>
      <point x="323" y="811" type="line"/>
      <point x="323" y="935" type="line"/>
      <point x="302" y="871"/>
      <point x="252" y="804"/>
      <point x="118" y="804" type="curve" smooth="yes"/>
      <point x="92" y="804"/>
      <point x="63" y="815"/>
      <point x="42" y="831" type="curve"/>
    </contour>
  </outline>
</glyph>
<glyph name="uni02BF" format="2">
  <advance width="427"/>
  <unicode hex="02BF"/>
  <outline>
    <contour>
      <point x="307" y="1200" type="line" smooth="yes"/>
      <point x="225" y="1200"/>
      <point x="165" y="1265"/>
      <point x="165" y="1347" type="curve" smooth="yes"/>
      <point x="165" y="1429"/>
      <point x="225" y="1494"/>
      <point x="307" y="1494" type="curve" smooth="yes"/>
      <point x="307" y="1534" type="line" smooth="yes"/>
      <point x="203" y="1534"/>
      <point x="120" y="1451"/>
      <point x="120" y="1347" type="curve" smooth="yes"/>
      <point x="120" y="1243"/>
      <point x="203" y="1160"/>
      <point x="307" y="1160" type="curve" smooth="yes"/>
    </contour>
  </outline>
</glyph>
<glyph name="uni02C0" format="2">
  <advance width="545"/>
  <unicode hex="02C0"/>
  <outline>
    <contour>
      <point x="242" y="1277" type="line"/>
      <point x="286" y="1277" type="line"/>
      <point x="286" y="1156" type="line"/>
      <point x="242" y="1156" type="line"/>
    </contour>
    <contour>
      <point x="139" y="1465" type="curve"/>
      <point x="120" y="1506" type="line"/>
      <point x="120" y="1506"/>
      <point x="177" y="1553"/>
      <point x="245" y="1553" type="curve" smooth="yes"/>
      <point x="363" y="1553"/>
      <point x="425" y="1483"/>
      <point x="425" y="1393" type="curve" smooth="yes"/>
      <point x="425" y="1303"/>
      <point x="368" y="1237"/>
      <point x="264" y="1237" type="curve"/>
      <point x="264" y="1277" type="line"/>
      <point x="326" y="1277"/>
      <point x="380" y="1313"/>
      <point x="380" y="1393" type="curve" smooth="yes"/>
      <point x="380" y="1473"/>
      <point x="314" y="1513"/>
      <point x="252" y="1513" type="curve" smooth="yes"/>
      <point x="196" y="1513"/>
      <point x="139" y="1465"/>
    </contour>
  </outline>
</glyph>
<glyph name="dotaccent" format="2">
  <advance width="368"/>
  <unicode hex="02D9"/>
  <outline>
    <contour>
      <point x="120" y="1352" type="curve" smooth="yes"/>
      <point x="120" y="1388"/>
      <point x="148" y="1416"/>
      <point x="184" y="1416" type="curve" smooth="yes"/>
      <point x="220" y="1416"/>
      <point x="248" y="1388"/>
      <point x="248" y="1352" type="curve" smooth="yes"/>
      <point x="248" y="1316"/>
      <point x="220" y="1288"/>
      <point x="184" y="1288" type="curve" smooth="yes"/>
      <point x="148" y="1288"/>
      <point x="120" y="1316"/>
    </contour>
  </outline>
</glyph>
<glyph name="uni02DE" format="2">
  <advance width="699"/>
  <unicode hex="02DE"/>
  <outline>
    <contour>
      <point x="344" y="656" type="curve"/>
      <point x="384" y="686" type="line"/>
      <point x="384" y="531"/>
      <point x="452" y="438"/>
      <point x="567" y="438" type="curve" smooth="yes"/>
      <point x="571" y="438"/>
      <point x="575" y="438"/>
      <point x="579" y="439" type="curve"/>
      <point x="579" y="399" type="line"/>
      <point x="575" y="398"/>
      <point x="571" y="398"/>
      <point x="567" y="398" type="curve" smooth="yes"/>
      <point x="429" y="398"/>
      <point x="344" y="518"/>
    </contour>
    <contour>
      <point x="130" y="576" type="line"/>
      <point x="120" y="619" type="line"/>
      <point x="384" y="686" type="line"/>
      <point x="365" y="655" type="line"/>
      <point x="384" y="642" type="line"/>
    </contour>
  </outline>
</glyph>
<glyph name="uni0304" format="2">
  <advance width="0"/>
  <unicode hex="0304"/>
  <anchor x="642" y="1040" name="_top_center"/>
  <outline>
    <contour>
      <point x="374" y="1274" type="line"/>
      <point x="374" y="1314" type="line"/>
      <point x="910" y="1314" type="line"/>
      <point x="910" y="1274" type="line"/>
    </contour>
  </outline>
</glyph>
<glyph name="uni0307" format="2">
  <advance width="0"/>
  <unicode hex="0307"/>
  <anchor x="642" y="1580" name="mark_anchor_top"/>
  <anchor x="642" y="1372" name="_mark_anchor_center"/>
  <anchor x="642" y="1040" name="_top_center"/>
  <outline>
    <contour>
      <point x="578" y="1352" type="curve" smooth="yes"/>
      <point x="578" y="1388"/>
      <point x="606" y="1416"/>
      <point x="642" y="1416" type="curve" smooth="yes"/>
      <point x="678" y="1416"/>
      <point x="706" y="1388"/>
      <point x="706" y="1352" type="curve" smooth="yes"/>
      <point x="706" y="1316"/>
      <point x="678" y="1288"/>
      <point x="642" y="1288" type="curve" smooth="yes"/>
      <point x="606" y="1288"/>
      <point x="578" y="1316"/>
    </contour>
  </outline>
</glyph>
<glyph name="uni0308" format="2">
  <advance width="0"/>
  <unicode hex="0308"/>
  <anchor x="642" y="1040" name="_mkmk_top_center"/>
  <anchor x="642" y="1376" name="mkmk_top_center"/>
  <anchor x="642" y="1040" name="_top_center"/>
  <outline>
    <contour>
      <point x="737" y="1426" type="curve" smooth="yes"/>
      <point x="737" y="1462"/>
      <point x="765" y="1490"/>
      <point x="801" y="1490" type="curve" smooth="yes"/>
      <point x="837" y="1490"/>
      <point x="865" y="1462"/>
      <point x="865" y="1426" type="curve" smooth="yes"/>
      <point x="865" y="1390"/>
      <point x="837" y="1362"/>
      <point x="801" y="1362" type="curve" smooth="yes"/>
      <point x="765" y="1362"/>
      <point x="737" y="1390"/>
    </contour>
    <contour>
      <point x="417" y="1426" type="curve" smooth="yes"/>
      <point x="417" y="1462"/>
      <point x="445" y="1490"/>
      <point x="481" y="1490" type="curve" smooth="yes"/>
      <point x="517" y="1490"/>
      <point x="545" y="1462"/>
      <point x="545" y="1426" type="curve" smooth="yes"/>
      <point x="545" y="1390"/>
      <point x="517" y="1362"/>
      <point x="481" y="1362" type="curve" smooth="yes"/>
      <point x="445" y="1362"/>
      <point x="417" y="1390"/>
    </contour>
  </outline>
</glyph>
<glyph name="hookabovecomb" format="2">
  <advance width="0"/>
  <unicode hex="0309"/>
  <anchor x="642" y="1000" name="_circumflex_right"/>
  <anchor x="642" y="1040" name="_top_center"/>
  <outline>
    <contour>
      <point x="621" y="1277" type="line"/>
      <point x="665" y="1277" type="line"/>
      <point x="665" y="1156" type="line"/>
      <point x="621" y="1156" type="line"/>
    </contour>
    <contour>
      <point x="518" y="1465" type="curve"/>
      <point x="499" y="1506" type="line"/>
      <point x="499" y="1506"/>
      <point x="556" y="1553"/>
      <point x="624" y="1553" type="curve" smooth="yes"/>
      <point x="742" y="1553"/>
      <point x="804" y="1483"/>
      <point x="804" y="1393" type="curve" smooth="yes"/>
      <point x="804" y="1303"/>
      <point x="747" y="1237"/>
      <point x="643" y="1237" type="curve"/>
      <point x="643" y="1277" type="line"/>
      <point x="705" y="1277"/>
      <point x="759" y="1313"/>
      <point x="759" y="1393" type="curve" smooth="yes"/>
      <point x="759" y="1473"/>
      <point x="693" y="1513"/>
      <point x="631" y="1513" type="curve" smooth="yes"/>
      <point x="575" y="1513"/>
      <point x="518" y="1465"/>
    </contour>
  </outline>
</glyph>
<glyph name="uni030A" format="2">
  <advance width="0"/>
  <unicode hex="030A"/>
  <anchor x="642" y="1040" name="_top_center"/>
  <outline>
    <contour>
      <point x="455" y="1347" type="curve" smooth="yes"/>
      <point x="455" y="1451"/>
      <point x="538" y="1534"/>
      <point x="642" y="1534" type="curve" smooth="yes"/>
      <point x="746" y="1534"/>
      <point x="829" y="1451"/>
      <point x="829" y="1347" type="curve" smooth="yes"/>
      <point x="829" y="1243"/>
      <point x="746" y="1160"/>
      <point x="642" y="1160" type="curve" smooth="yes"/>
      <point x="538" y="1160"/>
      <point x="455" y="1243"/>
    </contour>
    <contour>
      <point x="500" y="1347" type="curve" smooth="yes"/>
      <point x="500" y="1265"/>
      <point x="560" y="1200"/>
      <point x="642" y="1200" type="curve" smooth="yes"/>
      <point x="724" y="1200"/>
      <point x="784" y="1265"/>
      <point x="784" y="1347" type="curve" smooth="yes"/>
      <point x="784" y="1429"/>
      <point x="724" y="1494"/>
      <point x="642" y="1494" type="curve" smooth="yes"/>
      <point x="560" y="1494"/>
      <point x="500" y="1429"/>
    </contour>
  </outline>
</glyph>
<glyph name="uni030B" format="2">
  <advance width="0"/>
  <unicode hex="030B"/>
  <anchor x="642" y="1040" name="_top_center"/>
  <outline>
    <contour>
      <point x="758" y="1224" type="line"/>
      <point x="714" y="1224" type="line"/>
      <point x="900" y="1480" type="line"/>
      <point x="956" y="1480" type="line"/>
    </contour>
    <contour>
      <point x="516" y="1224" type="line"/>
      <point x="472" y="1224" type="line"/>
      <point x="658" y="1480" type="line"/>
      <point x="714" y="1480" type="line"/>
    </contour>
  </outline>
</glyph>
<glyph name="uni030F" format="2">
  <advance width="0"/>
  <unicode hex="030F"/>
  <anchor x="642" y="1144" name="_mkmk_top_center"/>
  <anchor x="642" y="1480" name="mkmk_top_center"/>
  <anchor x="642" y="1040" name="_top_center"/>
  <outline>
    <contour>
      <point x="526" y="1224" type="line"/>
      <point x="570" y="1224" type="line"/>
      <point x="384" y="1480" type="line"/>
      <point x="328" y="1480" type="line"/>
    </contour>
    <contour>
      <point x="768" y="1224" type="line"/>
      <point x="812" y="1224" type="line"/>
      <point x="626" y="1480" type="line"/>
      <point x="570" y="1480" type="line"/>
    </contour>
  </outline>
</glyph>
<glyph name="uni0311" format="2">
  <advance width="0"/>
  <unicode hex="0311"/>
  <anchor x="642" y="1144" name="_mkmk_top_center"/>
  <anchor x="642" y="1480" name="mkmk_top_center"/>
  <anchor x="642" y="1040" name="_top_center"/>
  <outline>
    <contour>
      <point x="642" y="1490" type="curve" smooth="yes"/>
      <point x="510" y="1490"/>
      <point x="396" y="1374"/>
      <point x="396" y="1234" type="curve"/>
      <point x="441" y="1234" type="line"/>
      <point x="441" y="1360"/>
      <point x="532" y="1450"/>
      <point x="642" y="1450" type="curve" smooth="yes"/>
      <point x="752" y="1450"/>
      <point x="843" y="1360"/>
      <point x="843" y="1234" type="curve"/>
      <point x="888" y="1234" type="line"/>
      <point x="888" y="1374"/>
      <point x="774" y="1490"/>
    </contour>
  </outline>
</glyph>
<glyph name="uni0312" format="2">
  <advance width="0"/>
  <unicode hex="0312"/>
  <anchor x="642" y="1040" name="_top_center"/>
  <outline>
    <contour>
      <point x="706" y="1256" type="curve" smooth="yes"/>
      <point x="706" y="1220"/>
      <point x="678" y="1192"/>
      <point x="642" y="1192" type="curve" smooth="yes"/>
      <point x="606" y="1192"/>
      <point x="578" y="1220"/>
      <point x="578" y="1256" type="curve" smooth="yes"/>
      <point x="578" y="1292"/>
      <point x="606" y="1320"/>
      <point x="642" y="1320" type="curve" smooth="yes"/>
      <point x="678" y="1320"/>
      <point x="706" y="1292"/>
    </contour>
    <contour>
      <point x="706" y="1514" type="line"/>
      <point x="656" y="1501"/>
      <point x="589" y="1440"/>
      <point x="589" y="1350" type="curve" smooth="yes"/>
      <point x="589" y="1270"/>
      <point x="642" y="1237"/>
      <point x="642" y="1237" type="curve"/>
      <point x="642" y="1192" type="line"/>
      <point x="580" y="1192"/>
      <point x="543" y="1270"/>
      <point x="543" y="1350" type="curve" smooth="yes"/>
      <point x="543" y="1460"/>
      <point x="626" y="1536"/>
      <point x="694" y="1556" type="curve"/>
    </contour>
  </outline>
</glyph>
<glyph name="dotbelowcomb" format="2">
  <advance width="0"/>
  <unicode hex="0323"/>
  <anchor x="642" y="0" name="_bottom_center"/>
  <outline>
    <contour>
      <point x="578" y="-386" type="curve" smooth="yes"/>
      <point x="578" y="-350"/>
      <point x="606" y="-322"/>
      <point x="642" y="-322" type="curve" smooth="yes"/>
      <point x="678" y="-322"/>
      <point x="706" y="-350"/>
      <point x="706" y="-386" type="curve" smooth="yes"/>
      <point x="706" y="-422"/>
      <point x="678" y="-450"/>
      <point x="642" y="-450" type="curve" smooth="yes"/>
      <point x="606" y="-450"/>
      <point x="578" y="-422"/>
    </contour>
  </outline>
</glyph>
<glyph name="uni0324" format="2">
  <advance width="0"/>
  <unicode hex="0324"/>
  <anchor x="642" y="0" name="_bottom_center"/>
  <outline>
    <contour>
      <point x="737" y="-258" type="curve" smooth="yes"/>
      <point x="737" y="-222"/>
      <point x="765" y="-194"/>
      <point x="801" y="-194" type="curve" smooth="yes"/>
      <point x="837" y="-194"/>
      <point x="865" y="-222"/>
      <point x="865" y="-258" type="curve" smooth="yes"/>
      <point x="865" y="-294"/>
      <point x="837" y="-322"/>
      <point x="801" y="-322" type="curve" smooth="yes"/>
      <point x="765" y="-322"/>
      <point x="737" y="-294"/>
    </contour>
    <contour>
      <point x="417" y="-258" type="curve" smooth="yes"/>
      <point x="417" y="-222"/>
      <point x="445" y="-194"/>
      <point x="481" y="-194" type="curve" smooth="yes"/>
      <point x="517" y="-194"/>
      <point x="545" y="-222"/>
      <point x="545" y="-258" type="curve" smooth="yes"/>
      <point x="545" y="-294"/>
      <point x="517" y="-322"/>
      <point x="481" y="-322" type="curve" smooth="yes"/>
      <point x="445" y="-322"/>
      <point x="417" y="-294"/>
    </contour>
  </outline>
</glyph>
<glyph name="uni0328" format="2">
  <advance width="61"/>
  <unicode hex="0328"/>
  <anchor x="627" y="0" name="_bottom_right"/>
  <outline>
    <contour>
      <point x="668" y="-282" type="curve"/>
      <point x="689" y="-316" type="line"/>
      <point x="679" y="-327"/>
      <point x="612" y="-370"/>
      <point x="556" y="-370" type="curve" smooth="yes"/>
      <point x="468" y="-370"/>
      <point x="409" y="-320"/>
      <point x="409" y="-230" type="curve" smooth="yes"/>
      <point x="409" y="-110"/>
      <point x="554" y="-11"/>
      <point x="602" y="25" type="curve"/>
      <point x="627" y="0" type="line"/>
      <point x="532" y="-78"/>
      <point x="454" y="-153"/>
      <point x="454" y="-230" type="curve" smooth="yes"/>
      <point x="454" y="-266"/>
      <point x="474" y="-330"/>
      <point x="556" y="-330" type="curve" smooth="yes"/>
      <point x="608" y="-330"/>
      <point x="662" y="-290"/>
    </contour>
  </outline>
</glyph>
<glyph name="uni032D" format="2">
  <advance width="0"/>
  <unicode hex="032D"/>
  <anchor x="642" y="0" name="_bottom_center"/>
  <outline>
    <contour>
      <point x="812" y="-440" type="line"/>
      <point x="614" y="-184" type="line"/>
      <point x="670" y="-184" type="line"/>
      <point x="856" y="-440" type="line"/>
    </contour>
    <contour>
      <point x="472" y="-440" type="line"/>
      <point x="428" y="-440" type="line"/>
      <point x="614" y="-184" type="line"/>
      <point x="670" y="-184" type="line"/>
    </contour>
  </outline>
</glyph>
<glyph name="uni032F" format="2">
  <advance width="0"/>
  <unicode hex="032F"/>
  <anchor x="642" y="0" name="_bottom_center"/>
  <outline>
    <contour>
      <point x="642" y="-184" type="curve" smooth="yes"/>
      <point x="510" y="-184"/>
      <point x="396" y="-300"/>
      <point x="396" y="-440" type="curve"/>
      <point x="441" y="-440" type="line"/>
      <point x="441" y="-314"/>
      <point x="532" y="-224"/>
      <point x="642" y="-224" type="curve" smooth="yes"/>
      <point x="752" y="-224"/>
      <point x="843" y="-314"/>
      <point x="843" y="-440" type="curve"/>
      <point x="888" y="-440" type="line"/>
      <point x="888" y="-300"/>
      <point x="774" y="-184"/>
    </contour>
  </outline>
</glyph>
<glyph name="uni0337" format="2">
  <advance width="0"/>
  <unicode hex="0337"/>
  <anchor x="642" y="740" name="_middle_center"/>
  <outline>
    <contour>
      <point x="1048" y="1086" type="line"/>
      <point x="1079" y="1060" type="line"/>
      <point x="230" y="-46" type="line"/>
      <point x="199" y="-21" type="line"/>
    </contour>
  </outline>
</glyph>
<glyph name="uni0342" format="2">
  <advance width="0"/>
  <unicode hex="0342"/>
  <anchor x="642" y="1040" name="_top_center"/>
  <outline>
    <contour>
      <point x="381" y="1241" type="curve"/>
      <point x="341" y="1252" type="line"/>
      <point x="355" y="1388"/>
      <point x="415" y="1490"/>
      <point x="510" y="1490" type="curve" smooth="yes"/>
      <point x="650" y="1490"/>
      <point x="658" y="1274"/>
      <point x="766" y="1274" type="curve" smooth="yes"/>
      <point x="818" y="1274"/>
      <point x="885" y="1330"/>
      <point x="895" y="1480" type="curve"/>
      <point x="935" y="1469" type="line"/>
      <point x="921" y="1333"/>
      <point x="861" y="1234"/>
      <point x="766" y="1234" type="curve" smooth="yes"/>
      <point x="626" y="1234"/>
      <point x="618" y="1450"/>
      <point x="510" y="1450" type="curve" smooth="yes"/>
      <point x="458" y="1450"/>
      <point x="391" y="1391"/>
    </contour>
  </outline>
</glyph>
<glyph name="uni0343" format="2">
  <advance width="0"/>
  <unicode hex="0343"/>
  <anchor x="642" y="1436" name="mkmk_top_center"/>
  <anchor x="642" y="1040" name="_mkmk_top_center"/>
  <anchor x="642" y="1040" name="_top_center"/>
  <outline>
    <contour>
      <point x="578" y="1490" type="curve" smooth="yes"/>
      <point x="578" y="1526"/>
      <point x="606" y="1554"/>
      <point x="642" y="1554" type="curve" smooth="yes"/>
      <point x="678" y="1554"/>
      <point x="706" y="1526"/>
      <point x="706" y="1490" type="curve" smooth="yes"/>
      <point x="706" y="1454"/>
      <point x="678" y="1426"/>
      <point x="642" y="1426" type="curve" smooth="yes"/>
      <point x="606" y="1426"/>
      <point x="578" y="1454"/>
    </contour>
    <contour>
      <point x="578" y="1232" type="line"/>
      <point x="628" y="1245"/>
      <point x="695" y="1306"/>
      <point x="695" y="1396" type="curve" smooth="yes"/>
      <point x="695" y="1476"/>
      <point x="642" y="1509"/>
      <point x="642" y="1509" type="curve"/>
      <point x="642" y="1554" type="line"/>
      <point x="704" y="1554"/>
      <point x="741" y="1476"/>
      <point x="741" y="1396" type="curve" smooth="yes"/>
      <point x="741" y="1286"/>
      <point x="658" y="1210"/>
      <point x="590" y="1190" type="curve"/>
    </contour>
  </outline>
</glyph>
<glyph name="uni0357" format="2">
  <advance width="0"/>
  <unicode hex="0357"/>
  <anchor x="642" y="1040" name="_top_center"/>
  <outline>
    <contour>
      <point x="642" y="1200" type="line" smooth="yes"/>
      <point x="724" y="1200"/>
      <point x="784" y="1265"/>
      <point x="784" y="1347" type="curve" smooth="yes"/>
      <point x="784" y="1429"/>
      <point x="724" y="1494"/>
      <point x="642" y="1494" type="curve" smooth="yes"/>
      <point x="642" y="1534" type="line" smooth="yes"/>
      <point x="746" y="1534"/>
      <point x="829" y="1451"/>
      <point x="829" y="1347" type="curve" smooth="yes"/>
      <point x="829" y="1243"/>
      <point x="746" y="1160"/>
      <point x="642" y="1160" type="curve" smooth="yes"/>
    </contour>
  </outline>
</glyph>
<glyph name="uni0370" format="2">
  <advance width="1092"/>
  <unicode hex="0370"/>
  <outline>
    <contour>
      <point x="226" y="168" type="line"/>
      <point x="226" y="0" type="line"/>
      <point x="180" y="0" type="line"/>
      <point x="180" y="1480" type="line"/>
      <point x="226" y="1480" type="line"/>
      <point x="226" y="1312" type="line"/>
      <point x="226" y="1312" type="line"/>
      <point x="226" y="761" type="line"/>
      <point x="912" y="761" type="line"/>
      <point x="912" y="719" type="line"/>
      <point x="226" y="719" type="line"/>
    </contour>
  </outline>
</glyph>
<glyph name="uni0373" format="2">
  <advance width="1081"/>
  <unicode hex="0373"/>
  <outline>
    <contour>
      <point x="856" y="820" type="line"/>
      <point x="856" y="1438" type="line"/>
      <point x="901" y="1438" type="line"/>
      <point x="901" y="820" type="line"/>
    </contour>
    <contour>
      <point x="180" y="820" type="line"/>
      <point x="180" y="1438" type="line"/>
      <point x="225" y="1438" type="line"/>
      <point x="225" y="820" type="line"/>
    </contour>
    <contour>
      <point x="563" y="0" type="line"/>
      <point x="518" y="0" type="line"/>
      <point x="518" y="1438" type="line"/>
      <point x="180" y="1438" type="line"/>
      <point x="180" y="1480" type="line"/>
      <point x="901" y="1480" type="line"/>
      <point x="901" y="1438" type="line"/>
      <point x="563" y="1438" type="line"/>
    </contour>
  </outline>
</glyph>
<glyph name="uni0375" format="2">
  <advance width="482"/>
  <unicode hex="0375"/>
  <outline>
    <contour>
      <point x="318" y="0" type="line"/>
      <point x="362" y="0" type="line"/>
      <point x="176" y="-256" type="line"/>
      <point x="120" y="-256" type="line"/>
    </contour>
  </outline>
</glyph>
<glyph name="uni037F" format="2">
  <advance width="1136"/>
  <unicode hex="037F"/>
  <anchor x="933" y="1380" name="top_center"/>
  <anchor x="548" y="0" name="bottom_center"/>
  <outline>
    <contour>
      <point x="187" y="447" type="line"/>
      <point x="186" y="441"/>
      <point x="186" y="438"/>
      <point x="186" y="434" type="curve" smooth="yes"/>
      <point x="186" y="146"/>
      <point x="380" y="32"/>
      <point x="548" y="32" type="curve" smooth="yes"/>
      <point x="716" y="32"/>
      <point x="910" y="146"/>
      <point x="910" y="434" type="curve"/>
      <point x="910" y="1480" type="line"/>
      <point x="956" y="1480" type="line"/>
      <point x="956" y="434" type="line"/>
      <point x="956" y="154"/>
      <point x="786" y="-10"/>
      <point x="548" y="-10" type="curve" smooth="yes"/>
      <point x="310" y="-10"/>
      <point x="140" y="154"/>
      <point x="140" y="434" type="curve"/>
    </contour>
  </outline>
</glyph>
<glyph name="tonos" format="2">
  <advance width="482"/>
  <unicode hex="0384"/>
  <anchor x="142" y="1376" name="mkmk_greek_top_center"/>
  <anchor x="142" y="1040" name="_greek_t"/>
  <outline>
    <contour>
      <point x="164" y="1224" type="line"/>
      <point x="362" y="1480" type="line"/>
      <point x="306" y="1480" type="line"/>
      <point x="120" y="1224" type="line"/>
    </contour>
  </outline>
</glyph>
<glyph name="dieresistonos" format="2">
  <advance width="688"/>
  <unicode hex="0385"/>
  <anchor x="345" y="1040" name="_top_center"/>
  <outline>
    <contour>
      <point x="346" y="1436" type="line"/>
      <point x="302" y="1436" type="line"/>
      <point x="488" y="1692" type="line"/>
      <point x="544" y="1692" type="line"/>
    </contour>
    <contour>
      <point x="248" y="1416" type="curve" smooth="yes"/>
      <point x="248" y="1380"/>
      <point x="220" y="1352"/>
      <point x="184" y="1352" type="curve" smooth="yes"/>
      <point x="148" y="1352"/>
      <point x="120" y="1380"/>
      <point x="120" y="1416" type="curve" smooth="yes"/>
      <point x="120" y="1452"/>
      <point x="148" y="1480"/>
      <point x="184" y="1480" type="curve" smooth="yes"/>
      <point x="220" y="1480"/>
      <point x="248" y="1452"/>
    </contour>
    <contour>
      <point x="568" y="1416" type="curve" smooth="yes"/>
      <point x="568" y="1380"/>
      <point x="540" y="1352"/>
      <point x="504" y="1352" type="curve" smooth="yes"/>
      <point x="468" y="1352"/>
      <point x="440" y="1380"/>
      <point x="440" y="1416" type="curve" smooth="yes"/>
      <point x="440" y="1452"/>
      <point x="468" y="1480"/>
      <point x="504" y="1480" type="curve" smooth="yes"/>
      <point x="540" y="1480"/>
      <point x="568" y="1452"/>
    </contour>
  </outline>
</glyph>
<glyph name="Theta" format="2">
  <advance width="1514"/>
  <unicode hex="0398"/>
  <anchor x="757" y="0" name="bottom_center"/>
  <anchor x="757" y="1380" name="top_center"/>
  <outline>
    <contour>
      <point x="433" y="761" type="line"/>
      <point x="755" y="761" type="line"/>
      <point x="1077" y="761" type="line"/>
      <point x="1077" y="719" type="line"/>
      <point x="755" y="719" type="line"/>
      <point x="433" y="719" type="line"/>
    </contour>
    <component base="O"/>
  </outline>
</glyph>
<glyph name="Sigma" format="2">
  <advance width="1176"/>
  <unicode hex="03A3"/>
  <anchor x="644" y="1380" name="top_center"/>
  <anchor x="644" y="0" name="bottom_center"/>
  <outline>
    <contour>
      <point x="723" y="740" type="line"/>
      <point x="233" y="46" type="line"/>
      <point x="996" y="46" type="line"/>
      <point x="996" y="0" type="line"/>
      <point x="180" y="0" type="line"/>
      <point x="180" y="46" type="line"/>
      <point x="669" y="740" type="line"/>
      <point x="180" y="1434" type="line"/>
      <point x="180" y="1480" type="line"/>
      <point x="996" y="1480" type="line"/>
      <point x="996" y="1434" type="line"/>
      <point x="233" y="1434" type="line"/>
    </contour>
  </outline>
</glyph>
<glyph name="uni03A9" format="2">
  <advance width="1514"/>
  <unicode hex="03A9"/>
  <anchor x="757" y="-90" name="bottom_ypogegrammeni"/>
  <anchor x="757" y="1380" name="top_center"/>
  <anchor x="757" y="0" name="bottom_center"/>
  <anchor x="454" y="1480" name="top_left"/>
  <outline>
    <contour>
      <point x="662" y="0" type="line"/>
      <point x="140" y="0" type="line"/>
      <point x="140" y="42" type="line"/>
      <point x="662" y="42" type="line"/>
    </contour>
    <contour>
      <point x="1374" y="0" type="line"/>
      <point x="852" y="0" type="line"/>
      <point x="852" y="42" type="line"/>
      <point x="1374" y="42" type="line"/>
    </contour>
    <contour>
      <point x="140" y="740" type="curve" smooth="yes"/>
      <point x="140" y="1179"/>
      <point x="409" y="1490"/>
      <point x="757" y="1490" type="curve"/>
      <point x="757" y="1448" type="line"/>
      <point x="497" y="1448"/>
      <point x="186" y="1215"/>
      <point x="186" y="740" type="curve" smooth="yes"/>
      <point x="186" y="322"/>
      <point x="427" y="91"/>
      <point x="662" y="42" type="curve"/>
      <point x="521" y="42" type="line"/>
      <point x="295" y="148"/>
      <point x="140" y="407"/>
    </contour>
    <contour>
      <point x="1374" y="740" type="curve" smooth="yes"/>
      <point x="1374" y="407"/>
      <point x="1219" y="148"/>
      <point x="993" y="42" type="curve"/>
      <point x="852" y="42" type="line"/>
      <point x="1087" y="91"/>
      <point x="1328" y="322"/>
      <point x="1328" y="740" type="curve" smooth="yes"/>
      <point x="1328" y="1215"/>
      <point x="1017" y="1448"/>
      <point x="757" y="1448" type="curve"/>
      <point x="757" y="1490" type="line"/>
      <point x="1105" y="1490"/>
      <point x="1374" y="1179"/>
    </contour>
  </outline>
</glyph>
<glyph name="alpha" format="2">
  <advance width="1276"/>
  <unicode hex="03B1"/>
  <anchor x="613" y="1040" name="greek_v"/>
  <anchor x="613" y="1040" name="greek_kt"/>
  <anchor x="613" y="1040" name="greek_k"/>
  <anchor x="613" y="1040" name="greek_t"/>
  <anchor x="617" y="-90" name="bottom_ypogegrammeni"/>
  <anchor x="578" y="0" name="bottom_center"/>
  <anchor x="613" y="1040" name="top_center"/>
  <outline>
    <contour>
      <point x="560" y="1010" type="curve" smooth="yes"/>
      <point x="362" y="1010"/>
      <point x="185" y="830"/>
      <point x="185" y="520" type="curve" smooth="yes"/>
      <point x="185" y="210"/>
      <point x="362" y="30"/>
      <point x="560" y="30" type="curve" smooth="yes"/>
      <point x="783" y="30"/>
      <point x="851" y="216"/>
      <point x="940" y="520" type="curve"/>
      <point x="1084" y="1040" type="line"/>
      <point x="1129" y="1040" type="line"/>
      <point x="976" y="520" type="line"/>
      <point x="891" y="204"/>
      <point x="828" y="-10"/>
      <point x="560" y="-10" type="curve" smooth="yes"/>
      <point x="313" y="-10"/>
      <point x="140" y="208"/>
      <point x="140" y="520" type="curve" smooth="yes"/>
      <point x="140" y="832"/>
      <point x="313" y="1050"/>
      <point x="560" y="1050" type="curve" smooth="yes"/>
      <point x="982" y="1050"/>
      <point x="919" y="524"/>
      <point x="1009" y="190" type="curve" smooth="yes"/>
      <point x="1046" y="50"/>
      <point x="1084" y="30"/>
      <point x="1123" y="30" type="curve" smooth="yes"/>
      <point x="1137" y="30"/>
      <point x="1164" y="36"/>
      <point x="1195" y="56" type="curve"/>
      <point x="1206" y="14" type="line"/>
      <point x="1181" y="-3"/>
      <point x="1151" y="-10"/>
      <point x="1123" y="-10" type="curve" smooth="yes"/>
      <point x="1059" y="-10"/>
      <point x="1011" y="20"/>
      <point x="967" y="182" type="curve" smooth="yes"/>
      <point x="898" y="436"/>
      <point x="942" y="1010"/>
    </contour>
  </outline>
</glyph>
<glyph name="zeta" format="2">
  <advance width="1109"/>
  <unicode hex="03B6"/>
  <anchor x="503" y="0" name="bottom_center"/>
  <anchor x="503" y="1380" name="top_center"/>
  <outline>
    <contour>
      <point x="140" y="1480" type="line"/>
      <point x="866" y="1480" type="line"/>
      <point x="866" y="1444" type="line"/>
      <point x="805" y="1440" type="line"/>
      <point x="140" y="1440" type="line"/>
    </contour>
    <contour>
      <point x="185" y="440" type="curve"/>
      <point x="185" y="200"/>
      <point x="310" y="41"/>
      <point x="628" y="40" type="curve"/>
      <point x="825" y="40" type="line"/>
      <point x="922" y="40"/>
      <point x="969" y="-41"/>
      <point x="969" y="-101" type="curve" smooth="yes"/>
      <point x="969" y="-143"/>
      <point x="953" y="-173"/>
      <point x="937" y="-190" type="curve"/>
      <point x="896" y="-179" type="line"/>
      <point x="917" y="-157"/>
      <point x="924" y="-137"/>
      <point x="924" y="-101" type="curve" smooth="yes"/>
      <point x="924" y="-41"/>
      <point x="882" y="0"/>
      <point x="815" y="0" type="curve"/>
      <point x="628" y="0" type="line"/>
      <point x="310" y="0"/>
      <point x="140" y="140"/>
      <point x="140" y="440" type="curve" smooth="yes"/>
      <point x="140" y="840"/>
      <point x="805" y="1440"/>
      <point x="805" y="1440" type="curve"/>
      <point x="866" y="1444" type="line"/>
      <point x="866" y="1444"/>
      <point x="185" y="820"/>
    </contour>
  </outline>
</glyph>
<glyph name="pi" format="2">
  <advance width="1164"/>
  <unicode hex="03C0"/>
  <anchor x="561" y="0" name="bottom_center"/>
  <anchor x="561" y="1040" name="top_center"/>
  <outline>
    <contour>
      <point x="332" y="1000" type="line"/>
      <point x="377" y="1000" type="line"/>
      <point x="377" y="0" type="line"/>
      <point x="332" y="0" type="line"/>
    </contour>
    <contour>
      <point x="789" y="1020" type="line"/>
      <point x="789" y="230" type="line" smooth="yes"/>
      <point x="789" y="40"/>
      <point x="928" y="30"/>
      <point x="981" y="30" type="curve" smooth="yes"/>
      <point x="995" y="30"/>
      <point x="1022" y="36"/>
      <point x="1053" y="56" type="curve"/>
      <point x="1064" y="14" type="line"/>
      <point x="1039" y="-3"/>
      <point x="1009" y="-10"/>
      <point x="981" y="-10" type="curve" smooth="yes"/>
      <point x="831" y="-10"/>
      <point x="744" y="60"/>
      <point x="744" y="230" type="curve" smooth="yes"/>
      <point x="744" y="1020" type="line"/>
    </contour>
    <contour>
      <point x="981" y="1000" type="line"/>
      <point x="140" y="1000" type="line"/>
      <point x="140" y="1040" type="line"/>
      <point x="981" y="1040" type="line"/>
    </contour>
  </outline>
</glyph>
<glyph name="tau" format="2">
  <advance width="1081"/>
  <unicode hex="03C4"/>
  <anchor x="541" y="1040" name="top_center"/>
  <anchor x="541" y="0" name="bottom_center"/>
  <outline>
    <contour>
      <point x="827" y="56" type="curve"/>
      <point x="838" y="14" type="line"/>
      <point x="813" y="-3"/>
      <point x="783" y="-10"/>
      <point x="755" y="-10" type="curve" smooth="yes"/>
      <point x="605" y="-10"/>
      <point x="518" y="60"/>
      <point x="518" y="230" type="curve" smooth="yes"/>
      <point x="518" y="598" type="line"/>
      <point x="518" y="664" type="line"/>
      <point x="518" y="1020" type="line"/>
      <point x="563" y="1020" type="line"/>
      <point x="563" y="662" type="line"/>
      <point x="563" y="604" type="line"/>
      <point x="563" y="230" type="line" smooth="yes"/>
      <point x="563" y="40"/>
      <point x="702" y="30"/>
      <point x="755" y="30" type="curve" smooth="yes"/>
      <point x="769" y="30"/>
      <point x="796" y="36"/>
    </contour>
    <contour>
      <point x="961" y="998" type="line"/>
      <point x="120" y="998" type="line"/>
      <point x="120" y="1040" type="line"/>
      <point x="961" y="1040" type="line"/>
    </contour>
  </outline>
</glyph>
<glyph name="upsilon" format="2">
  <advance width="1090"/>
  <unicode hex="03C5"/>
  <anchor x="505" y="1040" name="greek_v"/>
  <anchor x="505" y="1040" name="greek_kt"/>
  <anchor x="505" y="1040" name="greek_k"/>
  <anchor x="505" y="1040" name="greek_t"/>
  <anchor x="565" y="0" name="bottom_center"/>
  <anchor x="505" y="1040" name="top_center"/>
  <outline>
    <contour>
      <point x="225" y="1040" type="line"/>
      <point x="225" y="468" type="line" smooth="yes"/>
      <point x="225" y="131"/>
      <point x="397" y="32"/>
      <point x="565" y="32" type="curve" smooth="yes"/>
      <point x="733" y="32"/>
      <point x="905" y="131"/>
      <point x="905" y="468" type="curve" smooth="yes"/>
      <point x="905" y="738"/>
      <point x="810" y="920"/>
      <point x="728" y="1029" type="curve"/>
      <point x="766" y="1051" type="line"/>
      <point x="840" y="960"/>
      <point x="950" y="768"/>
      <point x="950" y="468" type="curve" smooth="yes"/>
      <point x="950" y="128"/>
      <point x="793" y="-10"/>
      <point x="565" y="-10" type="curve" smooth="yes"/>
      <point x="337" y="-10"/>
      <point x="180" y="128"/>
      <point x="180" y="468" type="curve"/>
      <point x="180" y="1040" type="line"/>
    </contour>
  </outline>
</glyph>
<glyph name="uni03D0" format="2">
  <advance width="1190"/>
  <unicode hex="03D0"/>
  <outline>
    <contour>
      <point x="159" y="792" type="line"/>
      <point x="159" y="752" type="line"/>
      <point x="586" y="752" type="line"/>
      <point x="586" y="792" type="line"/>
    </contour>
    <contour>
      <point x="140" y="740" type="curve" smooth="yes"/>
      <point x="140" y="240"/>
      <point x="370" y="-10"/>
      <point x="617" y="-10" type="curve" smooth="yes"/>
      <point x="880" y="-10"/>
      <point x="1050" y="136"/>
      <point x="1050" y="391" type="curve" smooth="yes"/>
      <point x="1050" y="646"/>
      <point x="850" y="792"/>
      <point x="586" y="792" type="curve"/>
      <point x="586" y="752" type="line"/>
      <point x="762" y="752"/>
      <point x="1005" y="657"/>
      <point x="1005" y="391" type="curve" smooth="yes"/>
      <point x="1005" y="125"/>
      <point x="793" y="30"/>
      <point x="617" y="30" type="curve" smooth="yes"/>
      <point x="409" y="30"/>
      <point x="185" y="260"/>
      <point x="185" y="740" type="curve" smooth="yes"/>
      <point x="185" y="1220"/>
      <point x="369" y="1450"/>
      <point x="577" y="1450" type="curve" smooth="yes"/>
      <point x="757" y="1450"/>
      <point x="926" y="1341"/>
      <point x="926" y="1101" type="curve" smooth="yes"/>
      <point x="926" y="861"/>
      <point x="718" y="792"/>
      <point x="586" y="792" type="curve"/>
      <point x="605" y="759" type="line"/>
      <point x="787" y="759"/>
      <point x="971" y="866"/>
      <point x="971" y="1101" type="curve" smooth="yes"/>
      <point x="971" y="1356"/>
      <point x="801" y="1490"/>
      <point x="577" y="1490" type="curve" smooth="yes"/>
      <point x="330" y="1490"/>
      <point x="140" y="1240"/>
    </contour>
  </outline>
</glyph>
<glyph name="theta1" format="2">
  <advance width="1156"/>
  <unicode hex="03D1"/>
  <outline>
    <contour>
      <point x="140" y="740" type="line" smooth="yes"/>
      <point x="140" y="240"/>
      <point x="331" y="-10"/>
      <point x="578" y="-10" type="curve" smooth="yes"/>
      <point x="825" y="-10"/>
      <point x="1016" y="240"/>
      <point x="1016" y="740" type="curve" smooth="yes"/>
      <point x="1016" y="1240"/>
      <point x="825" y="1490"/>
      <point x="578" y="1490" type="curve" smooth="yes"/>
      <point x="376" y="1490"/>
      <point x="220" y="1345"/>
      <point x="220" y="1105" type="curve" smooth="yes"/>
      <point x="220" y="865"/>
      <point x="438" y="720"/>
      <point x="640" y="720" type="curve" smooth="yes"/>
      <point x="640" y="760" type="line" smooth="yes"/>
      <point x="500" y="760"/>
      <point x="265" y="870"/>
      <point x="265" y="1105" type="curve" smooth="yes"/>
      <point x="265" y="1340"/>
      <point x="428" y="1450"/>
      <point x="578" y="1450" type="curve" smooth="yes"/>
      <point x="786" y="1450"/>
      <point x="971" y="1220"/>
      <point x="971" y="740" type="curve" smooth="yes"/>
      <point x="971" y="260"/>
      <point x="786" y="30"/>
      <point x="578" y="30" type="curve" smooth="yes"/>
      <point x="370" y="30"/>
      <point x="185" y="260"/>
      <point x="185" y="740" type="curve" smooth="yes"/>
    </contour>
    <contour>
      <point x="994" y="760" type="line"/>
      <point x="640" y="760" type="line"/>
      <point x="640" y="720" type="line"/>
      <point x="994" y="720" type="line"/>
    </contour>
  </outline>
</glyph>
<glyph name="uni03DA" format="2">
  <advance width="1139"/>
  <unicode hex="03DA"/>
  <anchor x="605" y="0" name="bottom_center"/>
  <anchor x="605" y="1400" name="top_center"/>
  <outline>
    <contour>
      <point x="660" y="1438" type="line" smooth="yes"/>
      <point x="422" y="1438"/>
      <point x="186" y="1220"/>
      <point x="186" y="740" type="curve" smooth="yes"/>
      <point x="186" y="260"/>
      <point x="441" y="42"/>
      <point x="659" y="42" type="curve"/>
      <point x="855" y="42" type="line"/>
      <point x="952" y="42"/>
      <point x="999" y="-42"/>
      <point x="999" y="-102" type="curve" smooth="yes"/>
      <point x="999" y="-144"/>
      <point x="983" y="-174"/>
      <point x="967" y="-191" type="curve"/>
      <point x="925" y="-180" type="line"/>
      <point x="946" y="-158"/>
      <point x="953" y="-138"/>
      <point x="953" y="-102" type="curve" smooth="yes"/>
      <point x="953" y="-42"/>
      <point x="912" y="0"/>
      <point x="845" y="0" type="curve"/>
      <point x="659" y="0" type="line"/>
      <point x="396" y="0"/>
      <point x="140" y="240"/>
      <point x="140" y="740" type="curve" smooth="yes"/>
      <point x="140" y="1240"/>
      <point x="396" y="1480"/>
      <point x="660" y="1480" type="curve" smooth="yes"/>
      <point x="972" y="1480" type="line"/>
      <point x="972" y="1438" type="line"/>
    </contour>
  </outline>
</glyph>
<glyph name="uni03E4" format="2">
  <advance width="1197"/>
  <unicode hex="03E4"/>
  <outline>
    <contour>
      <point x="578" y="1490" type="curve" smooth="yes"/>
      <point x="615" y="1490"/>
      <point x="650" y="1485"/>
      <point x="684" y="1476" type="curve"/>
      <point x="672" y="1435" type="line"/>
      <point x="640" y="1445"/>
      <point x="608" y="1450"/>
      <point x="578" y="1450" type="curve" smooth="yes"/>
      <point x="410" y="1450"/>
      <point x="185" y="1296"/>
      <point x="185" y="960" type="curve" smooth="yes"/>
      <point x="185" y="624"/>
      <point x="410" y="470"/>
      <point x="578" y="470" type="curve" smooth="yes"/>
      <point x="758" y="470"/>
      <point x="852" y="497"/>
      <point x="987" y="592" type="curve"/>
      <point x="1001" y="565" type="line"/>
      <point x="885" y="468"/>
      <point x="805" y="430"/>
      <point x="578" y="430" type="curve" smooth="yes"/>
      <point x="331" y="430"/>
      <point x="140" y="648"/>
      <point x="140" y="960" type="curve" smooth="yes"/>
      <point x="140" y="1272"/>
      <point x="331" y="1490"/>
    </contour>
    <contour>
      <point x="971" y="776" type="line"/>
      <point x="971" y="1480" type="line"/>
      <point x="1017" y="1480" type="line"/>
      <point x="1017" y="0" type="line"/>
      <point x="971" y="0" type="line"/>
    </contour>
  </outline>
</glyph>
<glyph name="uni03EB" format="2">
  <advance width="986"/>
  <unicode hex="03EB"/>
  <outline>
    <contour>
      <point x="625" y="896" type="line"/>
      <point x="661" y="995"/>
      <point x="706" y="1010"/>
      <point x="751" y="1010" type="curve" smooth="yes"/>
      <point x="789" y="1010"/>
      <point x="813" y="1003"/>
      <point x="852" y="975" type="curve"/>
      <point x="866" y="1018" type="line"/>
      <point x="826" y="1036"/>
      <point x="800" y="1050"/>
      <point x="751" y="1050" type="curve" smooth="yes"/>
      <point x="655" y="1050"/>
      <point x="616" y="1001"/>
      <point x="583" y="912" type="curve"/>
      <point x="494" y="686" type="line"/>
      <point x="403" y="912" type="line"/>
      <point x="370" y="1001"/>
      <point x="331" y="1050"/>
      <point x="235" y="1050" type="curve" smooth="yes"/>
      <point x="186" y="1050"/>
      <point x="160" y="1036"/>
      <point x="120" y="1018" type="curve"/>
      <point x="134" y="975" type="line"/>
      <point x="173" y="1003"/>
      <point x="197" y="1010"/>
      <point x="235" y="1010" type="curve" smooth="yes"/>
      <point x="280" y="1010"/>
      <point x="325" y="995"/>
      <point x="361" y="896" type="curve"/>
      <point x="468" y="640" type="line"/>
      <point x="216" y="40" type="line"/>
      <point x="216" y="0" type="line"/>
      <point x="772" y="0" type="line"/>
      <point x="772" y="40" type="line"/>
      <point x="520" y="640" type="line"/>
    </contour>
    <contour>
      <point x="494" y="588" type="line"/>
      <point x="727" y="40" type="line"/>
      <point x="261" y="40" type="line"/>
    </contour>
  </outline>
</glyph>
<glyph name="uni03F1" format="2">
  <advance width="1152"/>
  <unicode hex="03F1"/>
  <outline>
    <contour>
      <point x="225" y="0" type="curve"/>
      <point x="225" y="260" type="line"/>
      <point x="256" y="144"/>
      <point x="392" y="-10"/>
      <point x="592" y="-10" type="curve" smooth="yes"/>
      <point x="839" y="-10"/>
      <point x="1012" y="208"/>
      <point x="1012" y="520" type="curve" smooth="yes"/>
      <point x="1012" y="832"/>
      <point x="839" y="1050"/>
      <point x="592" y="1050" type="curve" smooth="yes"/>
      <point x="345" y="1050"/>
      <point x="180" y="834"/>
      <point x="180" y="522" type="curve" smooth="yes"/>
      <point x="180" y="0" type="line"/>
      <point x="180" y="-312"/>
      <point x="343" y="-440"/>
      <point x="624" y="-440" type="curve" smooth="yes"/>
      <point x="957" y="-440" type="line"/>
      <point x="957" y="-398" type="line"/>
      <point x="624" y="-398" type="line" smooth="yes"/>
      <point x="384" y="-398"/>
      <point x="225" y="-290"/>
    </contour>
    <contour>
      <point x="221" y="520" type="curve"/>
      <point x="221" y="856"/>
      <point x="417" y="1010"/>
      <point x="592" y="1010" type="curve" smooth="yes"/>
      <point x="767" y="1010"/>
      <point x="967" y="856"/>
      <point x="967" y="520" type="curve" smooth="yes"/>
      <point x="967" y="184"/>
      <point x="767" y="30"/>
      <point x="592" y="30" type="curve" smooth="yes"/>
      <point x="417" y="30"/>
      <point x="221" y="184"/>
    </contour>
  </outline>
</glyph>
<glyph name="uni03F3" format="2">
  <advance width="505"/>
  <unicode hex="03F3"/>
  <outline>
    <contour>
      <point x="238" y="1426" type="curve" smooth="yes"/>
      <point x="238" y="1462"/>
      <point x="266" y="1490"/>
      <point x="302" y="1490" type="curve" smooth="yes"/>
      <point x="338" y="1490"/>
      <point x="366" y="1462"/>
      <point x="366" y="1426" type="curve" smooth="yes"/>
      <point x="366" y="1390"/>
      <point x="338" y="1362"/>
      <point x="302" y="1362" type="curve" smooth="yes"/>
      <point x="266" y="1362"/>
      <point x="238" y="1390"/>
    </contour>
    <contour>
      <point x="16" y="-384" type="line"/>
      <point x="47" y="-404"/>
      <point x="74" y="-410"/>
      <point x="88" y="-410" type="curve" smooth="yes"/>
      <point x="141" y="-410"/>
      <point x="280" y="-400"/>
      <point x="280" y="-210" type="curve" smooth="yes"/>
      <point x="280" y="0" type="line"/>
      <point x="280" y="138" type="line"/>
      <point x="280" y="1040" type="line"/>
      <point x="325" y="1040" type="line"/>
      <point x="325" y="138" type="line"/>
      <point x="325" y="0" type="line"/>
      <point x="325" y="-210" type="line" smooth="yes"/>
      <point x="325" y="-380"/>
      <point x="238" y="-450"/>
      <point x="88" y="-450" type="curve" smooth="yes"/>
      <point x="60" y="-450"/>
      <point x="30" y="-443"/>
      <point x="5" y="-426" type="curve"/>
    </contour>
  </outline>
</glyph>
<glyph name="uni03F4" format="2">
  <advance width="1514"/>
  <unicode hex="03F4"/>
  <outline>
    <contour>
      <point x="163" y="761" type="line"/>
      <point x="755" y="761" type="line"/>
      <point x="1347" y="761" type="line"/>
      <point x="1347" y="719" type="line"/>
      <point x="755" y="719" type="line"/>
      <point x="163" y="719" type="line"/>
    </contour>
    <component base="O"/>
  </outline>
</glyph>
